<svg width="183" height="64" viewBox="0 0 183 64" fill="none" xmlns="http://www.w3.org/2000/svg">
<g filter="url(#filter0_n_13_5051)">
<path d="M0.194336 35.1953H6.27434V58.0753H19.0743V63.1553H0.194336V35.1953Z" fill="white"/>
<path d="M15.8787 35.1953H22.3587L30.0387 55.0753L37.7587 35.1953H44.1987L33.0387 63.1553H27.0787L15.8787 35.1953Z" fill="white"/>
<path d="M47.5771 35.1953H53.6572V58.0753H66.4572V63.1553H47.5771V35.1953Z" fill="white"/>
<path d="M89.9263 53.1967L100.468 43.5827C102.604 41.6711 104.207 40.2655 105.275 39.366C108.48 36.5548 110.925 34.3059 112.612 32.6193C114.299 30.8764 115.676 29.0772 116.744 27.2219C117.813 25.3666 118.347 23.455 118.347 21.4872C118.347 18.7323 117.532 16.5677 115.901 14.9935C114.327 13.4193 111.853 12.6321 108.48 12.6321C105.669 12.6321 102.857 13.1381 100.046 14.1502C97.2352 15.1059 94.649 16.4834 92.2876 18.2825V6.0541C94.7614 4.3112 97.5726 2.98997 100.721 2.09041C103.926 1.13463 107.383 0.656738 111.094 0.656738C115.367 0.656738 119.05 1.44385 122.142 3.01809C125.234 4.59232 127.595 6.81311 129.226 9.68046C130.856 12.5478 131.672 15.8368 131.672 19.5475C131.672 23.708 130.603 27.4187 128.467 30.6796C126.387 33.8843 122.985 37.6793 118.262 42.0646L109.239 50.3294H133.696V60.8711H89.9263V53.1967Z" fill="white"/>
<path d="M156.719 62.1361C153.458 62.1361 150.226 61.7707 147.021 61.0398C143.872 60.3651 141.23 59.4093 139.094 58.1724V47.1247C141.567 48.6989 144.322 49.9358 147.358 50.8354C150.451 51.6787 153.374 52.1004 156.129 52.1004C160.514 52.1004 163.803 51.257 165.996 49.5704C168.189 47.8275 169.285 45.3256 169.285 42.0646C169.285 38.9162 168.189 36.4986 165.996 34.8119C163.86 33.1253 160.824 32.2819 156.888 32.2819C154.92 32.2819 152.84 32.4787 150.647 32.8723C148.511 33.2658 146.627 33.7999 144.997 34.4746L139.853 31.5229L142.214 1.92174H178.393V12.4635H154.274L153.346 23.8485C156.438 23.1739 159.53 22.8365 162.623 22.8365C168.807 22.8365 173.614 24.5232 177.044 27.8966C180.53 31.2137 182.272 35.8521 182.272 41.8116C182.272 48.2772 180.108 53.281 175.779 56.8231C171.506 60.3651 165.153 62.1361 156.719 62.1361Z" fill="white"/>
</g>
<defs>
<filter id="filter0_n_13_5051" x="0.194336" y="0.656738" width="182.078" height="62.4985" filterUnits="userSpaceOnUse" color-interpolation-filters="sRGB">
<feFlood flood-opacity="0" result="BackgroundImageFix"/>
<feBlend mode="normal" in="SourceGraphic" in2="BackgroundImageFix" result="shape"/>
<feTurbulence type="fractalNoise" baseFrequency="0.28571429848670959 0.28571429848670959" stitchTiles="stitch" numOctaves="3" result="noise" seed="9982" />
<feComponentTransfer in="noise" result="coloredNoise1">
<feFuncR type="linear" slope="2" intercept="-0.5" />
<feFuncG type="linear" slope="2" intercept="-0.5" />
<feFuncB type="linear" slope="2" intercept="-0.5" />
<feFuncA type="discrete" tableValues="1 1 1 1 1 1 1 1 1 1 1 1 1 1 1 1 1 1 1 1 1 1 1 1 1 1 1 1 1 1 1 1 1 1 1 1 1 1 1 1 1 1 1 1 1 1 1 1 1 1 1 0 0 0 0 0 0 0 0 0 0 0 0 0 0 0 0 0 0 0 0 0 0 0 0 0 0 0 0 0 0 0 0 0 0 0 0 0 0 0 0 0 0 0 0 0 0 0 0 0 "/>
</feComponentTransfer>
<feComposite operator="in" in2="shape" in="coloredNoise1" result="noise1Clipped" />
<feComponentTransfer in="noise1Clipped" result="color1">
<feFuncA type="table" tableValues="0 0.15" />
</feComponentTransfer>
<feMerge result="effect1_noise_13_5051">
<feMergeNode in="shape" />
<feMergeNode in="color1" />
</feMerge>
</filter>
</defs>
</svg>
