<svg width="400" height="395" viewBox="0 0 400 395" fill="none" xmlns="http://www.w3.org/2000/svg">
<g opacity="0.5" filter="url(#filter0_f_0_1816)">
<circle cx="200.16" cy="96.959" r="6.91015" fill="url(#paint0_radial_0_1816)"/>
</g>
<path fill-rule="evenodd" clip-rule="evenodd" d="M199.008 298.891C254.346 298.891 299.205 254.031 299.205 198.694C299.205 143.357 254.346 98.4967 199.008 98.4967C143.671 98.4967 98.8112 143.357 98.8112 198.694C98.8112 254.031 143.671 298.891 199.008 298.891ZM199.008 301.194C255.618 301.194 301.509 255.303 301.509 198.694C301.509 142.084 255.618 96.1934 199.008 96.1934C142.399 96.1934 96.5078 142.084 96.5078 198.694C96.5078 255.303 142.399 301.194 199.008 301.194Z" fill="url(#paint1_linear_0_1816)"/>
<g filter="url(#filter1_f_0_1816)">
<path d="M200.161 85.4434L201.149 95.9019L210.91 96.9603L201.149 98.0187L200.161 108.477L199.173 98.0187L189.412 96.9603L199.173 95.9019L200.161 85.4434Z" fill="white"/>
</g>
<path d="M187.472 167.189L183.45 76.123H215.625L211.603 167.189H187.472Z" fill="url(#paint2_linear_0_1816)"/>
<path d="M225.103 193.221L305.979 235.271L289.892 263.136L213.037 214.12L225.103 193.221Z" fill="url(#paint3_linear_0_1816)"/>
<path d="M211.026 215.74L215.048 306.807H182.873L186.895 215.74H211.026Z" fill="url(#paint4_linear_0_1816)"/>
<path d="M185.612 214.412L108.757 263.428L92.6694 235.564L173.546 193.513L185.612 214.412Z" fill="url(#paint5_linear_0_1816)"/>
<path d="M225.103 189.849L305.979 147.799L289.892 119.935L213.037 168.951L225.103 189.849Z" fill="url(#paint6_linear_0_1816)"/>
<path d="M185.612 168.663L108.757 119.646L92.6694 147.511L173.546 189.561L185.612 168.663Z" fill="url(#paint7_linear_0_1816)"/>
<g filter="url(#filter2_dd_0_1816)">
<path d="M141.183 180.428L141.183 157.793L87.7398 157.793C87.7398 171.94 97.7408 180.428 105.867 180.428L141.183 180.428Z" fill="url(#paint8_linear_0_1816)"/>
<path d="M141.183 180.428L141.183 157.793L87.7398 157.793C87.7398 171.94 97.7408 180.428 105.867 180.428L141.183 180.428Z" stroke="url(#paint9_linear_0_1816)" stroke-width="3.22453"/>
<path d="M160.044 200.545L160.044 177.91L106.601 177.91C106.601 192.057 116.602 200.545 124.728 200.545L160.044 200.545Z" fill="url(#paint10_linear_0_1816)"/>
<path d="M160.044 200.545L160.044 177.91L106.601 177.91C106.601 192.057 116.602 200.545 124.728 200.545L160.044 200.545Z" stroke="url(#paint11_linear_0_1816)" stroke-width="3.22453"/>
<path d="M258.933 180.428L258.933 157.793L312.375 157.793C312.375 171.94 302.374 180.428 294.249 180.428L258.933 180.428Z" fill="url(#paint12_linear_0_1816)"/>
<path d="M258.933 180.428L258.933 157.793L312.375 157.793C312.375 171.94 302.374 180.428 294.249 180.428L258.933 180.428Z" stroke="url(#paint13_linear_0_1816)" stroke-width="3.22453"/>
<path d="M240.073 200.545L240.073 177.91L293.516 177.91C293.516 192.057 283.515 200.545 275.389 200.545L240.073 200.545Z" fill="url(#paint14_linear_0_1816)"/>
<path d="M240.073 200.545L240.073 177.91L293.516 177.91C293.516 192.057 283.515 200.545 275.389 200.545L240.073 200.545Z" stroke="url(#paint15_linear_0_1816)" stroke-width="3.22453"/>
<g filter="url(#filter3_d_0_1816)">
<path fill-rule="evenodd" clip-rule="evenodd" d="M169.363 227.959V276.656L184.284 284.674C185.22 285.177 186.355 284.5 186.355 283.437C186.354 265.64 186.371 245.543 186.371 227.959H169.363Z" fill="#9CB7ED"/>
<path fill-rule="evenodd" clip-rule="evenodd" d="M169.363 227.959V276.656L184.284 284.674C185.22 285.177 186.355 284.5 186.355 283.437C186.354 265.64 186.371 245.543 186.371 227.959H169.363Z" stroke="url(#paint16_linear_0_1816)" stroke-width="1.40556"/>
</g>
<path fill-rule="evenodd" clip-rule="evenodd" d="M170.765 274.475V255.365H170.454V274.734L170.584 274.756C171.014 274.827 171.492 275.081 171.882 275.453C172.272 275.824 172.56 276.299 172.632 276.8L172.643 276.883L185.217 283.32V261.741H184.906V282.831L172.925 276.672C172.823 276.118 172.502 275.614 172.096 275.228C171.707 274.857 171.229 274.583 170.765 274.475Z" fill="url(#paint17_linear_0_1816)"/>
<path fill-rule="evenodd" clip-rule="evenodd" d="M184.886 281.696C185.221 281.13 185.241 280.326 185.215 279.807L184.904 279.822C184.93 280.339 184.903 281.058 184.619 281.538C184.481 281.77 184.286 281.942 184.006 282.012C183.721 282.084 183.327 282.056 182.785 281.845L182.672 282.135C183.249 282.359 183.712 282.406 184.082 282.313C184.457 282.219 184.714 281.987 184.886 281.696Z" fill="#E3EFFB"/>
<g filter="url(#filter4_d_0_1816)">
<path fill-rule="evenodd" clip-rule="evenodd" d="M166.633 275.56V227.959H146.892V263.329C146.892 264.943 147.814 266.416 149.266 267.121L166.633 275.56Z" fill="#C6D9FF"/>
<path fill-rule="evenodd" clip-rule="evenodd" d="M166.633 275.56V227.959H146.892V263.329C146.892 264.943 147.814 266.416 149.266 267.121L166.633 275.56Z" stroke="url(#paint18_linear_0_1816)" stroke-width="1.40556"/>
</g>
<path fill-rule="evenodd" clip-rule="evenodd" d="M148.356 263.665V241.115H147.989V263.97L148.142 263.996C148.649 264.08 149.213 264.38 149.673 264.819C150.133 265.257 150.474 265.817 150.558 266.408L150.572 266.506L165.409 273.455V248.639H165.042V272.878L150.905 266.257C150.784 265.603 150.405 265.009 149.926 264.553C149.467 264.116 148.903 263.793 148.356 263.665Z" fill="url(#paint19_linear_0_1816)"/>
<path fill-rule="evenodd" clip-rule="evenodd" d="M165.018 271.536C165.413 270.868 165.436 269.919 165.405 269.307L165.039 269.325C165.069 269.935 165.037 270.783 164.702 271.349C164.54 271.624 164.31 271.826 163.979 271.909C163.643 271.994 163.178 271.961 162.538 271.712L162.405 272.054C163.086 272.318 163.632 272.374 164.068 272.265C164.511 272.154 164.815 271.879 165.018 271.536Z" fill="#F2F9FF"/>
<g filter="url(#filter5_d_0_1816)">
<path fill-rule="evenodd" clip-rule="evenodd" d="M231.318 227.959V276.656L216.398 284.674C215.461 285.177 214.327 284.5 214.327 283.437C214.327 265.64 214.311 245.543 214.311 227.959H231.318Z" fill="#9CB7ED"/>
<path fill-rule="evenodd" clip-rule="evenodd" d="M231.318 227.959V276.656L216.398 284.674C215.461 285.177 214.327 284.5 214.327 283.437C214.327 265.64 214.311 245.543 214.311 227.959H231.318Z" stroke="url(#paint20_linear_0_1816)" stroke-width="1.40556"/>
</g>
<path fill-rule="evenodd" clip-rule="evenodd" d="M229.911 274.475V255.365H230.221V274.734L230.092 274.756C229.662 274.827 229.184 275.081 228.794 275.453C228.404 275.824 228.116 276.299 228.044 276.8L228.032 276.883L215.459 283.32V261.741H215.77V282.831L227.75 276.672C227.853 276.118 228.174 275.614 228.58 275.228C228.969 274.857 229.447 274.583 229.911 274.475Z" fill="url(#paint21_linear_0_1816)"/>
<path fill-rule="evenodd" clip-rule="evenodd" d="M215.789 281.696C215.454 281.13 215.435 280.326 215.461 279.807L215.772 279.822C215.746 280.339 215.773 281.058 216.057 281.538C216.195 281.77 216.389 281.942 216.67 282.012C216.955 282.084 217.349 282.056 217.891 281.845L218.004 282.135C217.427 282.359 216.964 282.406 216.594 282.313C216.219 282.219 215.961 281.987 215.789 281.696Z" fill="#E3EFFB"/>
<g filter="url(#filter6_d_0_1816)">
<path fill-rule="evenodd" clip-rule="evenodd" d="M234.049 275.56V227.959H253.789V263.329C253.789 264.943 252.868 266.416 251.416 267.121L234.049 275.56Z" fill="#C6D9FF"/>
<path fill-rule="evenodd" clip-rule="evenodd" d="M234.049 275.56V227.959H253.789V263.329C253.789 264.943 252.868 266.416 251.416 267.121L234.049 275.56Z" stroke="url(#paint22_linear_0_1816)" stroke-width="1.40556"/>
</g>
<path fill-rule="evenodd" clip-rule="evenodd" d="M252.326 263.665V241.115H252.693V263.97L252.539 263.996C252.032 264.08 251.469 264.38 251.008 264.819C250.548 265.257 250.208 265.817 250.124 266.408L250.11 266.506L235.273 273.455V248.639H235.64V272.878L249.777 266.257C249.897 265.603 250.277 265.009 250.755 264.553C251.215 264.116 251.779 263.793 252.326 263.665Z" fill="url(#paint23_linear_0_1816)"/>
<path fill-rule="evenodd" clip-rule="evenodd" d="M235.664 271.536C235.269 270.868 235.246 269.919 235.277 269.307L235.643 269.325C235.612 269.935 235.645 270.783 235.98 271.349C236.142 271.624 236.372 271.826 236.702 271.909C237.039 271.994 237.504 271.961 238.144 271.712L238.277 272.054C237.596 272.318 237.049 272.374 236.613 272.265C236.171 272.154 235.867 271.879 235.664 271.536Z" fill="#F2F9FF"/>
<g filter="url(#filter7_d_0_1816)">
<path d="M181.424 213.705H219.245V290.271L202.206 300.666C200.909 301.457 199.279 301.456 197.983 300.663L181.424 290.534V213.705Z" fill="#6A88C4"/>
<path d="M181.424 213.705H219.245V290.271L202.206 300.666C200.909 301.457 199.279 301.456 197.983 300.663L181.424 290.534V213.705Z" stroke="url(#paint24_linear_0_1816)" stroke-width="2.81113"/>
</g>
<path fill-rule="evenodd" clip-rule="evenodd" d="M183.34 261.396H183.888V288.924L200.059 298.896L216.502 288.923V261.396H217.05V289.231L200.057 299.539L183.34 289.23V261.396Z" fill="url(#paint25_linear_0_1816)"/>
<path fill-rule="evenodd" clip-rule="evenodd" d="M200.299 287.705V297.65H199.822V287.705H200.299Z" fill="url(#paint26_linear_0_1816)"/>
<path fill-rule="evenodd" clip-rule="evenodd" d="M198.632 294.121C197.683 295.214 196.528 295.458 195.732 295.325L195.811 294.855C196.445 294.961 197.433 294.776 198.272 293.809C199.113 292.838 199.821 291.057 199.821 287.943H200.298C200.298 291.119 199.577 293.031 198.632 294.121Z" fill="url(#paint27_linear_0_1816)"/>
<path fill-rule="evenodd" clip-rule="evenodd" d="M201.486 294.121C202.434 295.214 203.589 295.458 204.385 295.325L204.306 294.855C203.673 294.961 202.684 294.776 201.846 293.809C201.004 292.838 200.296 291.057 200.296 287.943H199.819C199.819 291.119 200.541 293.031 201.486 294.121Z" fill="url(#paint28_linear_0_1816)"/>
<path fill-rule="evenodd" clip-rule="evenodd" d="M199.958 297.87L194.578 294.855L195.769 294.855L200.058 297.391L204.346 294.834H205.397L200.156 297.87C200.093 297.899 200.021 297.898 199.958 297.87Z" fill="url(#paint29_linear_0_1816)"/>
<g filter="url(#filter8_d_0_1816)">
<path d="M188.641 117.963L144.019 142.237C136.33 146.42 131.543 154.473 131.543 163.227L131.543 219.512C131.543 228.265 136.33 236.318 144.019 240.502L188.641 264.775C195.761 268.648 204.358 268.648 211.478 264.775L256.099 240.502C263.789 236.318 268.576 228.265 268.576 219.512L268.576 163.227C268.576 154.473 263.789 146.42 256.099 142.237L211.478 117.963C204.358 114.09 195.761 114.09 188.641 117.963Z" fill="url(#paint30_linear_0_1816)"/>
<path d="M188.601 129.999L154.386 148.611C146.726 152.779 141.957 160.801 141.957 169.522L141.957 212.939C141.957 221.66 146.726 229.683 154.386 233.85L188.601 252.463C195.694 256.321 204.259 256.321 211.352 252.463L245.567 233.85C253.228 229.683 257.997 221.66 257.997 212.939L257.997 169.522C257.997 160.801 253.228 152.779 245.567 148.611L211.352 129.999C204.259 126.14 195.694 126.14 188.601 129.999Z" fill="url(#paint31_linear_0_1816)"/>
<g filter="url(#filter9_f_0_1816)">
<path d="M188.601 129.999L154.386 148.611C146.726 152.779 141.957 160.801 141.957 169.522L141.957 212.939C141.957 221.66 146.726 229.683 154.386 233.85L188.601 252.463C195.694 256.321 204.259 256.321 211.352 252.463L245.567 233.85C253.228 229.683 257.997 221.66 257.997 212.939L257.997 169.522C257.997 160.801 253.228 152.779 245.567 148.611L211.352 129.999C204.259 126.14 195.694 126.14 188.601 129.999Z" stroke="url(#paint32_linear_0_1816)" stroke-width="1.40556"/>
</g>
<g opacity="0.5">
<mask id="mask0_0_1816" style="mask-type:alpha" maskUnits="userSpaceOnUse" x="146" y="132" width="108" height="119">
<path d="M189.519 135.172L158.719 151.911C151.428 155.874 146.889 163.508 146.889 171.806L146.889 210.875C146.889 219.174 151.428 226.807 158.719 230.77L189.519 247.51C196.261 251.174 204.402 251.174 211.144 247.51L241.944 230.77C249.235 226.807 253.774 219.174 253.774 210.875L253.774 171.806C253.774 163.508 249.235 155.874 241.944 151.911L211.144 135.172C204.402 131.507 196.261 131.507 189.519 135.172Z" fill="#A6D3DE"/>
</mask>
<g mask="url(#mask0_0_1816)">
<path d="M189.519 135.172L158.719 151.911C151.428 155.874 146.889 163.508 146.889 171.806L146.889 210.875C146.889 219.174 151.428 226.807 158.719 230.77L189.519 247.51C196.261 251.174 204.402 251.174 211.144 247.51L241.944 230.77C249.235 226.807 253.774 219.174 253.774 210.875L253.774 171.806C253.774 163.508 249.235 155.874 241.944 151.911L211.144 135.172C204.402 131.507 196.261 131.507 189.519 135.172Z" fill="url(#paint33_radial_0_1816)"/>
<path opacity="0.5" d="M191.398 255.842L189.275 126.842H211.39L209.267 255.842H191.398Z" fill="url(#paint34_linear_0_1816)"/>
<path opacity="0.5" d="M191.112 254.697L124.773 144.041L143.925 132.984L206.586 245.762L191.112 254.697Z" fill="url(#paint35_linear_0_1816)"/>
<path opacity="0.5" d="M189.27 245.761L251.932 132.982L271.083 144.04L204.745 254.695L189.27 245.761Z" fill="url(#paint36_linear_0_1816)"/>
<rect x="146.889" y="183.967" width="106.886" height="69.4142" fill="url(#paint37_linear_0_1816)"/>
<g filter="url(#filter10_i_0_1816)">
<path d="M189.519 135.172L158.719 151.911C151.428 155.874 146.889 163.508 146.889 171.806L146.889 210.875C146.889 219.174 151.428 226.807 158.719 230.77L189.519 247.51C196.261 251.174 204.402 251.174 211.144 247.51L241.944 230.77C249.235 226.807 253.774 219.174 253.774 210.875L253.774 171.806C253.774 163.508 249.235 155.874 241.944 151.911L211.144 135.172C204.402 131.507 196.261 131.507 189.519 135.172Z" fill="#6052B4" fill-opacity="0.01"/>
</g>
<g filter="url(#filter11_d_0_1816)">
<path d="M171.366 193.92V173.073L174.774 176.311H167.318V170.306H179.328V193.92H171.366ZM195.732 194.46C193.641 194.46 191.785 193.976 190.166 193.009C188.57 192.042 187.31 190.637 186.388 188.792C185.489 186.948 185.039 184.722 185.039 182.113C185.039 179.504 185.489 177.278 186.388 175.434C187.31 173.59 188.57 172.184 190.166 171.217C191.785 170.25 193.641 169.767 195.732 169.767C197.824 169.767 199.668 170.25 201.265 171.217C202.884 172.184 204.143 173.59 205.043 175.434C205.965 177.278 206.426 179.504 206.426 182.113C206.426 184.722 205.965 186.948 205.043 188.792C204.143 190.637 202.884 192.042 201.265 193.009C199.668 193.976 197.824 194.46 195.732 194.46ZM195.732 188.084C196.25 188.084 196.711 187.904 197.115 187.544C197.52 187.184 197.835 186.566 198.06 185.689C198.307 184.812 198.431 183.62 198.431 182.113C198.431 180.584 198.307 179.392 198.06 178.537C197.835 177.66 197.52 177.042 197.115 176.682C196.711 176.322 196.25 176.142 195.732 176.142C195.215 176.142 194.754 176.322 194.349 176.682C193.944 177.042 193.618 177.66 193.371 178.537C193.146 179.392 193.034 180.584 193.034 182.113C193.034 183.62 193.146 184.812 193.371 185.689C193.618 186.566 193.944 187.184 194.349 187.544C194.754 187.904 195.215 188.084 195.732 188.084ZM221.9 194.46C219.808 194.46 217.953 193.976 216.334 193.009C214.737 192.042 213.478 190.637 212.556 188.792C211.656 186.948 211.206 184.722 211.206 182.113C211.206 179.504 211.656 177.278 212.556 175.434C213.478 173.59 214.737 172.184 216.334 171.217C217.953 170.25 219.808 169.767 221.9 169.767C223.991 169.767 225.835 170.25 227.432 171.217C229.051 172.184 230.311 173.59 231.21 175.434C232.132 177.278 232.593 179.504 232.593 182.113C232.593 184.722 232.132 186.948 231.21 188.792C230.311 190.637 229.051 192.042 227.432 193.009C225.835 193.976 223.991 194.46 221.9 194.46ZM221.9 188.084C222.417 188.084 222.878 187.904 223.283 187.544C223.688 187.184 224.003 186.566 224.228 185.689C224.475 184.812 224.599 183.62 224.599 182.113C224.599 180.584 224.475 179.392 224.228 178.537C224.003 177.66 223.688 177.042 223.283 176.682C222.878 176.322 222.417 176.142 221.9 176.142C221.383 176.142 220.922 176.322 220.517 176.682C220.112 177.042 219.786 177.66 219.539 178.537C219.314 179.392 219.201 180.584 219.201 182.113C219.201 183.62 219.314 184.812 219.539 185.689C219.786 186.566 220.112 187.184 220.517 187.544C220.922 187.904 221.383 188.084 221.9 188.084Z" fill="url(#paint38_linear_0_1816)" shape-rendering="crispEdges"/>
</g>
<g filter="url(#filter12_d_0_1816)">
<path d="M168.894 218.92V207.113H173.752C174.798 207.113 175.692 207.282 176.434 207.619C177.187 207.957 177.766 208.44 178.171 209.07C178.576 209.699 178.778 210.447 178.778 211.313C178.778 212.179 178.576 212.927 178.171 213.556C177.766 214.186 177.187 214.669 176.434 215.007C175.692 215.344 174.798 215.513 173.752 215.513H170.109L171.087 214.484V218.92H168.894ZM171.087 214.72L170.109 213.657H173.651C174.618 213.657 175.343 213.455 175.827 213.05C176.321 212.634 176.569 212.055 176.569 211.313C176.569 210.56 176.321 209.981 175.827 209.576C175.343 209.171 174.618 208.969 173.651 208.969H170.109L171.087 207.889V214.72ZM186.665 219.089C185.743 219.089 184.894 218.937 184.118 218.633C183.342 218.33 182.668 217.908 182.094 217.368C181.521 216.817 181.077 216.176 180.762 215.445C180.447 214.703 180.289 213.894 180.289 213.017C180.289 212.139 180.447 211.335 180.762 210.605C181.077 209.862 181.521 209.222 182.094 208.682C182.668 208.131 183.342 207.704 184.118 207.4C184.894 207.096 185.737 206.945 186.648 206.945C187.57 206.945 188.414 207.096 189.178 207.4C189.954 207.704 190.629 208.131 191.202 208.682C191.776 209.222 192.22 209.862 192.535 210.605C192.85 211.335 193.007 212.139 193.007 213.017C193.007 213.894 192.85 214.703 192.535 215.445C192.22 216.188 191.776 216.828 191.202 217.368C190.629 217.908 189.954 218.33 189.178 218.633C188.414 218.937 187.576 219.089 186.665 219.089ZM186.648 217.166C187.244 217.166 187.795 217.065 188.301 216.862C188.807 216.66 189.246 216.373 189.617 216.002C189.988 215.62 190.275 215.181 190.477 214.686C190.691 214.18 190.797 213.624 190.797 213.017C190.797 212.409 190.691 211.858 190.477 211.364C190.275 210.858 189.988 210.419 189.617 210.048C189.246 209.666 188.807 209.373 188.301 209.171C187.795 208.969 187.244 208.867 186.648 208.867C186.052 208.867 185.501 208.969 184.995 209.171C184.5 209.373 184.062 209.666 183.68 210.048C183.309 210.419 183.016 210.858 182.803 211.364C182.6 211.858 182.499 212.409 182.499 213.017C182.499 213.613 182.6 214.163 182.803 214.669C183.016 215.176 183.309 215.62 183.68 216.002C184.051 216.373 184.489 216.66 184.995 216.862C185.501 217.065 186.052 217.166 186.648 217.166ZM195.331 218.92V207.113H197.524V218.92H195.331ZM200.717 218.92V207.113H202.522L209.927 216.204H209.033V207.113H211.208V218.92H209.404L201.999 209.829H202.893V218.92H200.717ZM216.767 218.92V208.969H212.854V207.113H222.873V208.969H218.96V218.92H216.767ZM228.063 219.089C227.141 219.089 226.259 218.959 225.415 218.701C224.572 218.431 223.903 218.088 223.408 217.672L224.167 215.968C224.639 216.339 225.224 216.649 225.921 216.896C226.618 217.143 227.332 217.267 228.063 217.267C228.682 217.267 229.182 217.2 229.564 217.065C229.947 216.93 230.228 216.75 230.408 216.525C230.588 216.289 230.678 216.024 230.678 215.732C230.678 215.372 230.548 215.086 230.29 214.872C230.031 214.647 229.694 214.473 229.278 214.349C228.873 214.214 228.418 214.09 227.912 213.978C227.417 213.866 226.916 213.736 226.41 213.59C225.916 213.433 225.46 213.236 225.044 213C224.639 212.752 224.308 212.426 224.049 212.021C223.79 211.617 223.661 211.099 223.661 210.47C223.661 209.829 223.83 209.244 224.167 208.716C224.516 208.176 225.039 207.749 225.736 207.434C226.444 207.108 227.338 206.945 228.418 206.945C229.126 206.945 229.829 207.034 230.526 207.214C231.223 207.394 231.83 207.653 232.347 207.99L231.656 209.694C231.127 209.379 230.582 209.148 230.02 209.002C229.458 208.845 228.918 208.766 228.401 208.766C227.793 208.766 227.299 208.839 226.916 208.985C226.545 209.132 226.27 209.323 226.09 209.559C225.921 209.795 225.837 210.065 225.837 210.368C225.837 210.728 225.961 211.021 226.208 211.246C226.467 211.459 226.798 211.628 227.203 211.752C227.619 211.875 228.08 211.999 228.586 212.123C229.092 212.235 229.593 212.364 230.087 212.511C230.593 212.657 231.049 212.848 231.454 213.084C231.87 213.32 232.201 213.641 232.449 214.045C232.707 214.45 232.837 214.962 232.837 215.58C232.837 216.21 232.662 216.795 232.314 217.334C231.976 217.863 231.454 218.29 230.745 218.616C230.037 218.931 229.143 219.089 228.063 219.089Z" fill="url(#paint39_linear_0_1816)" shape-rendering="crispEdges"/>
</g>
</g>
</g>
</g>
</g>
<g filter="url(#filter13_dd_0_1816)">
<g filter="url(#filter14_i_0_1816)">
<path d="M195.894 50.5101C197.791 46.7927 203.103 46.7927 205 50.5101L206.684 53.8102C207.426 55.2657 208.82 56.2783 210.434 56.5349L214.093 57.1166C218.214 57.772 219.856 62.8237 216.907 65.7766L214.288 68.3979C213.134 69.554 212.601 71.1925 212.856 72.8065L213.433 76.4661C214.084 80.5886 209.786 83.7107 206.067 81.8182L202.765 80.1382C201.308 79.3973 199.585 79.3973 198.129 80.1382L194.827 81.8182C191.107 83.7107 186.81 80.5886 187.461 76.4661L188.038 72.8065C188.293 71.1925 187.76 69.554 186.605 68.3979L183.987 65.7766C181.038 62.8237 182.679 57.772 186.801 57.1166L190.46 56.5349C192.074 56.2783 193.467 55.2657 194.21 53.8102L195.894 50.5101Z" fill="#43628F"/>
</g>
<path d="M195.894 50.5101C197.791 46.7927 203.103 46.7927 205 50.5101L206.684 53.8102C207.426 55.2657 208.82 56.2783 210.434 56.5349L214.093 57.1166C218.214 57.772 219.856 62.8237 216.907 65.7766L214.288 68.3979C213.134 69.554 212.601 71.1925 212.856 72.8065L213.433 76.4661C214.084 80.5886 209.786 83.7107 206.067 81.8182L202.765 80.1382C201.308 79.3973 199.585 79.3973 198.129 80.1382L194.827 81.8182C191.107 83.7107 186.81 80.5886 187.461 76.4661L188.038 72.8065C188.293 71.1925 187.76 69.554 186.605 68.3979L183.987 65.7766C181.038 62.8237 182.679 57.772 186.801 57.1166L190.46 56.5349C192.074 56.2783 193.467 55.2657 194.21 53.8102L195.894 50.5101Z" fill="url(#paint40_linear_0_1816)"/>
<path d="M198.671 45.0697C199.411 43.62 201.483 43.62 202.222 45.0697L207.405 55.2256C207.694 55.7932 208.238 56.1881 208.867 56.2882L220.127 58.0785C221.735 58.3341 222.375 60.3041 221.225 61.4556L213.167 69.5227C212.717 69.9735 212.509 70.6125 212.609 71.2419L214.386 82.5043C214.639 84.1119 212.963 85.3295 211.513 84.5915L201.351 79.4213C200.783 79.1323 200.111 79.1323 199.543 79.4213L189.381 84.5915C187.93 85.3295 186.255 84.1119 186.508 82.5043L188.285 71.2419C188.384 70.6125 188.177 69.9735 187.726 69.5227L179.669 61.4556C178.519 60.3041 179.159 58.334 180.766 58.0785L192.027 56.2882C192.656 56.1881 193.199 55.7932 193.489 55.2256L198.671 45.0697Z" fill="url(#paint41_linear_0_1816)"/>
<path d="M198.671 45.0697C199.411 43.62 201.483 43.62 202.222 45.0697L207.405 55.2256C207.694 55.7932 208.238 56.1881 208.867 56.2882L220.127 58.0785C221.735 58.3341 222.375 60.3041 221.225 61.4556L213.167 69.5227C212.717 69.9735 212.509 70.6125 212.609 71.2419L214.386 82.5043C214.639 84.1119 212.963 85.3295 211.513 84.5915L201.351 79.4213C200.783 79.1323 200.111 79.1323 199.543 79.4213L189.381 84.5915C187.93 85.3295 186.255 84.1119 186.508 82.5043L188.285 71.2419C188.384 70.6125 188.177 69.9735 187.726 69.5227L179.669 61.4556C178.519 60.3041 179.159 58.334 180.766 58.0785L192.027 56.2882C192.656 56.1881 193.199 55.7932 193.489 55.2256L198.671 45.0697Z" fill="url(#paint42_radial_0_1816)"/>
<path fill-rule="evenodd" clip-rule="evenodd" d="M206.813 55.5276L201.631 45.3717C201.137 44.4052 199.756 44.4052 199.263 45.3717L194.081 55.5276C193.695 56.2844 192.97 56.8109 192.131 56.9443L180.871 58.7347C179.799 58.905 179.372 60.2184 180.139 60.9861L188.197 69.0531C188.797 69.6542 189.074 70.5062 188.941 71.3455L187.164 82.6078C186.995 83.6796 188.113 84.4913 189.08 83.9993L199.242 78.8291C199.999 78.4438 200.895 78.4438 201.652 78.8291L211.814 83.9993C212.781 84.4913 213.898 83.6796 213.729 82.6078L211.952 71.3455C211.82 70.5062 212.097 69.6542 212.697 69.0531L220.755 60.9861C221.521 60.2184 221.095 58.905 220.023 58.7347L208.763 56.9443C207.924 56.8109 207.199 56.2844 206.813 55.5276ZM202.222 45.0697C201.483 43.62 199.411 43.62 198.671 45.0697L193.489 55.2256C193.199 55.7932 192.656 56.1881 192.027 56.2882L180.766 58.0785C179.159 58.334 178.519 60.3041 179.669 61.4556L187.726 69.5227C188.177 69.9735 188.384 70.6125 188.285 71.2419L186.508 82.5043C186.255 84.1119 187.93 85.3295 189.381 84.5915L199.543 79.4213C200.111 79.1323 200.783 79.1323 201.351 79.4213L211.513 84.5915C212.963 85.3295 214.639 84.1119 214.386 82.5043L212.609 71.2419C212.509 70.6125 212.717 69.9735 213.167 69.5227L221.225 61.4556C222.375 60.3041 221.735 58.3341 220.127 58.0785L208.867 56.2882C208.238 56.1881 207.694 55.7932 207.405 55.2256L202.222 45.0697Z" fill="url(#paint43_linear_0_1816)"/>
<path d="M198.232 57.3721C199.216 55.6711 201.672 55.6711 202.656 57.3721L203.995 59.6865C204.357 60.312 204.967 60.755 205.674 60.9059L208.289 61.4642C210.211 61.8746 210.97 64.2102 209.656 65.6718L207.869 67.6605C207.386 68.198 207.153 68.9148 207.228 69.6336L207.505 72.293C207.708 74.2476 205.721 75.6911 203.925 74.8934L201.482 73.8082C200.821 73.5148 200.068 73.5148 199.407 73.8082L196.963 74.8934C195.167 75.6911 193.181 74.2476 193.384 72.293L193.661 69.6336C193.736 68.9148 193.503 68.198 193.02 67.6605L191.233 65.6718C189.919 64.2102 190.678 61.8746 192.6 61.4642L195.215 60.9059C195.922 60.755 196.531 60.312 196.893 59.6865L198.232 57.3721Z" fill="url(#paint44_linear_0_1816)"/>
<path d="M213.098 62.8452C201.074 74.208 190.335 69.1821 186.469 65.2489C180.587 56.5084 193.494 63.5008 204.93 60.4416C214.079 57.9942 214.188 61.0243 213.098 62.8452Z" fill="url(#paint45_linear_0_1816)"/>
<path fill-rule="evenodd" clip-rule="evenodd" d="M199.086 47.3265C199.332 47.4507 199.43 47.7505 199.306 47.9961L197.897 50.7808C197.773 51.0263 197.473 51.1247 197.227 51.0004C196.982 50.8762 196.883 50.5764 197.008 50.3308L198.416 47.5461C198.541 47.3006 198.841 47.2022 199.086 47.3265Z" fill="#93D6F6"/>
<circle cx="181.844" cy="59.3596" r="0.498315" fill="#93D6F6"/>
<circle cx="196.789" cy="51.7229" r="0.498315" fill="#93D6F6"/>
<path d="M195.685 56.8708C191.905 62.2249 193.256 65.14 194.403 65.9283C197.89 67.5019 204.242 58.2173 204.672 55.7604C205.102 53.3034 200.409 50.1781 195.685 56.8708Z" fill="url(#paint46_linear_0_1816)" fill-opacity="0.6"/>
</g>
<g filter="url(#filter15_dd_0_1816)">
<g filter="url(#filter16_i_0_1816)">
<path d="M277.656 76.5105C281.499 74.8821 285.568 78.2964 284.632 82.3635L283.801 85.9738C283.434 87.5662 283.851 89.2378 284.922 90.4717L287.351 93.2692C290.087 96.4206 288.097 101.346 283.94 101.712L280.249 102.037C278.622 102.18 277.161 103.093 276.318 104.493L274.408 107.668C272.257 111.244 266.958 110.873 265.325 107.033L263.875 103.623C263.236 102.12 261.916 101.012 260.324 100.644L256.715 99.808C252.649 98.8668 251.364 93.7128 254.512 90.9729L257.306 88.5406C258.539 87.4679 259.184 85.8705 259.043 84.2426L258.722 80.5517C258.361 76.3939 262.866 73.5791 266.444 75.7264L269.621 77.6327C271.022 78.4734 272.741 78.5936 274.245 77.9561L277.656 76.5105Z" fill="#43628F"/>
</g>
<path d="M277.656 76.5105C281.499 74.8821 285.568 78.2964 284.632 82.3635L283.801 85.9738C283.434 87.5662 283.851 89.2378 284.922 90.4717L287.351 93.2692C290.087 96.4206 288.097 101.346 283.94 101.712L280.249 102.037C278.622 102.18 277.161 103.093 276.318 104.493L274.408 107.668C272.257 111.244 266.958 110.873 265.325 107.033L263.875 103.623C263.236 102.12 261.916 101.012 260.324 100.644L256.715 99.808C252.649 98.8668 251.364 93.7128 254.512 90.9729L257.306 88.5406C258.539 87.4679 259.184 85.8705 259.043 84.2426L258.722 80.5517C258.361 76.3939 262.866 73.5791 266.444 75.7264L269.621 77.6327C271.022 78.4734 272.741 78.5936 274.245 77.9561L277.656 76.5105Z" fill="url(#paint47_linear_0_1816)"/>
<path d="M283.286 74.1246C284.785 73.4896 286.372 74.8211 286.007 76.4071L283.448 87.5181C283.305 88.1391 283.468 88.791 283.886 89.2722L291.361 97.8816C292.428 99.1105 291.652 101.031 290.031 101.174L278.673 102.174C278.038 102.23 277.468 102.586 277.14 103.132L271.262 112.902C270.423 114.297 268.356 114.152 267.719 112.654L263.258 102.162C263.009 101.575 262.494 101.143 261.873 101L250.765 98.4283C249.18 98.0612 248.679 96.0513 249.906 94.9828L258.507 87.4975C258.988 87.0791 259.239 86.4562 259.184 85.8214L258.197 74.4625C258.056 72.841 259.813 71.7434 261.208 72.5808L270.985 78.4473C271.531 78.7751 272.202 78.822 272.788 78.5734L283.286 74.1246Z" fill="url(#paint48_linear_0_1816)"/>
<path d="M283.286 74.1246C284.785 73.4896 286.372 74.8211 286.007 76.4071L283.448 87.5181C283.305 88.1391 283.468 88.791 283.886 89.2722L291.361 97.8816C292.428 99.1105 291.652 101.031 290.031 101.174L278.673 102.174C278.038 102.23 277.468 102.586 277.14 103.132L271.262 112.902C270.423 114.297 268.356 114.152 267.719 112.654L263.258 102.162C263.009 101.575 262.494 101.143 261.873 101L250.765 98.4283C249.18 98.0612 248.679 96.0513 249.906 94.9828L258.507 87.4975C258.988 87.0791 259.239 86.4562 259.184 85.8214L258.197 74.4625C258.056 72.841 259.813 71.7434 261.208 72.5808L270.985 78.4473C271.531 78.7751 272.202 78.822 272.788 78.5734L283.286 74.1246Z" fill="url(#paint49_radial_0_1816)"/>
<path fill-rule="evenodd" clip-rule="evenodd" d="M282.801 87.369L285.359 76.258C285.603 75.2007 284.545 74.313 283.546 74.7364L273.048 79.1851C272.265 79.5166 271.372 79.4541 270.643 79.017L260.867 73.1505C259.936 72.5922 258.765 73.324 258.859 74.405L259.846 85.7639C259.92 86.6103 259.584 87.4409 258.943 87.9987L250.343 95.484C249.524 96.1963 249.858 97.5362 250.915 97.781L262.023 100.352C262.851 100.544 263.537 101.12 263.87 101.902L268.331 112.394C268.755 113.393 270.133 113.489 270.692 112.56L276.57 102.79C277.008 102.062 277.768 101.587 278.615 101.513L289.972 100.512C291.053 100.417 291.57 99.1365 290.859 98.3172L283.384 89.7078C282.827 89.0662 282.61 88.197 282.801 87.369ZM286.007 76.4071C286.372 74.8211 284.785 73.4896 283.286 74.1246L272.788 78.5734C272.202 78.822 271.531 78.7751 270.985 78.4473L261.208 72.5808C259.813 71.7434 258.056 72.841 258.197 74.4625L259.184 85.8214C259.239 86.4562 258.988 87.0791 258.507 87.4975L249.906 94.9828C248.679 96.0513 249.18 98.0612 250.765 98.4283L261.873 101C262.494 101.143 263.009 101.575 263.258 102.162L267.719 112.654C268.356 114.152 270.423 114.297 271.262 112.902L277.14 103.132C277.468 102.586 278.038 102.23 278.673 102.174L290.031 101.174C291.652 101.031 292.428 99.1105 291.361 97.8816L283.886 89.2722C283.468 88.791 283.305 88.1391 283.448 87.5181L286.007 76.4071Z" fill="url(#paint50_linear_0_1816)"/>
<path d="M275.038 83.2732C276.886 82.6027 278.767 84.1812 278.427 86.1169L277.965 88.7505C277.841 89.4623 278.023 90.1937 278.467 90.7635L280.112 92.872C281.32 94.4218 280.4 96.6987 278.454 96.974L275.807 97.3486C275.091 97.4498 274.452 97.8492 274.047 98.448L272.55 100.663C271.45 102.292 269 102.12 268.137 100.355L266.963 97.9526C266.645 97.3033 266.068 96.8188 265.373 96.619L262.804 95.8796C260.915 95.3362 260.321 92.9534 261.733 91.5869L263.655 89.7278C264.174 89.2253 264.457 88.5264 264.432 87.8042L264.341 85.132C264.275 83.1678 266.357 81.8665 268.093 82.7875L270.455 84.0406C271.094 84.3793 271.846 84.4319 272.525 84.1853L275.038 83.2732Z" fill="url(#paint51_linear_0_1816)"/>
<path d="M282.91 97.0217C266.395 97.997 261.399 87.244 260.965 81.7456C262.078 71.2695 267.47 84.9221 278.197 89.9297C286.779 93.9357 284.915 96.3269 282.91 97.0217Z" fill="url(#paint52_linear_0_1816)"/>
<path fill-rule="evenodd" clip-rule="evenodd" d="M282.145 76.1269C282.253 76.3799 282.136 76.6728 281.883 76.781L279.014 78.0086C278.761 78.1168 278.468 77.9995 278.359 77.7464C278.251 77.4934 278.369 77.2005 278.622 77.0923L281.491 75.8647C281.744 75.7565 282.037 75.8738 282.145 76.1269Z" fill="#93D6F6"/>
<circle cx="261.206" cy="74.2587" r="0.498315" transform="rotate(40 261.206 74.2587)" fill="#93D6F6"/>
<circle cx="277.567" cy="78.0126" r="0.498315" transform="rotate(40 277.567 78.0126)" fill="#93D6F6"/>
<path d="M273.415 81.2468C267.078 82.9187 266.239 86.02 266.612 87.3618C268.271 90.8081 279.105 87.7789 281.013 86.1731C282.922 84.5672 281.337 79.157 273.415 81.2468Z" fill="url(#paint53_linear_0_1816)" fill-opacity="0.6"/>
</g>
<g filter="url(#filter17_dd_0_1816)">
<g filter="url(#filter18_i_0_1816)">
<path d="M115.523 82.4248C114.587 78.3578 118.656 74.9434 122.498 76.5719L125.91 78.0174C127.414 78.655 129.133 78.5348 130.534 77.6941L133.711 75.7878C137.289 73.6404 141.794 76.4552 141.433 80.6131L141.112 84.304C140.971 85.9319 141.616 87.5293 142.849 88.602L145.643 91.0342C148.791 93.7742 147.506 98.9281 143.44 99.8694L139.831 100.705C138.239 101.073 136.919 102.181 136.28 103.685L134.83 107.094C133.197 110.935 127.898 111.305 125.747 107.729L123.837 104.555C122.994 103.155 121.533 102.242 119.906 102.098L116.215 101.773C112.058 101.407 110.068 96.482 112.804 93.3306L115.233 90.5331C116.304 89.2992 116.721 87.6276 116.354 86.0352L115.523 82.4248Z" fill="#43628F"/>
</g>
<path d="M115.523 82.4248C114.587 78.3578 118.656 74.9434 122.498 76.5719L125.91 78.0174C127.414 78.655 129.133 78.5348 130.534 77.6941L133.711 75.7878C137.289 73.6404 141.794 76.4552 141.433 80.6131L141.112 84.304C140.971 85.9319 141.616 87.5293 142.849 88.602L145.643 91.0342C148.791 93.7742 147.506 98.9281 143.44 99.8694L139.831 100.705C138.239 101.073 136.919 102.181 136.28 103.685L134.83 107.094C133.197 110.935 127.898 111.305 125.747 107.729L123.837 104.555C122.994 103.155 121.533 102.242 119.906 102.098L116.215 101.773C112.058 101.407 110.068 96.482 112.804 93.3306L115.233 90.5331C116.304 89.2992 116.721 87.6276 116.354 86.0352L115.523 82.4248Z" fill="url(#paint54_linear_0_1816)"/>
<path d="M114.155 76.467C113.79 74.8809 115.377 73.5494 116.875 74.1845L127.373 78.6332C127.96 78.8819 128.63 78.835 129.176 78.5071L138.953 72.6406C140.349 71.8032 142.105 72.9009 141.964 74.5223L140.977 85.8813C140.922 86.5161 141.174 87.139 141.655 87.5573L150.255 95.0427C151.483 96.1111 150.982 98.1211 149.396 98.4881L138.288 101.06C137.667 101.203 137.153 101.635 136.903 102.222L132.442 112.714C131.805 114.212 129.739 114.356 128.9 112.962L123.022 103.192C122.693 102.646 122.123 102.29 121.489 102.234L110.131 101.234C108.51 101.091 107.734 99.1704 108.801 97.9414L116.276 89.332C116.694 88.8508 116.856 88.199 116.713 87.578L114.155 76.467Z" fill="url(#paint55_linear_0_1816)"/>
<path d="M114.155 76.467C113.79 74.8809 115.377 73.5494 116.875 74.1845L127.373 78.6332C127.96 78.8819 128.63 78.835 129.176 78.5071L138.953 72.6406C140.349 71.8032 142.105 72.9009 141.964 74.5223L140.977 85.8813C140.922 86.5161 141.174 87.139 141.655 87.5573L150.255 95.0427C151.483 96.1111 150.982 98.1211 149.396 98.4881L138.288 101.06C137.667 101.203 137.153 101.635 136.903 102.222L132.442 112.714C131.805 114.212 129.739 114.356 128.9 112.962L123.022 103.192C122.693 102.646 122.123 102.29 121.489 102.234L110.131 101.234C108.51 101.091 107.734 99.1704 108.801 97.9414L116.276 89.332C116.694 88.8508 116.856 88.199 116.713 87.578L114.155 76.467Z" fill="url(#paint56_radial_0_1816)"/>
<path fill-rule="evenodd" clip-rule="evenodd" d="M127.114 79.245L116.616 74.7962C115.617 74.3729 114.559 75.2605 114.802 76.3179L117.361 87.4289C117.551 88.2569 117.334 89.1261 116.777 89.7676L109.302 98.377C108.591 99.1963 109.108 100.477 110.189 100.572L121.547 101.572C122.393 101.647 123.153 102.122 123.591 102.85L129.469 112.619C130.028 113.549 131.406 113.453 131.831 112.454L136.292 101.962C136.624 101.18 137.311 100.604 138.138 100.412L149.246 97.8408C150.303 97.5961 150.637 96.2562 149.819 95.5438L141.218 88.0585C140.578 87.5007 140.242 86.6702 140.315 85.8237L141.302 74.4648C141.396 73.3839 140.225 72.6521 139.295 73.2104L129.518 79.0769C128.79 79.514 127.896 79.5765 127.114 79.245ZM116.875 74.1845C115.377 73.5494 113.79 74.8809 114.155 76.467L116.713 87.578C116.856 88.199 116.694 88.8508 116.276 89.332L108.801 97.9414C107.734 99.1704 108.51 101.091 110.131 101.234L121.489 102.234C122.123 102.29 122.693 102.646 123.022 103.192L128.9 112.962C129.739 114.356 131.805 114.212 132.442 112.714L136.903 102.222C137.153 101.635 137.667 101.203 138.288 101.06L149.396 98.4881C150.982 98.1211 151.483 96.1111 150.255 95.0427L141.655 87.5573C141.174 87.139 140.922 86.5161 140.977 85.8813L141.964 74.5223C142.105 72.9009 140.349 71.8032 138.953 72.6406L129.176 78.5071C128.63 78.835 127.96 78.8819 127.373 78.6332L116.875 74.1845Z" fill="url(#paint57_linear_0_1816)"/>
<path d="M121.729 86.1704C121.389 84.2347 123.271 82.6562 125.118 83.3266L127.631 84.2388C128.311 84.4853 129.062 84.4328 129.701 84.0941L132.063 82.841C133.799 81.92 135.881 83.2213 135.815 85.1854L135.724 87.8577C135.699 88.5799 135.982 89.2788 136.501 89.7812L138.423 91.6404C139.835 93.0069 139.241 95.3897 137.352 95.9331L134.783 96.6725C134.088 96.8723 133.511 97.3568 133.194 98.006L132.019 100.408C131.156 102.174 128.706 102.345 127.606 100.717L126.109 98.5015C125.704 97.9027 125.065 97.5033 124.349 97.4021L121.702 97.0275C119.756 96.7522 118.836 94.4752 120.045 92.9255L121.689 90.817C122.133 90.2472 122.315 89.5158 122.191 88.804L121.729 86.1704Z" fill="url(#paint58_linear_0_1816)"/>
<path d="M136.633 80.8146C134.725 97.248 123.268 100.301 117.778 99.7732C107.654 96.8581 122.036 93.9185 128.83 84.224C134.265 76.4684 136.297 78.7195 136.633 80.8146Z" fill="url(#paint59_linear_0_1816)"/>
<path fill-rule="evenodd" clip-rule="evenodd" d="M115.92 77.9375C116.188 77.8748 116.456 78.0413 116.518 78.3093L117.229 81.3481C117.292 81.6161 117.125 81.8841 116.857 81.9468C116.589 82.0095 116.321 81.843 116.259 81.575L115.548 78.5362C115.485 78.2682 115.652 78.0002 115.92 77.9375Z" fill="#93D6F6"/>
<circle cx="110.446" cy="98.2353" r="0.498315" transform="rotate(-40 110.446 98.2353)" fill="#93D6F6"/>
<circle cx="116.991" cy="82.7743" r="0.498315" transform="rotate(-40 116.991 82.7743)" fill="#93D6F6"/>
<path d="M119.449 87.4235C119.995 93.9547 122.904 95.3195 124.29 95.1855C127.972 94.15 126.87 82.9544 125.62 80.796C124.37 78.6375 118.767 79.2595 119.449 87.4235Z" fill="url(#paint60_linear_0_1816)" fill-opacity="0.6"/>
</g>
<defs>
<filter id="filter0_f_0_1816" x="189.312" y="86.1111" width="21.6957" height="21.6957" filterUnits="userSpaceOnUse" color-interpolation-filters="sRGB">
<feFlood flood-opacity="0" result="BackgroundImageFix"/>
<feBlend mode="normal" in="SourceGraphic" in2="BackgroundImageFix" result="shape"/>
<feGaussianBlur stdDeviation="1.96884" result="effect1_foregroundBlur_0_1816"/>
</filter>
<filter id="filter1_f_0_1816" x="188.231" y="84.2621" width="23.8607" height="25.3968" filterUnits="userSpaceOnUse" color-interpolation-filters="sRGB">
<feFlood flood-opacity="0" result="BackgroundImageFix"/>
<feBlend mode="normal" in="SourceGraphic" in2="BackgroundImageFix" result="shape"/>
<feGaussianBlur stdDeviation="0.590653" result="effect1_foregroundBlur_0_1816"/>
</filter>
<filter id="filter2_dd_0_1816" x="0.111938" y="34.7775" width="399.891" height="359.636" filterUnits="userSpaceOnUse" color-interpolation-filters="sRGB">
<feFlood flood-opacity="0" result="BackgroundImageFix"/>
<feColorMatrix in="SourceAlpha" type="matrix" values="0 0 0 0 0 0 0 0 0 0 0 0 0 0 0 0 0 0 127 0" result="hardAlpha"/>
<feOffset/>
<feGaussianBlur stdDeviation="14.3359"/>
<feColorMatrix type="matrix" values="0 0 0 0 0.558594 0 0 0 0 0.710156 0 0 0 0 0.9375 0 0 0 1 0"/>
<feBlend mode="normal" in2="BackgroundImageFix" result="effect1_dropShadow_0_1816"/>
<feColorMatrix in="SourceAlpha" type="matrix" values="0 0 0 0 0 0 0 0 0 0 0 0 0 0 0 0 0 0 127 0" result="hardAlpha"/>
<feOffset dy="5.73437"/>
<feGaussianBlur stdDeviation="43.0078"/>
<feColorMatrix type="matrix" values="0 0 0 0 0.670833 0 0 0 0 0.8025 0 0 0 0 1 0 0 0 0.6 0"/>
<feBlend mode="normal" in2="effect1_dropShadow_0_1816" result="effect2_dropShadow_0_1816"/>
<feBlend mode="normal" in="SourceGraphic" in2="effect2_dropShadow_0_1816" result="shape"/>
</filter>
<filter id="filter3_d_0_1816" x="157.416" y="216.011" width="40.9021" height="80.78" filterUnits="userSpaceOnUse" color-interpolation-filters="sRGB">
<feFlood flood-opacity="0" result="BackgroundImageFix"/>
<feColorMatrix in="SourceAlpha" type="matrix" values="0 0 0 0 0 0 0 0 0 0 0 0 0 0 0 0 0 0 127 0" result="hardAlpha"/>
<feOffset/>
<feGaussianBlur stdDeviation="5.62225"/>
<feColorMatrix type="matrix" values="0 0 0 0 0.288889 0 0 0 0 0.357333 0 0 0 0 0.533333 0 0 0 0.74 0"/>
<feBlend mode="normal" in2="BackgroundImageFix" result="effect1_dropShadow_0_1816"/>
<feBlend mode="normal" in="SourceGraphic" in2="effect1_dropShadow_0_1816" result="shape"/>
</filter>
<filter id="filter4_d_0_1816" x="134.945" y="216.011" width="43.635" height="71.9158" filterUnits="userSpaceOnUse" color-interpolation-filters="sRGB">
<feFlood flood-opacity="0" result="BackgroundImageFix"/>
<feColorMatrix in="SourceAlpha" type="matrix" values="0 0 0 0 0 0 0 0 0 0 0 0 0 0 0 0 0 0 127 0" result="hardAlpha"/>
<feOffset/>
<feGaussianBlur stdDeviation="5.62225"/>
<feColorMatrix type="matrix" values="0 0 0 0 0.288889 0 0 0 0 0.357333 0 0 0 0 0.533333 0 0 0 0.74 0"/>
<feBlend mode="normal" in2="BackgroundImageFix" result="effect1_dropShadow_0_1816"/>
<feBlend mode="normal" in="SourceGraphic" in2="effect1_dropShadow_0_1816" result="shape"/>
</filter>
<filter id="filter5_d_0_1816" x="202.363" y="216.011" width="40.9021" height="80.78" filterUnits="userSpaceOnUse" color-interpolation-filters="sRGB">
<feFlood flood-opacity="0" result="BackgroundImageFix"/>
<feColorMatrix in="SourceAlpha" type="matrix" values="0 0 0 0 0 0 0 0 0 0 0 0 0 0 0 0 0 0 127 0" result="hardAlpha"/>
<feOffset/>
<feGaussianBlur stdDeviation="5.62225"/>
<feColorMatrix type="matrix" values="0 0 0 0 0.288889 0 0 0 0 0.357333 0 0 0 0 0.533333 0 0 0 0.74 0"/>
<feBlend mode="normal" in2="BackgroundImageFix" result="effect1_dropShadow_0_1816"/>
<feBlend mode="normal" in="SourceGraphic" in2="effect1_dropShadow_0_1816" result="shape"/>
</filter>
<filter id="filter6_d_0_1816" x="222.102" y="216.011" width="43.635" height="71.9158" filterUnits="userSpaceOnUse" color-interpolation-filters="sRGB">
<feFlood flood-opacity="0" result="BackgroundImageFix"/>
<feColorMatrix in="SourceAlpha" type="matrix" values="0 0 0 0 0 0 0 0 0 0 0 0 0 0 0 0 0 0 127 0" result="hardAlpha"/>
<feOffset/>
<feGaussianBlur stdDeviation="5.62225"/>
<feColorMatrix type="matrix" values="0 0 0 0 0.288889 0 0 0 0 0.357333 0 0 0 0 0.533333 0 0 0 0.74 0"/>
<feBlend mode="normal" in2="BackgroundImageFix" result="effect1_dropShadow_0_1816"/>
<feBlend mode="normal" in="SourceGraphic" in2="effect1_dropShadow_0_1816" result="shape"/>
</filter>
<filter id="filter7_d_0_1816" x="168.774" y="201.055" width="63.1213" height="112.853" filterUnits="userSpaceOnUse" color-interpolation-filters="sRGB">
<feFlood flood-opacity="0" result="BackgroundImageFix"/>
<feColorMatrix in="SourceAlpha" type="matrix" values="0 0 0 0 0 0 0 0 0 0 0 0 0 0 0 0 0 0 127 0" result="hardAlpha"/>
<feOffset/>
<feGaussianBlur stdDeviation="5.62225"/>
<feColorMatrix type="matrix" values="0 0 0 0 0.288889 0 0 0 0 0.357333 0 0 0 0 0.533333 0 0 0 0.8 0"/>
<feBlend mode="normal" in2="BackgroundImageFix" result="effect1_dropShadow_0_1816"/>
<feBlend mode="normal" in="SourceGraphic" in2="effect1_dropShadow_0_1816" result="shape"/>
</filter>
<filter id="filter8_d_0_1816" x="123.11" y="115.059" width="153.899" height="172.299" filterUnits="userSpaceOnUse" color-interpolation-filters="sRGB">
<feFlood flood-opacity="0" result="BackgroundImageFix"/>
<feColorMatrix in="SourceAlpha" type="matrix" values="0 0 0 0 0 0 0 0 0 0 0 0 0 0 0 0 0 0 127 0" result="hardAlpha"/>
<feOffset dy="11.2445"/>
<feGaussianBlur stdDeviation="4.21669"/>
<feColorMatrix type="matrix" values="0 0 0 0 0.141181 0 0 0 0 0.190317 0 0 0 0 0.316667 0 0 0 0.51 0"/>
<feBlend mode="normal" in2="BackgroundImageFix" result="effect1_dropShadow_0_1816"/>
<feBlend mode="normal" in="SourceGraphic" in2="effect1_dropShadow_0_1816" result="shape"/>
</filter>
<filter id="filter9_f_0_1816" x="140.833" y="125.981" width="118.288" height="130.501" filterUnits="userSpaceOnUse" color-interpolation-filters="sRGB">
<feFlood flood-opacity="0" result="BackgroundImageFix"/>
<feBlend mode="normal" in="SourceGraphic" in2="BackgroundImageFix" result="shape"/>
<feGaussianBlur stdDeviation="0.210835" result="effect1_foregroundBlur_0_1816"/>
</filter>
<filter id="filter10_i_0_1816" x="146.889" y="132.423" width="106.886" height="117.835" filterUnits="userSpaceOnUse" color-interpolation-filters="sRGB">
<feFlood flood-opacity="0" result="BackgroundImageFix"/>
<feBlend mode="normal" in="SourceGraphic" in2="BackgroundImageFix" result="shape"/>
<feColorMatrix in="SourceAlpha" type="matrix" values="0 0 0 0 0 0 0 0 0 0 0 0 0 0 0 0 0 0 127 0" result="hardAlpha"/>
<feOffset/>
<feGaussianBlur stdDeviation="9.4512"/>
<feComposite in2="hardAlpha" operator="arithmetic" k2="-1" k3="1"/>
<feColorMatrix type="matrix" values="0 0 0 0 0.297222 0 0 0 0 0.329917 0 0 0 0 0.445833 0 0 0 1 0"/>
<feBlend mode="normal" in2="shape" result="effect1_innerShadow_0_1816"/>
</filter>
<filter id="filter11_d_0_1816" x="164.507" y="168.361" width="70.8972" height="30.3156" filterUnits="userSpaceOnUse" color-interpolation-filters="sRGB">
<feFlood flood-opacity="0" result="BackgroundImageFix"/>
<feColorMatrix in="SourceAlpha" type="matrix" values="0 0 0 0 0 0 0 0 0 0 0 0 0 0 0 0 0 0 127 0" result="hardAlpha"/>
<feOffset dy="1.40556"/>
<feGaussianBlur stdDeviation="1.40556"/>
<feComposite in2="hardAlpha" operator="out"/>
<feColorMatrix type="matrix" values="0 0 0 0 0.0901961 0 0 0 0 0.207843 0 0 0 0 0.305882 0 0 0 0.25 0"/>
<feBlend mode="normal" in2="BackgroundImageFix" result="effect1_dropShadow_0_1816"/>
<feBlend mode="normal" in="SourceGraphic" in2="effect1_dropShadow_0_1816" result="shape"/>
</filter>
<filter id="filter12_d_0_1816" x="166.083" y="205.539" width="69.5641" height="17.7668" filterUnits="userSpaceOnUse" color-interpolation-filters="sRGB">
<feFlood flood-opacity="0" result="BackgroundImageFix"/>
<feColorMatrix in="SourceAlpha" type="matrix" values="0 0 0 0 0 0 0 0 0 0 0 0 0 0 0 0 0 0 127 0" result="hardAlpha"/>
<feOffset dy="1.40556"/>
<feGaussianBlur stdDeviation="1.40556"/>
<feComposite in2="hardAlpha" operator="out"/>
<feColorMatrix type="matrix" values="0 0 0 0 0.0901961 0 0 0 0 0.207843 0 0 0 0 0.305882 0 0 0 0.25 0"/>
<feBlend mode="normal" in2="BackgroundImageFix" result="effect1_dropShadow_0_1816"/>
<feBlend mode="normal" in="SourceGraphic" in2="effect1_dropShadow_0_1816" result="shape"/>
</filter>
<filter id="filter13_dd_0_1816" x="136.057" y="0.955215" width="128.78" height="126.884" filterUnits="userSpaceOnUse" color-interpolation-filters="sRGB">
<feFlood flood-opacity="0" result="BackgroundImageFix"/>
<feColorMatrix in="SourceAlpha" type="matrix" values="0 0 0 0 0 0 0 0 0 0 0 0 0 0 0 0 0 0 127 0" result="hardAlpha"/>
<feOffset/>
<feGaussianBlur stdDeviation="21.5136"/>
<feColorMatrix type="matrix" values="0 0 0 0 0.558594 0 0 0 0 0.710156 0 0 0 0 0.9375 0 0 0 1 0"/>
<feBlend mode="normal" in2="BackgroundImageFix" result="effect1_dropShadow_0_1816"/>
<feColorMatrix in="SourceAlpha" type="matrix" values="0 0 0 0 0 0 0 0 0 0 0 0 0 0 0 0 0 0 127 0" result="hardAlpha"/>
<feOffset/>
<feGaussianBlur stdDeviation="5.3784"/>
<feColorMatrix type="matrix" values="0 0 0 0 0.670833 0 0 0 0 0.8025 0 0 0 0 1 0 0 0 0.6 0"/>
<feBlend mode="normal" in2="effect1_dropShadow_0_1816" result="effect2_dropShadow_0_1816"/>
<feBlend mode="normal" in="SourceGraphic" in2="effect2_dropShadow_0_1816" result="shape"/>
</filter>
<filter id="filter14_i_0_1816" x="182.487" y="39.2029" width="35.9194" height="43.1819" filterUnits="userSpaceOnUse" color-interpolation-filters="sRGB">
<feFlood flood-opacity="0" result="BackgroundImageFix"/>
<feBlend mode="normal" in="SourceGraphic" in2="BackgroundImageFix" result="shape"/>
<feColorMatrix in="SourceAlpha" type="matrix" values="0 0 0 0 0 0 0 0 0 0 0 0 0 0 0 0 0 0 127 0" result="hardAlpha"/>
<feOffset dy="-8.51881"/>
<feGaussianBlur stdDeviation="10.6485"/>
<feComposite in2="hardAlpha" operator="arithmetic" k2="-1" k3="1"/>
<feColorMatrix type="matrix" values="0 0 0 0 0.595833 0 0 0 0 0.83025 0 0 0 0 1 0 0 0 1 0"/>
<feBlend mode="normal" in2="shape" result="effect1_innerShadow_0_1816"/>
</filter>
<filter id="filter15_dd_0_1816" x="206.193" y="29.2658" width="128.686" height="127.63" filterUnits="userSpaceOnUse" color-interpolation-filters="sRGB">
<feFlood flood-opacity="0" result="BackgroundImageFix"/>
<feColorMatrix in="SourceAlpha" type="matrix" values="0 0 0 0 0 0 0 0 0 0 0 0 0 0 0 0 0 0 127 0" result="hardAlpha"/>
<feOffset/>
<feGaussianBlur stdDeviation="21.5136"/>
<feColorMatrix type="matrix" values="0 0 0 0 0.558594 0 0 0 0 0.710156 0 0 0 0 0.9375 0 0 0 1 0"/>
<feBlend mode="normal" in2="BackgroundImageFix" result="effect1_dropShadow_0_1816"/>
<feColorMatrix in="SourceAlpha" type="matrix" values="0 0 0 0 0 0 0 0 0 0 0 0 0 0 0 0 0 0 127 0" result="hardAlpha"/>
<feOffset/>
<feGaussianBlur stdDeviation="5.3784"/>
<feColorMatrix type="matrix" values="0 0 0 0 0.670833 0 0 0 0 0.8025 0 0 0 0 1 0 0 0 0.6 0"/>
<feBlend mode="normal" in2="effect1_dropShadow_0_1816" result="effect2_dropShadow_0_1816"/>
<feBlend mode="normal" in="SourceGraphic" in2="effect2_dropShadow_0_1816" result="shape"/>
</filter>
<filter id="filter16_i_0_1816" x="252.752" y="66.4685" width="35.8574" height="43.676" filterUnits="userSpaceOnUse" color-interpolation-filters="sRGB">
<feFlood flood-opacity="0" result="BackgroundImageFix"/>
<feBlend mode="normal" in="SourceGraphic" in2="BackgroundImageFix" result="shape"/>
<feColorMatrix in="SourceAlpha" type="matrix" values="0 0 0 0 0 0 0 0 0 0 0 0 0 0 0 0 0 0 127 0" result="hardAlpha"/>
<feOffset dy="-8.51881"/>
<feGaussianBlur stdDeviation="10.6485"/>
<feComposite in2="hardAlpha" operator="arithmetic" k2="-1" k3="1"/>
<feColorMatrix type="matrix" values="0 0 0 0 0.595833 0 0 0 0 0.83025 0 0 0 0 1 0 0 0 1 0"/>
<feBlend mode="normal" in2="shape" result="effect1_innerShadow_0_1816"/>
</filter>
<filter id="filter17_dd_0_1816" x="65.2824" y="29.3253" width="128.686" height="127.63" filterUnits="userSpaceOnUse" color-interpolation-filters="sRGB">
<feFlood flood-opacity="0" result="BackgroundImageFix"/>
<feColorMatrix in="SourceAlpha" type="matrix" values="0 0 0 0 0 0 0 0 0 0 0 0 0 0 0 0 0 0 127 0" result="hardAlpha"/>
<feOffset/>
<feGaussianBlur stdDeviation="21.5136"/>
<feColorMatrix type="matrix" values="0 0 0 0 0.558594 0 0 0 0 0.710156 0 0 0 0 0.9375 0 0 0 1 0"/>
<feBlend mode="normal" in2="BackgroundImageFix" result="effect1_dropShadow_0_1816"/>
<feColorMatrix in="SourceAlpha" type="matrix" values="0 0 0 0 0 0 0 0 0 0 0 0 0 0 0 0 0 0 127 0" result="hardAlpha"/>
<feOffset/>
<feGaussianBlur stdDeviation="5.3784"/>
<feColorMatrix type="matrix" values="0 0 0 0 0.670833 0 0 0 0 0.8025 0 0 0 0 1 0 0 0 0.6 0"/>
<feBlend mode="normal" in2="effect1_dropShadow_0_1816" result="effect2_dropShadow_0_1816"/>
<feBlend mode="normal" in="SourceGraphic" in2="effect2_dropShadow_0_1816" result="shape"/>
</filter>
<filter id="filter18_i_0_1816" x="111.545" y="66.53" width="35.8569" height="43.676" filterUnits="userSpaceOnUse" color-interpolation-filters="sRGB">
<feFlood flood-opacity="0" result="BackgroundImageFix"/>
<feBlend mode="normal" in="SourceGraphic" in2="BackgroundImageFix" result="shape"/>
<feColorMatrix in="SourceAlpha" type="matrix" values="0 0 0 0 0 0 0 0 0 0 0 0 0 0 0 0 0 0 127 0" result="hardAlpha"/>
<feOffset dy="-8.51881"/>
<feGaussianBlur stdDeviation="10.6485"/>
<feComposite in2="hardAlpha" operator="arithmetic" k2="-1" k3="1"/>
<feColorMatrix type="matrix" values="0 0 0 0 0.595833 0 0 0 0 0.83025 0 0 0 0 1 0 0 0 1 0"/>
<feBlend mode="normal" in2="shape" result="effect1_innerShadow_0_1816"/>
</filter>
<radialGradient id="paint0_radial_0_1816" cx="0" cy="0" r="1" gradientUnits="userSpaceOnUse" gradientTransform="translate(200.16 96.959) rotate(90) scale(11.0562)">
<stop stop-color="#E7ECFF"/>
<stop offset="0.979167" stop-color="#ABC3FF" stop-opacity="0.8825"/>
<stop offset="1" stop-color="#AACCFF" stop-opacity="0.88"/>
</radialGradient>
<linearGradient id="paint1_linear_0_1816" x1="199.392" y1="97.3451" x2="199.392" y2="261.653" gradientUnits="userSpaceOnUse">
<stop stop-color="#DEE7FF"/>
<stop offset="0.0722622" stop-color="#CCDDFF" stop-opacity="0.33"/>
<stop offset="1" stop-color="#98C6F0" stop-opacity="0"/>
</linearGradient>
<linearGradient id="paint2_linear_0_1816" x1="199.538" y1="76.123" x2="199.538" y2="167.189" gradientUnits="userSpaceOnUse">
<stop stop-color="#AACCFF" stop-opacity="0"/>
<stop offset="1" stop-color="#AACCFF" stop-opacity="0.3"/>
</linearGradient>
<linearGradient id="paint3_linear_0_1816" x1="297.936" y1="249.204" x2="219.07" y2="203.671" gradientUnits="userSpaceOnUse">
<stop stop-color="#AACCFF" stop-opacity="0"/>
<stop offset="1" stop-color="#AACCFF" stop-opacity="0.3"/>
</linearGradient>
<linearGradient id="paint4_linear_0_1816" x1="198.96" y1="306.807" x2="198.96" y2="215.74" gradientUnits="userSpaceOnUse">
<stop stop-color="#AACCFF" stop-opacity="0"/>
<stop offset="1" stop-color="#AACCFF" stop-opacity="0.3"/>
</linearGradient>
<linearGradient id="paint5_linear_0_1816" x1="100.713" y1="249.496" x2="179.579" y2="203.963" gradientUnits="userSpaceOnUse">
<stop stop-color="#AACCFF" stop-opacity="0"/>
<stop offset="1" stop-color="#AACCFF" stop-opacity="0.3"/>
</linearGradient>
<linearGradient id="paint6_linear_0_1816" x1="297.936" y1="133.867" x2="219.07" y2="179.4" gradientUnits="userSpaceOnUse">
<stop stop-color="#AACCFF" stop-opacity="0"/>
<stop offset="1" stop-color="#AACCFF" stop-opacity="0.3"/>
</linearGradient>
<linearGradient id="paint7_linear_0_1816" x1="100.713" y1="133.579" x2="179.579" y2="179.112" gradientUnits="userSpaceOnUse">
<stop stop-color="#AACCFF" stop-opacity="0"/>
<stop offset="1" stop-color="#AACCFF" stop-opacity="0.3"/>
</linearGradient>
<linearGradient id="paint8_linear_0_1816" x1="120.434" y1="180.428" x2="101.258" y2="161.251" gradientUnits="userSpaceOnUse">
<stop stop-color="#C3C5D1"/>
<stop offset="0.875" stop-color="#F9F9F9"/>
</linearGradient>
<linearGradient id="paint9_linear_0_1816" x1="90.8835" y1="157.793" x2="109.117" y2="180.428" gradientUnits="userSpaceOnUse">
<stop stop-color="#F9F9F9"/>
<stop offset="0.378992" stop-color="#F9F9F9"/>
<stop offset="0.480868" stop-color="#DFDFE6"/>
<stop offset="0.729174" stop-color="#B8BAC6"/>
</linearGradient>
<linearGradient id="paint10_linear_0_1816" x1="133.637" y1="197.716" x2="114.46" y2="177.91" gradientUnits="userSpaceOnUse">
<stop stop-color="#C3C5D1"/>
<stop offset="0.875" stop-color="#F9F9F9"/>
</linearGradient>
<linearGradient id="paint11_linear_0_1816" x1="109.43" y1="177.91" x2="119.176" y2="197.716" gradientUnits="userSpaceOnUse">
<stop stop-color="#F4F4F5"/>
<stop offset="0.306027" stop-color="#F4F4F5"/>
<stop offset="0.462087" stop-color="#E8E9EC"/>
<stop offset="0.682292" stop-color="#DFDFE6"/>
<stop offset="1" stop-color="#B8BAC6"/>
</linearGradient>
<linearGradient id="paint12_linear_0_1816" x1="279.681" y1="180.428" x2="298.858" y2="161.251" gradientUnits="userSpaceOnUse">
<stop stop-color="#C3C5D1"/>
<stop offset="0.875" stop-color="#F9F9F9"/>
</linearGradient>
<linearGradient id="paint13_linear_0_1816" x1="309.232" y1="157.793" x2="290.998" y2="180.428" gradientUnits="userSpaceOnUse">
<stop stop-color="#F9F9F9"/>
<stop offset="0.378992" stop-color="#F9F9F9"/>
<stop offset="0.480868" stop-color="#DFDFE6"/>
<stop offset="0.729174" stop-color="#B8BAC6"/>
</linearGradient>
<linearGradient id="paint14_linear_0_1816" x1="266.48" y1="197.716" x2="285.657" y2="177.91" gradientUnits="userSpaceOnUse">
<stop stop-color="#C3C5D1"/>
<stop offset="0.875" stop-color="#F9F9F9"/>
</linearGradient>
<linearGradient id="paint15_linear_0_1816" x1="290.687" y1="177.91" x2="280.941" y2="197.716" gradientUnits="userSpaceOnUse">
<stop stop-color="#F4F4F5"/>
<stop offset="0.306027" stop-color="#F4F4F5"/>
<stop offset="0.462087" stop-color="#E8E9EC"/>
<stop offset="0.682292" stop-color="#DFDFE6"/>
<stop offset="1" stop-color="#B8BAC6"/>
</linearGradient>
<linearGradient id="paint16_linear_0_1816" x1="186.371" y1="266.894" x2="168.448" y2="269.668" gradientUnits="userSpaceOnUse">
<stop stop-color="#91B1E3"/>
<stop offset="0.208702" stop-color="#F0F6FF"/>
<stop offset="0.514766" stop-color="#A4BFE9"/>
<stop offset="0.728274" stop-color="#8BADE0"/>
<stop offset="0.971703" stop-color="#D0DEF3"/>
</linearGradient>
<linearGradient id="paint17_linear_0_1816" x1="171.151" y1="271.159" x2="180.035" y2="268.51" gradientUnits="userSpaceOnUse">
<stop stop-color="#FAFCFF"/>
<stop offset="0.309893" stop-color="#D7E6FC"/>
<stop offset="0.523799" stop-color="#C1D8F4"/>
<stop offset="0.77229" stop-color="#BBD6FF"/>
<stop offset="1" stop-color="white"/>
</linearGradient>
<linearGradient id="paint18_linear_0_1816" x1="146.344" y1="255.366" x2="167.507" y2="279.076" gradientUnits="userSpaceOnUse">
<stop stop-color="#91B1E3"/>
<stop offset="0.208702" stop-color="#F0F6FF"/>
<stop offset="0.648432" stop-color="#A4BFE9"/>
<stop offset="0.780206" stop-color="#8BADE0"/>
<stop offset="0.971703" stop-color="#93B3E4"/>
</linearGradient>
<linearGradient id="paint19_linear_0_1816" x1="148.811" y1="259.752" x2="159.295" y2="256.626" gradientUnits="userSpaceOnUse">
<stop stop-color="#FAFCFF"/>
<stop offset="0.309893" stop-color="#D7E6FC"/>
<stop offset="0.523799" stop-color="#C1D8F4"/>
<stop offset="0.77229" stop-color="#BBD6FF"/>
<stop offset="1" stop-color="white"/>
</linearGradient>
<linearGradient id="paint20_linear_0_1816" x1="214.311" y1="266.894" x2="232.234" y2="269.668" gradientUnits="userSpaceOnUse">
<stop stop-color="#91B1E3"/>
<stop offset="0.208702" stop-color="#F0F6FF"/>
<stop offset="0.514766" stop-color="#A4BFE9"/>
<stop offset="0.728274" stop-color="#8BADE0"/>
<stop offset="0.971703" stop-color="#D0DEF3"/>
</linearGradient>
<linearGradient id="paint21_linear_0_1816" x1="229.525" y1="271.159" x2="220.64" y2="268.51" gradientUnits="userSpaceOnUse">
<stop stop-color="#FAFCFF"/>
<stop offset="0.309893" stop-color="#D7E6FC"/>
<stop offset="0.523799" stop-color="#C1D8F4"/>
<stop offset="0.77229" stop-color="#BBD6FF"/>
<stop offset="1" stop-color="white"/>
</linearGradient>
<linearGradient id="paint22_linear_0_1816" x1="254.338" y1="255.366" x2="233.175" y2="279.076" gradientUnits="userSpaceOnUse">
<stop stop-color="#91B1E3"/>
<stop offset="0.208702" stop-color="#F0F6FF"/>
<stop offset="0.648432" stop-color="#A4BFE9"/>
<stop offset="0.780206" stop-color="#8BADE0"/>
<stop offset="0.971703" stop-color="#93B3E4"/>
</linearGradient>
<linearGradient id="paint23_linear_0_1816" x1="251.871" y1="259.752" x2="241.387" y2="256.626" gradientUnits="userSpaceOnUse">
<stop stop-color="#FAFCFF"/>
<stop offset="0.309893" stop-color="#D7E6FC"/>
<stop offset="0.523799" stop-color="#C1D8F4"/>
<stop offset="0.77229" stop-color="#BBD6FF"/>
<stop offset="1" stop-color="white"/>
</linearGradient>
<linearGradient id="paint24_linear_0_1816" x1="181.424" y1="276.466" x2="220.456" y2="284.801" gradientUnits="userSpaceOnUse">
<stop stop-color="#91B1E3"/>
<stop offset="0.208702" stop-color="#F0F6FF"/>
<stop offset="0.648432" stop-color="#A4BFE9"/>
<stop offset="0.780206" stop-color="#8BADE0"/>
<stop offset="0.971703" stop-color="#93B3E4"/>
</linearGradient>
<linearGradient id="paint25_linear_0_1816" x1="215.459" y1="283.377" x2="197.634" y2="274.658" gradientUnits="userSpaceOnUse">
<stop stop-color="#FAFCFF"/>
<stop offset="0.309893" stop-color="#D7E6FC"/>
<stop offset="0.523799" stop-color="#C1D8F4"/>
<stop offset="0.77229" stop-color="#BBD6FF"/>
<stop offset="1" stop-color="white"/>
</linearGradient>
<linearGradient id="paint26_linear_0_1816" x1="200.06" y1="287.705" x2="200.06" y2="296.996" gradientUnits="userSpaceOnUse">
<stop stop-color="#6A88C3"/>
<stop offset="0.479167" stop-color="#E4EFFD"/>
<stop offset="1" stop-color="#E1ECFD"/>
</linearGradient>
<linearGradient id="paint27_linear_0_1816" x1="198.015" y1="287.943" x2="198.015" y2="295.358" gradientUnits="userSpaceOnUse">
<stop stop-color="#E2F5FF" stop-opacity="0"/>
<stop offset="0.479167" stop-color="#B6CAFE"/>
<stop offset="1" stop-color="#CCD7FF"/>
</linearGradient>
<linearGradient id="paint28_linear_0_1816" x1="202.102" y1="287.943" x2="202.102" y2="295.358" gradientUnits="userSpaceOnUse">
<stop stop-color="#E2F5FF" stop-opacity="0"/>
<stop offset="0.479167" stop-color="#B6CAFE"/>
<stop offset="1" stop-color="#CCD7FF"/>
</linearGradient>
<linearGradient id="paint29_linear_0_1816" x1="199.481" y1="295.879" x2="193.3" y2="296.611" gradientUnits="userSpaceOnUse">
<stop stop-color="#C9DEFC"/>
<stop offset="0.309893" stop-color="#ECF4FF"/>
<stop offset="0.523799" stop-color="#EAF6FF"/>
<stop offset="0.613641" stop-color="#CCE7FF"/>
<stop offset="1" stop-color="#CEE4F9"/>
</linearGradient>
<linearGradient id="paint30_linear_0_1816" x1="171.282" y1="130.937" x2="232.947" y2="253.444" gradientUnits="userSpaceOnUse">
<stop stop-color="#FAFAFA"/>
<stop offset="1" stop-color="#C2C4CD"/>
</linearGradient>
<linearGradient id="paint31_linear_0_1816" x1="170.734" y1="141.077" x2="223.903" y2="239.192" gradientUnits="userSpaceOnUse">
<stop stop-color="#CDCFD6"/>
<stop offset="1" stop-color="#EFEFF1"/>
</linearGradient>
<linearGradient id="paint32_linear_0_1816" x1="176.489" y1="137.514" x2="233.769" y2="240.562" gradientUnits="userSpaceOnUse">
<stop stop-color="#DDDFE2"/>
<stop offset="1" stop-color="white"/>
</linearGradient>
<radialGradient id="paint33_radial_0_1816" cx="0" cy="0" r="1" gradientUnits="userSpaceOnUse" gradientTransform="translate(200.331 191.341) rotate(90) scale(62.0458 53.4428)">
<stop stop-color="#F5F7FF"/>
<stop offset="1" stop-color="#B3B5C5"/>
</radialGradient>
<linearGradient id="paint34_linear_0_1816" x1="200.333" y1="126.842" x2="200.333" y2="255.842" gradientUnits="userSpaceOnUse">
<stop stop-color="white"/>
<stop offset="1" stop-color="#F2EDED" stop-opacity="0"/>
</linearGradient>
<linearGradient id="paint35_linear_0_1816" x1="134.349" y1="138.512" x2="198.849" y2="250.23" gradientUnits="userSpaceOnUse">
<stop stop-color="white"/>
<stop offset="1" stop-color="#F2EDED" stop-opacity="0"/>
</linearGradient>
<linearGradient id="paint36_linear_0_1816" x1="261.507" y1="138.511" x2="197.007" y2="250.228" gradientUnits="userSpaceOnUse">
<stop stop-color="white"/>
<stop offset="1" stop-color="#F2EDED" stop-opacity="0"/>
</linearGradient>
<linearGradient id="paint37_linear_0_1816" x1="200.331" y1="214.067" x2="200.009" y2="249.08" gradientUnits="userSpaceOnUse">
<stop stop-color="white" stop-opacity="0"/>
<stop offset="1" stop-color="#D0DBFF"/>
</linearGradient>
<linearGradient id="paint38_linear_0_1816" x1="200.367" y1="161.92" x2="200.367" y2="201.92" gradientUnits="userSpaceOnUse">
<stop stop-color="#17354E"/>
<stop offset="1" stop-color="#17354E" stop-opacity="0.06"/>
</linearGradient>
<linearGradient id="paint39_linear_0_1816" x1="200.367" y1="201.92" x2="200.367" y2="224.92" gradientUnits="userSpaceOnUse">
<stop stop-color="#17354E"/>
<stop offset="1" stop-color="#17354E" stop-opacity="0.06"/>
</linearGradient>
<linearGradient id="paint40_linear_0_1816" x1="200.447" y1="41.5879" x2="211.576" y2="84.6091" gradientUnits="userSpaceOnUse">
<stop stop-color="#708FBE" stop-opacity="0"/>
<stop offset="1" stop-color="#72DDFF" stop-opacity="0.63"/>
</linearGradient>
<linearGradient id="paint41_linear_0_1816" x1="200.447" y1="41.5903" x2="211.576" y2="84.6115" gradientUnits="userSpaceOnUse">
<stop stop-color="#708FBE" stop-opacity="0"/>
<stop offset="1" stop-color="#72DDFF" stop-opacity="0.63"/>
</linearGradient>
<radialGradient id="paint42_radial_0_1816" cx="0" cy="0" r="1" gradientUnits="userSpaceOnUse" gradientTransform="translate(194.633 60.0279) rotate(52.6712) scale(29.0361 29.0361)">
<stop offset="0.738765" stop-color="#9CB6DD" stop-opacity="0"/>
<stop offset="0.89825" stop-color="#C6F1FF" stop-opacity="0.37"/>
<stop offset="1" stop-color="#EFFBFF" stop-opacity="0.7"/>
</radialGradient>
<linearGradient id="paint43_linear_0_1816" x1="214.4" y1="74.8113" x2="191.477" y2="54.0482" gradientUnits="userSpaceOnUse">
<stop stop-color="#D8F6FF" stop-opacity="0.63"/>
<stop offset="0.218803" stop-color="#A0D2FF" stop-opacity="0"/>
<stop offset="0.491108" stop-color="#8DC8FF" stop-opacity="0.56"/>
<stop offset="0.733041" stop-color="#9ADBF8"/>
<stop offset="1" stop-color="white" stop-opacity="0"/>
<stop offset="1" stop-color="#BAEAFF" stop-opacity="0"/>
</linearGradient>
<linearGradient id="paint44_linear_0_1816" x1="200.444" y1="53.5488" x2="200.112" y2="75.6408" gradientUnits="userSpaceOnUse">
<stop stop-color="#9BE1FF"/>
<stop offset="0.277442" stop-color="#9BE1FF" stop-opacity="0.51"/>
<stop offset="1" stop-color="#CDDEE6" stop-opacity="0.15"/>
</linearGradient>
<linearGradient id="paint45_linear_0_1816" x1="199.375" y1="61.9711" x2="199.211" y2="69.8224" gradientUnits="userSpaceOnUse">
<stop stop-color="#C4C4C4" stop-opacity="0"/>
<stop offset="0.731853" stop-color="#DBF6FF" stop-opacity="0.46"/>
</linearGradient>
<linearGradient id="paint46_linear_0_1816" x1="197.171" y1="57.587" x2="201.583" y2="61.751" gradientUnits="userSpaceOnUse">
<stop offset="0.223958" stop-color="#DBF6FF" stop-opacity="0.35"/>
<stop offset="1" stop-color="#C4C4C4" stop-opacity="0"/>
</linearGradient>
<linearGradient id="paint47_linear_0_1816" x1="286.879" y1="72.6021" x2="267.751" y2="112.712" gradientUnits="userSpaceOnUse">
<stop stop-color="#708FBE" stop-opacity="0"/>
<stop offset="1" stop-color="#72DDFF" stop-opacity="0.63"/>
</linearGradient>
<linearGradient id="paint48_linear_0_1816" x1="286.883" y1="72.6005" x2="267.755" y2="112.71" gradientUnits="userSpaceOnUse">
<stop stop-color="#708FBE" stop-opacity="0"/>
<stop offset="1" stop-color="#72DDFF" stop-opacity="0.63"/>
</linearGradient>
<radialGradient id="paint49_radial_0_1816" cx="0" cy="0" r="1" gradientUnits="userSpaceOnUse" gradientTransform="translate(270.578 82.9876) rotate(92.6712) scale(29.0361 29.0361)">
<stop offset="0.738765" stop-color="#9CB6DD" stop-opacity="0"/>
<stop offset="0.89825" stop-color="#C6F1FF" stop-opacity="0.37"/>
<stop offset="1" stop-color="#EFFBFF" stop-opacity="0.7"/>
</radialGradient>
<linearGradient id="paint50_linear_0_1816" x1="276.217" y1="107.018" x2="272.004" y2="76.3781" gradientUnits="userSpaceOnUse">
<stop stop-color="#D8F6FF" stop-opacity="0.63"/>
<stop offset="0.218803" stop-color="#A0D2FF" stop-opacity="0"/>
<stop offset="0.491108" stop-color="#8DC8FF" stop-opacity="0.56"/>
<stop offset="0.733041" stop-color="#9ADBF8"/>
<stop offset="1" stop-color="white" stop-opacity="0"/>
<stop offset="1" stop-color="#BAEAFF" stop-opacity="0"/>
</linearGradient>
<linearGradient id="paint51_linear_0_1816" x1="279.19" y1="81.7662" x2="264.735" y2="98.4761" gradientUnits="userSpaceOnUse">
<stop stop-color="#9BE1FF"/>
<stop offset="0.277442" stop-color="#9BE1FF" stop-opacity="0.51"/>
<stop offset="1" stop-color="#CDDEE6" stop-opacity="0.15"/>
</linearGradient>
<linearGradient id="paint52_linear_0_1816" x1="272.959" y1="87.5309" x2="267.786" y2="93.4396" gradientUnits="userSpaceOnUse">
<stop stop-color="#C4C4C4" stop-opacity="0"/>
<stop offset="0.731853" stop-color="#DBF6FF" stop-opacity="0.46"/>
</linearGradient>
<linearGradient id="paint53_linear_0_1816" x1="274.094" y1="82.751" x2="274.797" y2="88.7768" gradientUnits="userSpaceOnUse">
<stop offset="0.223958" stop-color="#DBF6FF" stop-opacity="0.35"/>
<stop offset="1" stop-color="#C4C4C4" stop-opacity="0"/>
</linearGradient>
<linearGradient id="paint54_linear_0_1816" x1="113.276" y1="72.6635" x2="149.455" y2="98.466" gradientUnits="userSpaceOnUse">
<stop stop-color="#708FBE" stop-opacity="0"/>
<stop offset="1" stop-color="#72DDFF" stop-opacity="0.63"/>
</linearGradient>
<linearGradient id="paint55_linear_0_1816" x1="113.278" y1="72.6604" x2="149.457" y2="98.4629" gradientUnits="userSpaceOnUse">
<stop stop-color="#708FBE" stop-opacity="0"/>
<stop offset="1" stop-color="#72DDFF" stop-opacity="0.63"/>
</linearGradient>
<radialGradient id="paint56_radial_0_1816" cx="0" cy="0" r="1" gradientUnits="userSpaceOnUse" gradientTransform="translate(120.676 90.5214) rotate(12.6712) scale(29.0361 29.0361)">
<stop offset="0.738765" stop-color="#9CB6DD" stop-opacity="0"/>
<stop offset="0.89825" stop-color="#C6F1FF" stop-opacity="0.37"/>
<stop offset="1" stop-color="#EFFBFF" stop-opacity="0.7"/>
</radialGradient>
<linearGradient id="paint57_linear_0_1816" x1="145.321" y1="89.1404" x2="114.415" y2="87.9692" gradientUnits="userSpaceOnUse">
<stop stop-color="#D8F6FF" stop-opacity="0.63"/>
<stop offset="0.218803" stop-color="#A0D2FF" stop-opacity="0"/>
<stop offset="0.491108" stop-color="#8DC8FF" stop-opacity="0.56"/>
<stop offset="0.733041" stop-color="#9ADBF8"/>
<stop offset="1" stop-color="white" stop-opacity="0"/>
<stop offset="1" stop-color="#BAEAFF" stop-opacity="0"/>
</linearGradient>
<linearGradient id="paint58_linear_0_1816" x1="120.966" y1="81.8197" x2="134.912" y2="98.9567" gradientUnits="userSpaceOnUse">
<stop stop-color="#9BE1FF"/>
<stop offset="0.277442" stop-color="#9BE1FF" stop-opacity="0.51"/>
<stop offset="1" stop-color="#CDDEE6" stop-opacity="0.15"/>
</linearGradient>
<linearGradient id="paint59_linear_0_1816" x1="125.558" y1="88.9661" x2="130.479" y2="95.0863" gradientUnits="userSpaceOnUse">
<stop stop-color="#C4C4C4" stop-opacity="0"/>
<stop offset="0.731853" stop-color="#DBF6FF" stop-opacity="0.46"/>
</linearGradient>
<linearGradient id="paint60_linear_0_1816" x1="121.048" y1="87.0166" x2="127.105" y2="87.3705" gradientUnits="userSpaceOnUse">
<stop offset="0.223958" stop-color="#DBF6FF" stop-opacity="0.35"/>
<stop offset="1" stop-color="#C4C4C4" stop-opacity="0"/>
</linearGradient>
</defs>
</svg>
