<svg width="50" height="85" viewBox="0 0 50 85" fill="none" xmlns="http://www.w3.org/2000/svg">
<g filter="url(#filter0_in_1_4403)">
<path d="M44.7518 35.8086L35.6678 35.8086L25.0253 15.3926L12.5018 38.6162L48.7284 38.6162L25.0565 83.7354L5.23328 48.4111L13.2821 48.4111L25.0028 69.3096L37.2548 45.5537L0.901245 45.5537L24.7802 1.09473L44.7518 35.8086ZM24.1112 48.417L24.9882 51.5049L25.826 48.417L31.5428 48.417L24.9882 61.9658L18.161 48.417L24.1112 48.417ZM31.5428 35.792L25.826 35.792L24.9882 32.7031L24.1112 35.792L18.161 35.792L24.9882 22.2422L31.5428 35.792Z" fill="url(#paint0_linear_1_4403)"/>
<path d="M44.7518 35.8086L44.7518 36.3086L45.6163 36.3086L45.1852 35.5593L44.7518 35.8086ZM35.6678 35.8086L35.2245 36.0397L35.3646 36.3086L35.6678 36.3086L35.6678 35.8086ZM25.0253 15.3926L25.4686 15.1615L25.0328 14.3253L24.5852 15.1553L25.0253 15.3926ZM12.5018 38.6162L12.0617 38.3789L11.6641 39.1162L12.5018 39.1162L12.5018 38.6162ZM48.7284 38.6162L49.1712 38.8485L49.5554 38.1162L48.7284 38.1162L48.7284 38.6162ZM25.0565 83.7354L24.6205 83.98L25.0713 84.7834L25.4993 83.9676L25.0565 83.7354ZM5.23328 48.4111L5.23328 47.9111L4.37934 47.9111L4.79724 48.6558L5.23328 48.4111ZM13.2821 48.4111L13.7182 48.1666L13.575 47.9111L13.2821 47.9111L13.2821 48.4111ZM25.0028 69.3096L24.5667 69.5542L25.0213 70.3646L25.4472 69.5388L25.0028 69.3096ZM37.2548 45.5537L37.6991 45.7829L38.0752 45.0537L37.2548 45.0537L37.2548 45.5537ZM0.901245 45.5537L0.460759 45.3171L0.06514 46.0537L0.901245 46.0537L0.901245 45.5537ZM24.7802 1.09473L25.2135 0.845386L24.7651 0.0659813L24.3397 0.858142L24.7802 1.09473ZM24.1112 48.417L24.5922 48.2804L24.489 47.917L24.1112 47.917L24.1112 48.417ZM24.9882 51.5049L24.5072 51.6415L24.9991 53.3737L25.4707 51.6358L24.9882 51.5049ZM25.826 48.417L25.826 47.917L25.4436 47.917L25.3435 48.2861L25.826 48.417ZM31.5428 48.417L31.9929 48.6347L32.3402 47.917L31.5428 47.917L31.5428 48.417ZM24.9882 61.9658L24.5416 62.1908L24.9973 63.0951L25.4383 62.1836L24.9882 61.9658ZM18.161 48.417L18.161 47.917L17.3492 47.917L17.7145 48.642L18.161 48.417ZM31.5428 35.792L31.5428 36.292L32.3402 36.292L31.9929 35.5743L31.5428 35.792ZM25.826 35.792L25.3435 35.9229L25.4436 36.292L25.826 36.292L25.826 35.792ZM24.9882 32.7031L25.4707 32.5722L24.9991 30.8337L24.5072 32.5666L24.9882 32.7031ZM24.1112 35.792L24.1112 36.292L24.489 36.292L24.5922 35.9285L24.1112 35.792ZM18.161 35.792L17.7145 35.567L17.3492 36.292L18.161 36.292L18.161 35.792ZM24.9882 22.2422L25.4383 22.0245L24.9973 21.1129L24.5416 22.0172L24.9882 22.2422ZM44.7518 35.8086L44.7518 35.3086L35.6678 35.3086L35.6678 35.8086L35.6678 36.3086L44.7518 36.3086L44.7518 35.8086ZM35.6678 35.8086L36.1112 35.5775L25.4686 15.1615L25.0253 15.3926L24.5819 15.6237L35.2245 36.0397L35.6678 35.8086ZM25.0253 15.3926L24.5852 15.1553L12.0617 38.3789L12.5018 38.6162L12.9419 38.8535L25.4654 15.6299L25.0253 15.3926ZM12.5018 38.6162L12.5018 39.1162L48.7284 39.1162L48.7284 38.6162L48.7284 38.1162L12.5018 38.1162L12.5018 38.6162ZM48.7284 38.6162L48.2856 38.3839L24.6138 83.5031L25.0565 83.7354L25.4993 83.9676L49.1712 38.8485L48.7284 38.6162ZM25.0565 83.7354L25.4926 83.4907L5.66931 48.1664L5.23328 48.4111L4.79724 48.6558L24.6205 83.98L25.0565 83.7354ZM5.23328 48.4111L5.23328 48.9111L13.2821 48.9111L13.2821 48.4111L13.2821 47.9111L5.23328 47.9111L5.23328 48.4111ZM13.2821 48.4111L12.846 48.6557L24.5667 69.5542L25.0028 69.3096L25.4389 69.065L13.7182 48.1666L13.2821 48.4111ZM25.0028 69.3096L25.4472 69.5388L37.6991 45.7829L37.2548 45.5537L36.8104 45.3245L24.5584 69.0804L25.0028 69.3096ZM37.2548 45.5537L37.2548 45.0537L0.901245 45.0537L0.901245 45.5537L0.901245 46.0537L37.2548 46.0537L37.2548 45.5537ZM0.901245 45.5537L1.34173 45.7903L25.2206 1.33131L24.7802 1.09473L24.3397 0.858142L0.460759 45.3171L0.901245 45.5537ZM24.7802 1.09473L24.3468 1.34407L44.3184 36.0579L44.7518 35.8086L45.1852 35.5593L25.2135 0.845386L24.7802 1.09473ZM24.1112 48.417L23.6302 48.5536L24.5072 51.6415L24.9882 51.5049L25.4691 51.3683L24.5922 48.2804L24.1112 48.417ZM24.9882 51.5049L25.4707 51.6358L26.3086 48.5479L25.826 48.417L25.3435 48.2861L24.5056 51.3739L24.9882 51.5049ZM25.826 48.417L25.826 48.917L31.5428 48.917L31.5428 48.417L31.5428 47.917L25.826 47.917L25.826 48.417ZM31.5428 48.417L31.0928 48.1992L24.5381 61.7481L24.9882 61.9658L25.4383 62.1836L31.9929 48.6347L31.5428 48.417ZM24.9882 61.9658L25.4347 61.7408L18.6075 48.192L18.161 48.417L17.7145 48.642L24.5416 62.1908L24.9882 61.9658ZM18.161 48.417L18.161 48.917L24.1112 48.917L24.1112 48.417L24.1112 47.917L18.161 47.917L18.161 48.417ZM31.5428 35.792L31.5428 35.292L25.826 35.292L25.826 35.792L25.826 36.292L31.5428 36.292L31.5428 35.792ZM25.826 35.792L26.3086 35.6611L25.4707 32.5722L24.9882 32.7031L24.5056 32.834L25.3435 35.9229L25.826 35.792ZM24.9882 32.7031L24.5072 32.5666L23.6302 35.6554L24.1112 35.792L24.5922 35.9285L25.4691 32.8397L24.9882 32.7031ZM24.1112 35.792L24.1112 35.292L18.161 35.292L18.161 35.792L18.161 36.292L24.1112 36.292L24.1112 35.792ZM18.161 35.792L18.6075 36.017L25.4347 22.4672L24.9882 22.2422L24.5416 22.0172L17.7145 35.567L18.161 35.792ZM24.9882 22.2422L24.5381 22.4599L31.0927 36.0097L31.5428 35.792L31.9929 35.5743L25.4383 22.0245L24.9882 22.2422Z" fill="url(#paint1_linear_1_4403)"/>
</g>
<defs>
<filter id="filter0_in_1_4403" x="0.0651855" y="0.065918" width="49.4901" height="88.7173" filterUnits="userSpaceOnUse" color-interpolation-filters="sRGB">
<feFlood flood-opacity="0" result="BackgroundImageFix"/>
<feBlend mode="normal" in="SourceGraphic" in2="BackgroundImageFix" result="shape"/>
<feColorMatrix in="SourceAlpha" type="matrix" values="0 0 0 0 0 0 0 0 0 0 0 0 0 0 0 0 0 0 127 0" result="hardAlpha"/>
<feOffset dy="4"/>
<feGaussianBlur stdDeviation="2"/>
<feComposite in2="hardAlpha" operator="arithmetic" k2="-1" k3="1"/>
<feColorMatrix type="matrix" values="0 0 0 0 0 0 0 0 0 0 0 0 0 0 0 0 0 0 0.25 0"/>
<feBlend mode="normal" in2="shape" result="effect1_innerShadow_1_4403"/>
<feTurbulence type="fractalNoise" baseFrequency="2 2" stitchTiles="stitch" numOctaves="3" result="noise" seed="418" />
<feColorMatrix in="noise" type="luminanceToAlpha" result="alphaNoise" />
<feComponentTransfer in="alphaNoise" result="coloredNoise1">
<feFuncA type="discrete" tableValues="1 1 1 1 1 1 1 1 1 1 1 1 1 1 1 1 1 1 1 1 1 1 1 1 1 1 1 1 1 1 1 1 1 1 1 1 1 1 1 1 1 1 1 1 1 1 1 1 1 1 1 0 0 0 0 0 0 0 0 0 0 0 0 0 0 0 0 0 0 0 0 0 0 0 0 0 0 0 0 0 0 0 0 0 0 0 0 0 0 0 0 0 0 0 0 0 0 0 0 0 "/>
</feComponentTransfer>
<feComposite operator="in" in2="effect1_innerShadow_1_4403" in="coloredNoise1" result="noise1Clipped" />
<feFlood flood-color="rgba(0, 0, 0, 0.25)" result="color1Flood" />
<feComposite operator="in" in2="noise1Clipped" in="color1Flood" result="color1" />
<feMerge result="effect2_noise_1_4403">
<feMergeNode in="effect1_innerShadow_1_4403" />
<feMergeNode in="color1" />
</feMerge>
</filter>
<linearGradient id="paint0_linear_1_4403" x1="-2.76901" y1="13.7025" x2="36.46" y2="84.3782" gradientUnits="userSpaceOnUse">
<stop stop-color="white"/>
<stop offset="1" stop-color="#B2B3B9"/>
</linearGradient>
<linearGradient id="paint1_linear_1_4403" x1="17.7374" y1="3.25397" x2="35.4115" y2="74.6524" gradientUnits="userSpaceOnUse">
<stop stop-color="white"/>
<stop offset="1" stop-color="#575454"/>
</linearGradient>
</defs>
</svg>
