<svg width="219" height="40" viewBox="0 0 219 40" fill="none" xmlns="http://www.w3.org/2000/svg">
<circle cx="19.5217" cy="19.9143" r="19.3713" fill="white"/>
<path d="M26.1997 17.7012H23.1567L19.5913 10.8623L15.397 18.6416H27.5317L19.6021 33.7549L12.9624 21.9229H15.6587L19.5845 28.9229L23.688 20.9658H11.5112L19.5093 6.07324L26.1997 17.7012ZM19.2856 21.9248L19.5796 22.959L19.8599 21.9248H21.7749L19.5796 26.4629L17.2925 21.9248H19.2856ZM21.7749 17.6953H19.8599L19.5796 16.6611L19.2856 17.6953H17.2925L19.5796 13.1572L21.7749 17.6953Z" fill="#381A04"/>
<path d="M136.214 16.4071L136.087 13.6979V0.893647H139.651V24.5993H139.174L125.491 9.24712L125.586 11.8272V15.6912H129.812V19.5356H122.022V0.861493H122.468L136.214 16.4071ZM157.437 16.4071L157.309 13.6979V0.893647H160.873V24.5993H160.396L146.713 9.24712L146.809 11.8272V15.6912H151.035V19.5356H143.245V0.861493H143.69L157.437 16.4071ZM193.398 5.5022H201.756V0.879831H205.371V24.5993H201.756V14.0564H193.398V24.5993H189.784V0.879831H193.398V5.5022ZM56.3625 0.542969C57.3808 0.542969 58.2505 0.649108 58.9718 0.861242C59.693 1.07337 60.2976 1.32792 60.7855 1.6249C61.2734 1.92189 61.6554 2.1871 61.9312 2.42045L60.2446 5.31606C59.884 4.93423 59.3431 4.58423 58.6219 4.26603C57.9006 3.92663 57.0945 3.75686 56.2035 3.75685C55.1641 3.75685 54.3366 4.00069 53.7214 4.4886C53.1062 4.9553 52.7987 5.6555 52.7987 6.5889C52.7988 7.4162 53.0744 8.12688 53.626 8.72085C54.1775 9.29361 54.8777 9.8238 55.7263 10.3117C56.596 10.7784 57.4869 11.2559 58.399 11.7438C59.3112 12.2317 60.1173 12.8044 60.8174 13.462C61.3901 13.9711 61.8781 14.6075 62.2811 15.3712C62.6842 16.1349 62.8858 16.9941 62.8858 17.9488C62.8857 19.3912 62.5462 20.611 61.8674 21.608C61.2098 22.605 60.3189 23.3582 59.1946 23.8673C58.0703 24.3552 56.7974 24.5991 55.3761 24.5991C54.4851 24.5991 53.6047 24.4932 52.7349 24.281C51.8652 24.0477 51.0909 23.7718 50.4121 23.4536C49.7333 23.1142 49.2242 22.7749 48.8848 22.4355L50.5713 19.4125C50.8047 19.6034 51.1652 19.858 51.653 20.1762C52.1621 20.4731 52.7455 20.7384 53.4031 20.9717C54.0607 21.2051 54.7185 21.3216 55.3761 21.3216C56.4579 21.3216 57.3595 21.0671 58.0808 20.558C58.8232 20.0489 59.1946 19.3064 59.1946 18.3306C59.1946 17.5245 58.9823 16.8561 58.5581 16.3257C58.1338 15.7955 57.5717 15.3288 56.8717 14.9258C56.1929 14.5227 55.4504 14.1409 54.6443 13.7803C53.8594 13.3985 53.1063 12.9742 52.385 12.5075C51.5577 11.9559 50.8364 11.2239 50.2212 10.3117C49.606 9.39955 49.2985 8.22225 49.2985 6.77981C49.2985 5.35851 49.6167 4.19174 50.2531 3.27956C50.9107 2.36741 51.7698 1.68855 52.8304 1.24307C53.9123 0.77637 55.0897 0.542969 56.3625 0.542969ZM86.6191 24.5782H63.5949L75.107 0.930322L86.6191 24.5782ZM120.292 24.5782H97.2673L108.78 0.930322L120.292 24.5782ZM186.662 24.5782H163.637L175.15 0.930322L186.662 24.5782ZM133.413 24.5453H122.022V20.9365H133.413V24.5453ZM154.636 24.5453H143.245V20.9365H154.636V24.5453ZM92.2432 16.9625L99.2754 0.893395H103.285L92.4977 24.2813H92.0204L81.2016 0.893395H85.2427L92.2432 16.9625ZM69.3653 20.9695H80.8487L75.107 9.17477L69.3653 20.9695ZM103.038 20.9695H114.521L108.78 9.17477L103.038 20.9695ZM169.408 20.9695H180.891L175.15 9.17477L169.408 20.9695ZM92.349 5.78028L94.3641 0.578639H97.5707L92.5525 11.5637H92.1709L87.3277 0.578639H90.5597L92.349 5.78028ZM193.398 9.11096V10.4476H201.756V9.11096H193.398Z" fill="white"/>
<path d="M200.18 36.8578C200.323 37.1068 200.476 37.3278 200.638 37.5208C200.806 37.7075 200.989 37.8538 201.189 37.9597C201.388 38.0592 201.612 38.109 201.861 38.109C202.16 38.109 202.402 38.0281 202.589 37.8663C202.776 37.7044 202.869 37.4959 202.869 37.2407C202.869 36.9979 202.81 36.8049 202.692 36.6618C202.574 36.5124 202.409 36.3879 202.197 36.2883C201.992 36.1824 201.752 36.0797 201.478 35.9801C201.316 35.9241 201.136 35.8494 200.936 35.756C200.737 35.6564 200.547 35.535 200.367 35.3919C200.186 35.2425 200.037 35.062 199.919 34.8503C199.8 34.6324 199.741 34.371 199.741 34.066C199.741 33.7174 199.832 33.4124 200.012 33.1509C200.193 32.8832 200.435 32.6778 200.74 32.5346C201.052 32.3852 201.403 32.3105 201.795 32.3105C202.181 32.3105 202.518 32.379 202.804 32.516C203.09 32.6529 203.33 32.8272 203.523 33.0389C203.722 33.2505 203.878 33.4715 203.99 33.7018L203.093 34.206C203.012 34.0442 202.91 33.8948 202.785 33.7578C202.661 33.6147 202.514 33.5026 202.346 33.4217C202.185 33.3345 201.995 33.291 201.777 33.291C201.472 33.291 201.248 33.3626 201.104 33.5057C200.961 33.6427 200.89 33.8045 200.89 33.9913C200.89 34.1593 200.94 34.3119 201.039 34.4488C201.145 34.5795 201.307 34.704 201.525 34.8223C201.743 34.9406 202.026 35.062 202.374 35.1865C202.567 35.2549 202.76 35.3421 202.953 35.4479C203.152 35.5537 203.333 35.6876 203.495 35.8494C203.657 36.005 203.784 36.1887 203.878 36.4003C203.977 36.612 204.027 36.861 204.027 37.1473C204.027 37.4523 203.968 37.7262 203.85 37.969C203.731 38.2118 203.57 38.4172 203.364 38.5853C203.159 38.7471 202.925 38.8716 202.664 38.9587C202.409 39.0521 202.141 39.0988 201.861 39.0988C201.475 39.0988 201.117 39.0241 200.787 38.8747C200.463 38.7191 200.18 38.5137 199.937 38.2584C199.695 38.0032 199.502 37.7262 199.358 37.4274L200.18 36.8578Z" fill="white"/>
<path d="M189.095 32.4229H190.216V38.959H189.095V32.4229ZM191.205 38.959H189.777V37.9226H191.177C191.501 37.9226 191.8 37.8759 192.074 37.7825C192.348 37.6891 192.584 37.5491 192.783 37.3623C192.989 37.1756 193.148 36.9421 193.26 36.662C193.378 36.3819 193.437 36.0582 193.437 35.6909C193.437 35.3237 193.378 35 193.26 34.7198C193.148 34.4397 192.989 34.2063 192.783 34.0195C192.584 33.8328 192.348 33.6927 192.074 33.5994C191.8 33.506 191.501 33.4593 191.177 33.4593H189.777V32.4229H191.205C191.872 32.4229 192.457 32.5598 192.961 32.8337C193.465 33.1014 193.857 33.4811 194.137 33.9729C194.424 34.4584 194.567 35.0311 194.567 35.6909C194.567 36.3508 194.424 36.9266 194.137 37.4183C193.857 37.9039 193.465 38.2836 192.961 38.5575C192.457 38.8252 191.872 38.959 191.205 38.959Z" fill="white"/>
<path d="M182.454 32.4225H183.538V39.2855L178.766 34.5701V38.9587H177.683V32.0957L182.454 36.8111V32.4225Z" fill="white"/>
<path d="M168.921 38.959V37.9879H172.217V38.959H168.921ZM168.921 33.3939V32.4229H172.217V33.3939H168.921ZM168.921 35.9337V34.9813H172.031V35.9337H168.921ZM168.24 32.4229H169.323V38.959H168.24V32.4229Z" fill="white"/>
<path d="M159.855 36.475V35.5413H163.002C163.014 36.0206 162.952 36.475 162.815 36.9045C162.678 37.3278 162.472 37.7044 162.199 38.0343C161.925 38.3643 161.582 38.6257 161.171 38.8187C160.767 39.0054 160.306 39.0988 159.79 39.0988C159.298 39.0988 158.843 39.0179 158.426 38.856C158.009 38.688 157.645 38.4514 157.334 38.1464C157.029 37.8414 156.792 37.4803 156.624 37.0633C156.456 36.6462 156.372 36.1887 156.372 35.6907C156.372 35.1927 156.456 34.7383 156.624 34.3274C156.798 33.9103 157.038 33.5524 157.343 33.2536C157.654 32.9486 158.019 32.7152 158.436 32.5533C158.859 32.3915 159.316 32.3105 159.808 32.3105C160.238 32.3105 160.627 32.3697 160.975 32.488C161.324 32.6 161.635 32.765 161.909 32.9828C162.189 33.1945 162.426 33.4528 162.619 33.7578L161.722 34.3554C161.542 34.0442 161.29 33.7952 160.966 33.6084C160.649 33.4217 160.263 33.3283 159.808 33.3283C159.385 33.3283 159.002 33.4279 158.66 33.6271C158.317 33.8201 158.043 34.094 157.838 34.4488C157.633 34.7974 157.53 35.2114 157.53 35.6907C157.53 36.1638 157.629 36.5808 157.829 36.9419C158.034 37.2967 158.308 37.5737 158.65 37.7729C158.993 37.9721 159.379 38.0717 159.808 38.0717C160.101 38.0717 160.362 38.0312 160.593 37.9503C160.823 37.8694 161.022 37.7542 161.19 37.6048C161.358 37.4554 161.498 37.2842 161.61 37.0913C161.722 36.8983 161.806 36.6929 161.862 36.475H159.855Z" fill="white"/>
<path d="M147.984 38.959V37.9879H151.28V38.959H147.984ZM147.984 33.3939V32.4229H151.28V33.3939H147.984ZM147.984 35.9337V34.9813H151.094V35.9337H147.984ZM147.303 32.4229H148.386V38.959H147.303V32.4229Z" fill="white"/>
<path d="M138.699 32.4229H139.801V37.9692H142.396V38.959H138.699V32.4229Z" fill="white"/>
<path d="M123.495 33.4126V32.4229H126.417V33.4126H123.495ZM123.495 36.0084V35.0466H126.324V36.0084H123.495ZM122.813 32.4229H123.896V38.959H122.813V32.4229Z" fill="white"/>
<path d="M112.012 35.6907C112.012 36.1389 112.105 36.5404 112.292 36.8952C112.485 37.2438 112.75 37.5177 113.086 37.7169C113.422 37.9161 113.805 38.0157 114.234 38.0157C114.67 38.0157 115.053 37.9161 115.383 37.7169C115.719 37.5177 115.98 37.2438 116.167 36.8952C116.36 36.5404 116.456 36.1389 116.456 35.6907C116.456 35.2425 116.363 34.8441 116.176 34.4955C115.99 34.1407 115.728 33.8637 115.392 33.6645C115.062 33.4653 114.676 33.3657 114.234 33.3657C113.805 33.3657 113.422 33.4653 113.086 33.6645C112.75 33.8637 112.485 34.1407 112.292 34.4955C112.105 34.8441 112.012 35.2425 112.012 35.6907ZM110.845 35.6907C110.845 35.1989 110.929 34.7476 111.097 34.3368C111.265 33.9259 111.501 33.5711 111.806 33.2723C112.118 32.9673 112.479 32.7307 112.89 32.5627C113.307 32.3946 113.755 32.3105 114.234 32.3105C114.726 32.3105 115.177 32.3946 115.588 32.5627C115.999 32.7307 116.357 32.9673 116.662 33.2723C116.973 33.5711 117.213 33.9259 117.381 34.3368C117.549 34.7476 117.633 35.1989 117.633 35.6907C117.633 36.1762 117.549 36.6275 117.381 37.0446C117.213 37.4617 116.976 37.8227 116.671 38.1277C116.366 38.4327 116.005 38.6724 115.588 38.8467C115.177 39.0148 114.726 39.0988 114.234 39.0988C113.749 39.0988 113.297 39.0148 112.88 38.8467C112.463 38.6724 112.102 38.4327 111.797 38.1277C111.498 37.8227 111.265 37.4617 111.097 37.0446C110.929 36.6275 110.845 36.1762 110.845 35.6907Z" fill="white"/>
<path d="M95.5503 38.959V37.9879H98.8464V38.959H95.5503ZM95.5503 33.3939V32.4229H98.8464V33.3939H95.5503ZM95.5503 35.9337V34.9813H98.6596V35.9337H95.5503ZM94.8687 32.4229H95.9518V38.959H94.8687V32.4229Z" fill="white"/>
<path d="M86.2642 32.4229H87.366V37.9692H89.9618V38.959H86.2642V32.4229Z" fill="white"/>
<path d="M76.7969 33.4406V32.4229H81.3535V33.4406H79.6261V38.959H78.5149V33.4406H76.7969Z" fill="white"/>
<path d="M67.7007 33.4406V32.4229H72.2573V33.4406H70.5299V38.959H69.4188V33.4406H67.7007Z" fill="white"/>
<path d="M59.2395 37.2782L59.4449 36.3444H62.4796L62.6943 37.2782H59.2395ZM60.9483 34.2715L59.9212 36.6712L59.9025 36.914L58.9968 38.9589H57.7549L60.9483 32.0586L64.1416 38.9589H62.8998L62.0127 36.97L61.9847 36.6993L60.9483 34.2715Z" fill="white"/>
<path d="M49.7251 35.5882V35.0466H50.7803C50.9857 35.0466 51.1662 35.0124 51.3218 34.9439C51.4774 34.8755 51.5988 34.779 51.686 34.6545C51.7731 34.5238 51.8167 34.3681 51.8167 34.1876C51.8167 33.9137 51.7202 33.7021 51.5272 33.5527C51.3343 33.4033 51.0853 33.3286 50.7803 33.3286H49.9866V38.0533H50.9016C51.1506 38.0533 51.3716 38.0128 51.5646 37.9319C51.7576 37.851 51.9101 37.7296 52.0221 37.5677C52.1342 37.4059 52.1902 37.2036 52.1902 36.9608C52.1902 36.7865 52.156 36.634 52.0875 36.5033C52.0252 36.3663 51.935 36.2543 51.8167 36.1671C51.7046 36.0738 51.5708 36.0084 51.4152 35.971C51.2596 35.9275 51.0884 35.9057 50.9016 35.9057H49.7251V35.2988H50.967C51.2845 35.2988 51.5833 35.333 51.8634 35.4015C52.1435 35.4699 52.3925 35.5758 52.6104 35.7189C52.8345 35.8621 53.0088 36.0457 53.1333 36.2698C53.2578 36.4939 53.32 36.7616 53.32 37.0729C53.32 37.5024 53.2173 37.8572 53.0119 38.1373C52.8127 38.4174 52.5357 38.626 52.1809 38.7629C51.8323 38.8936 51.4276 38.959 50.967 38.959H48.8848V32.4229H50.8549C51.2658 32.4229 51.6268 32.482 51.9381 32.6003C52.2556 32.7185 52.5014 32.8991 52.6757 33.1418C52.8563 33.3846 52.9465 33.6927 52.9465 34.0662C52.9465 34.3899 52.8563 34.6669 52.6757 34.8973C52.5014 35.1213 52.2556 35.2925 51.9381 35.4108C51.6268 35.5291 51.2658 35.5882 50.8549 35.5882H49.7251Z" fill="white"/>
</svg>
