<svg width="129" height="58" viewBox="0 0 129 58" fill="none" xmlns="http://www.w3.org/2000/svg">
<path d="M48.6561 1.01613L31.8976 40.9951H20.9646L12.7176 9.08813C12.2176 7.12763 11.7831 6.40613 10.2616 5.57713C7.77462 4.22613 3.66762 2.96263 0.0576172 2.17663L0.301117 1.01613H17.9031C20.1431 1.01613 22.1601 2.50763 22.6731 5.09013L27.0306 28.2266L37.7886 1.01613H48.6561ZM63.4361 1.01613L54.8846 40.9951H44.5406L53.0931 1.01613H63.4361ZM91.4941 27.9421C91.5371 17.3926 76.9071 16.8071 77.0026 12.0936C77.0376 10.6606 78.4026 9.13513 81.3906 8.74513C82.8706 8.55363 86.9596 8.40113 91.5911 10.5351L93.4031 2.05213C90.9146 1.15213 87.7121 0.286133 83.7286 0.286133C73.5036 0.286133 66.3111 5.71713 66.2536 13.5001C66.1866 19.2571 71.3911 22.4656 75.3051 24.3831C79.3366 26.3411 80.6886 27.5996 80.6701 29.3496C80.6411 32.0321 77.4501 33.2196 74.4836 33.2636C69.2816 33.3461 66.2661 31.8576 63.8606 30.7371L61.9831 39.5011C64.4031 40.6101 68.8631 41.5736 73.4826 41.6226C84.3526 41.6226 91.4621 36.2536 91.4941 27.9421ZM118.494 40.9956H128.058L119.703 1.01613H110.879C108.889 1.01613 107.217 2.17113 106.475 3.94663L90.9546 40.9951H101.816L103.971 35.0231H117.241L118.494 40.9956ZM106.949 26.8311L112.395 11.8176L115.524 26.8311H106.949ZM76.6741 52.0001H72.4711V55.9116H77.1721V57.0876H71.0551V46.2361H76.9311V47.4121H72.4711V50.8406H76.6736L76.6741 52.0001ZM79.3436 45.6571H80.7596V57.0871H79.3436V45.6571ZM84.3326 53.4486C84.3646 55.3651 85.5726 56.1536 87.0046 56.1536C88.0196 56.1536 88.6471 55.9766 89.1631 55.7516L89.4201 56.7661C88.9211 56.9911 88.0521 57.2646 86.8116 57.2646C84.4136 57.2646 82.9811 55.6711 82.9811 53.3201C82.9811 50.9701 84.3646 49.1341 86.6351 49.1341C89.1951 49.1341 89.8551 51.3566 89.8551 52.7891C89.8551 53.0786 89.8386 53.2876 89.8061 53.4491L84.3326 53.4486ZM88.4861 52.4346C88.5026 51.5496 88.1161 50.1486 86.5221 50.1486C85.0731 50.1486 84.4611 51.4526 84.3481 52.4346H88.4861ZM97.5631 56.8136C97.1931 56.9911 96.3716 57.2651 95.3256 57.2651C92.9751 57.2651 91.4456 55.6711 91.4456 53.2881C91.4456 50.8891 93.0871 49.1346 95.6311 49.1346C96.4681 49.1346 97.2086 49.3431 97.5951 49.5531L97.2741 50.6316C96.9346 50.4546 96.4036 50.2606 95.6311 50.2606C93.8436 50.2606 92.8786 51.5971 92.8786 53.2081C92.8786 55.0106 94.0376 56.1216 95.5831 56.1216C96.3881 56.1216 96.9191 55.9286 97.3216 55.7516L97.5631 56.8136ZM101.537 47.4276V49.2951H103.565V50.3731H101.537V54.5756C101.537 55.5426 101.811 56.0891 102.6 56.0891C102.986 56.0891 103.212 56.0576 103.421 55.9921L103.486 57.0721C103.212 57.1681 102.777 57.2646 102.23 57.2646C101.569 57.2646 101.038 57.0391 100.7 56.6696C100.314 56.2341 100.153 55.5426 100.153 54.6246V50.3731H98.9446V49.2951H100.153V47.8461L101.537 47.4276ZM105.544 51.7266C105.544 50.8086 105.527 50.0201 105.479 49.2951H106.719L106.784 50.8401H106.831C107.186 49.7946 108.055 49.1341 109.004 49.1341C109.15 49.1341 109.263 49.1506 109.392 49.1661V50.5031C109.247 50.4701 109.102 50.4701 108.908 50.4701C107.911 50.4701 107.201 51.2106 107.009 52.2741C106.975 52.4925 106.959 52.7132 106.96 52.9341V57.0881H105.544V51.7266ZM118.099 53.1266C118.099 56.0086 116.086 57.2646 114.219 57.2646C112.126 57.2646 110.484 55.7186 110.484 53.2561C110.484 50.6636 112.207 49.1346 114.348 49.1346C116.586 49.1346 118.099 50.7591 118.099 53.1266ZM111.933 53.2081C111.933 54.9146 112.899 56.2031 114.283 56.2031C115.636 56.2031 116.65 54.9301 116.65 53.1756C116.65 51.8556 115.99 50.1966 114.315 50.1966C112.658 50.1966 111.933 51.7431 111.933 53.2081ZM120.27 51.4046C120.27 50.5841 120.253 49.9396 120.205 49.2961H121.461L121.542 50.5841H121.574C121.96 49.8591 122.862 49.1351 124.15 49.1351C125.228 49.1351 126.903 49.7791 126.903 52.4506V57.0881H125.486V52.5961C125.486 51.3411 125.019 50.2936 123.683 50.2936C122.765 50.2936 122.04 50.9541 121.784 51.7426C121.719 51.9201 121.687 52.1611 121.687 52.4031V57.0881H120.27V51.4046Z" fill="white"/>
</svg>
