<svg width="172" height="47" viewBox="0 0 172 47" fill="none" xmlns="http://www.w3.org/2000/svg">
<path d="M23.5176 10.085C30.9119 10.085 36.906 16.0794 36.9062 23.4736C36.9062 30.8681 30.912 36.8633 23.5176 36.8633C16.1232 36.8632 10.1289 30.868 10.1289 23.4736C10.1291 16.0794 16.1234 10.0851 23.5176 10.085ZM17.9746 24.2021H26.3916L23.5547 29.7021L20.8418 24.8633H18.9775L23.5674 33.042L29.0479 22.5957H20.6611L23.5605 17.2188L26.0244 21.9453H28.127L23.5029 13.9092L17.9746 24.2021ZM21.9668 24.8623L23.5469 27.999L25.0645 24.8623H23.7412L23.5469 25.5771L23.3438 24.8623H21.9668ZM21.9668 21.9434H23.3438L23.5469 21.2285L23.7412 21.9434H25.0645L23.5469 18.8066L21.9668 21.9434Z" fill="white"/>
<path d="M104.172 21.0488L104.084 19.1763V10.3264H106.547V26.711H106.217L96.7603 16.1L96.8263 17.8833V20.554H99.747V23.2111H94.3629V10.3041H94.6709L104.172 21.0488ZM118.84 21.0488L118.752 19.1763V10.3264H121.216V26.711H120.886L111.429 16.1L111.495 17.8833V20.554H114.415V23.2111H109.031V10.3041H109.339L118.84 21.0488ZM143.696 13.5117H149.473V10.3168H151.971V26.711H149.473V19.4241H143.696V26.711H141.198V10.3168H143.696V13.5117ZM48.9809 10.084C49.6847 10.084 50.2858 10.1573 50.7843 10.304C51.2828 10.4506 51.7007 10.6265 52.0379 10.8318C52.3751 11.0371 52.6392 11.2204 52.8298 11.3816L51.6641 13.383C51.4148 13.1191 51.041 12.8772 50.5425 12.6573C50.044 12.4227 49.4868 12.3053 48.871 12.3053C48.1526 12.3053 47.5806 12.4739 47.1554 12.8111C46.7302 13.1337 46.5177 13.6176 46.5177 14.2628C46.5177 14.8346 46.7083 15.3258 47.0895 15.7363C47.4707 16.1322 47.9546 16.4986 48.5411 16.8358C49.1423 17.1584 49.758 17.4885 50.3885 17.8257C51.0189 18.1629 51.5761 18.5587 52.06 19.0133C52.4558 19.3651 52.7931 19.805 53.0717 20.3328C53.3502 20.8606 53.4896 21.4545 53.4896 22.1143C53.4896 23.1114 53.2549 23.9544 52.7857 24.6435C52.3312 25.3326 51.7154 25.8532 50.9383 26.2051C50.1613 26.5423 49.2815 26.7109 48.2991 26.7109C47.6833 26.7108 47.0748 26.6377 46.4736 26.491C45.8725 26.3298 45.3373 26.1391 44.8681 25.9191C44.399 25.6846 44.0471 25.45 43.8125 25.2154L44.9782 23.126C45.1395 23.258 45.3887 23.434 45.7258 23.6539C46.0777 23.8591 46.481 24.0425 46.9355 24.2037C47.39 24.365 47.8446 24.4456 48.2991 24.4456C49.0468 24.4456 49.67 24.2696 50.1685 23.9178C50.6817 23.5659 50.9383 23.0527 50.9383 22.3783C50.9383 21.8211 50.7916 21.3591 50.4984 20.9926C50.2052 20.6261 49.8167 20.3035 49.3329 20.025C48.8637 19.7464 48.3505 19.4825 47.7933 19.2332C47.2508 18.9693 46.7303 18.6761 46.2318 18.3535C45.6599 17.9723 45.1614 17.4663 44.7362 16.8358C44.311 16.2054 44.0985 15.3917 44.0985 14.3947C44.0985 13.4123 44.3184 12.6059 44.7582 11.9754C45.2127 11.345 45.8065 10.8758 46.5396 10.5679C47.2874 10.2453 48.1012 10.084 48.9809 10.084ZM69.8933 26.6964H53.9797L61.9365 10.3517L69.8933 26.6964ZM93.1668 26.6964H77.2531L85.21 10.3517L93.1668 26.6964ZM139.04 26.6964H123.126L131.083 10.3517L139.04 26.6964ZM102.236 26.6737H94.3629V24.1794H102.236V26.6737ZM116.904 26.6737H109.031V24.1794H116.904V26.6737ZM73.7806 21.4327L78.641 10.3262H81.4122L73.9565 26.4912H73.6266L66.149 10.3262H68.942L73.7806 21.4327ZM57.968 24.2022H65.905L61.9365 16.05L57.968 24.2022ZM81.2415 24.2022H89.1785L85.21 16.05L81.2415 24.2022ZM127.115 24.2022H135.052L131.083 16.05L127.115 24.2022ZM73.8537 13.7039L75.2465 10.1086H77.4628L73.9943 17.7012H73.7306L70.3831 10.1086H72.617L73.8537 13.7039ZM143.696 16.0059V16.9298H149.473V16.0059H143.696Z" fill="white"/>
<path d="M148.393 35.1862C148.492 35.3583 148.597 35.511 148.709 35.6444C148.825 35.7735 148.952 35.8746 149.09 35.9477C149.227 36.0165 149.382 36.051 149.554 36.051C149.761 36.051 149.929 35.995 150.058 35.8832C150.187 35.7713 150.251 35.6272 150.251 35.4508C150.251 35.283 150.21 35.1496 150.129 35.0506C150.047 34.9474 149.933 34.8613 149.787 34.7925C149.645 34.7194 149.479 34.6484 149.29 34.5795C149.178 34.5408 149.053 34.4892 148.915 34.4246C148.778 34.3558 148.646 34.2719 148.522 34.1729C148.397 34.0697 148.294 33.9449 148.212 33.7986C148.13 33.648 148.089 33.4673 148.089 33.2565C148.089 33.0156 148.152 32.8048 148.276 32.624C148.401 32.439 148.569 32.2971 148.78 32.1981C148.995 32.0948 149.238 32.0432 149.509 32.0432C149.776 32.0432 150.008 32.0905 150.206 32.1852C150.404 32.2798 150.57 32.4003 150.703 32.5466C150.841 32.6929 150.948 32.8456 151.026 33.0048L150.406 33.3533C150.35 33.2415 150.279 33.1382 150.193 33.0435C150.107 32.9446 150.006 32.8671 149.89 32.8112C149.778 32.751 149.647 32.7209 149.496 32.7209C149.285 32.7209 149.131 32.7703 149.032 32.8693C148.933 32.9639 148.883 33.0758 148.883 33.2049C148.883 33.321 148.918 33.4265 148.986 33.5211C149.06 33.6115 149.171 33.6975 149.322 33.7793C149.473 33.861 149.668 33.9449 149.909 34.031C150.043 34.0783 150.176 34.1385 150.309 34.2117C150.447 34.2848 150.572 34.3773 150.684 34.4892C150.796 34.5967 150.884 34.7237 150.948 34.8699C151.017 35.0162 151.052 35.1883 151.052 35.3862C151.052 35.5971 151.011 35.7864 150.929 35.9542C150.847 36.122 150.735 36.2639 150.593 36.3801C150.451 36.492 150.29 36.578 150.109 36.6383C149.933 36.7028 149.748 36.7351 149.554 36.7351C149.288 36.7351 149.04 36.6834 148.812 36.5802C148.588 36.4726 148.393 36.3306 148.225 36.1542C148.057 35.9778 147.924 35.7864 147.825 35.5798L148.393 35.1862Z" fill="white"/>
<path d="M140.723 32.1172H141.498V36.6348H140.723V32.1172ZM142.182 36.6348H141.194V35.9184H142.162C142.386 35.9184 142.593 35.8862 142.782 35.8216C142.971 35.7571 143.135 35.6603 143.272 35.5312C143.414 35.4021 143.524 35.2408 143.601 35.0472C143.683 34.8536 143.724 34.6298 143.724 34.376C143.724 34.1221 143.683 33.8984 143.601 33.7048C143.524 33.5112 143.414 33.3498 143.272 33.2208C143.135 33.0917 142.971 32.9949 142.782 32.9304C142.593 32.8658 142.386 32.8335 142.162 32.8335H141.194V32.1172H142.182C142.642 32.1172 143.046 32.2118 143.395 32.4012C143.743 32.5862 144.015 32.8486 144.208 33.1885C144.406 33.5241 144.505 33.9199 144.505 34.376C144.505 34.832 144.406 35.23 144.208 35.5699C144.015 35.9055 143.743 36.168 143.395 36.3573C143.046 36.5423 142.642 36.6348 142.182 36.6348Z" fill="white"/>
<path d="M136.13 32.1209H136.878V36.8644L133.58 33.6053V36.6385H132.832V31.895L136.13 35.1541V32.1209Z" fill="white"/>
<path d="M126.78 36.6348V35.9636H129.058V36.6348H126.78ZM126.78 32.7884V32.1172H129.058V32.7884H126.78ZM126.78 34.5438V33.8855H128.929V34.5438H126.78ZM126.309 32.1172H127.057V36.6348H126.309V32.1172Z" fill="white"/>
<path d="M120.514 34.9216V34.2762H122.689C122.698 34.6075 122.655 34.9216 122.56 35.2184C122.465 35.511 122.323 35.7713 122.134 35.9993C121.945 36.2274 121.708 36.4081 121.424 36.5414C121.144 36.6705 120.826 36.7351 120.469 36.7351C120.129 36.7351 119.815 36.6791 119.527 36.5673C119.238 36.4511 118.987 36.2876 118.772 36.0768C118.561 35.866 118.397 35.6164 118.281 35.3282C118.165 35.0399 118.107 34.7237 118.107 34.3795C118.107 34.0353 118.165 33.7212 118.281 33.4372C118.402 33.1489 118.567 32.9016 118.778 32.695C118.993 32.4842 119.245 32.3229 119.533 32.211C119.826 32.0991 120.142 32.0432 120.482 32.0432C120.779 32.0432 121.048 32.0841 121.289 32.1658C121.53 32.2433 121.745 32.3573 121.934 32.5079C122.128 32.6542 122.291 32.8327 122.424 33.0435L121.805 33.4566C121.68 33.2415 121.506 33.0694 121.282 32.9403C121.063 32.8112 120.796 32.7467 120.482 32.7467C120.189 32.7467 119.925 32.8155 119.688 32.9532C119.451 33.0866 119.262 33.2759 119.12 33.5211C118.978 33.7621 118.907 34.0482 118.907 34.3795C118.907 34.7064 118.976 34.9947 119.114 35.2443C119.256 35.4895 119.445 35.681 119.682 35.8186C119.918 35.9563 120.185 36.0252 120.482 36.0252C120.684 36.0252 120.865 35.9972 121.024 35.9413C121.183 35.8853 121.321 35.8057 121.437 35.7025C121.553 35.5992 121.65 35.4809 121.727 35.3475C121.805 35.2141 121.863 35.0722 121.902 34.9216H120.514Z" fill="white"/>
<path d="M112.309 36.6348V35.9636H114.587V36.6348H112.309ZM112.309 32.7884V32.1172H114.587V32.7884H112.309ZM112.309 34.5438V33.8855H114.458V34.5438H112.309ZM111.837 32.1172H112.586V36.6348H111.837V32.1172Z" fill="white"/>
<path d="M105.885 32.1172H106.647V35.9507H108.441V36.6348H105.885V32.1172Z" fill="white"/>
<path d="M95.3835 32.8013V32.1172H97.4035V32.8013H95.3835ZM95.3835 34.5954V33.9307H97.339V34.5954H95.3835ZM94.9124 32.1172H95.661V36.6348H94.9124V32.1172Z" fill="white"/>
<path d="M87.4469 34.3795C87.4469 34.6892 87.5114 34.9667 87.6405 35.212C87.7738 35.4529 87.9567 35.6422 88.189 35.7799C88.4214 35.9176 88.686 35.9864 88.9828 35.9864C89.284 35.9864 89.5486 35.9176 89.7766 35.7799C90.009 35.6422 90.1897 35.4529 90.3188 35.212C90.4521 34.9667 90.5188 34.6892 90.5188 34.3795C90.5188 34.0697 90.4543 33.7943 90.3252 33.5534C90.1961 33.3081 90.0154 33.1167 89.7831 32.979C89.5551 32.8413 89.2883 32.7725 88.9828 32.7725C88.686 32.7725 88.4214 32.8413 88.189 32.979C87.9567 33.1167 87.7738 33.3081 87.6405 33.5534C87.5114 33.7943 87.4469 34.0697 87.4469 34.3795ZM86.6401 34.3795C86.6401 34.0396 86.6982 33.7276 86.8144 33.4437C86.9306 33.1597 87.094 32.9145 87.3049 32.7079C87.52 32.4971 87.7695 32.3336 88.0535 32.2175C88.3418 32.1013 88.6515 32.0432 88.9828 32.0432C89.3227 32.0432 89.6347 32.1013 89.9186 32.2175C90.2026 32.3336 90.45 32.4971 90.6608 32.7079C90.8759 32.9145 91.0416 33.1597 91.1577 33.4437C91.2739 33.7276 91.332 34.0396 91.332 34.3795C91.332 34.715 91.2739 35.027 91.1577 35.3152C91.0416 35.6035 90.8781 35.8531 90.6673 36.0639C90.4564 36.2747 90.2069 36.4403 89.9186 36.5608C89.6347 36.677 89.3227 36.7351 88.9828 36.7351C88.6472 36.7351 88.3353 36.677 88.047 36.5608C87.7588 36.4403 87.5092 36.2747 87.2984 36.0639C87.0919 35.8531 86.9306 35.6035 86.8144 35.3152C86.6982 35.027 86.6401 34.715 86.6401 34.3795Z" fill="white"/>
<path d="M76.0676 36.6348V35.9636H78.3457V36.6348H76.0676ZM76.0676 32.7884V32.1172H78.3457V32.7884H76.0676ZM76.0676 34.5438V33.8855H78.2166V34.5438H76.0676ZM75.5964 32.1172H76.3451V36.6348H75.5964V32.1172Z" fill="white"/>
<path d="M69.6516 32.1172H70.4132V35.9507H72.2073V36.6348H69.6516V32.1172Z" fill="white"/>
<path d="M63.1072 32.8206V32.1172H66.2566V32.8206H65.0627V36.6348H64.2947V32.8206H63.1072Z" fill="white"/>
<path d="M56.8167 32.8206V32.1172H59.9661V32.8206H58.7721V36.6348H58.0041V32.8206H56.8167Z" fill="white"/>
<path d="M50.9739 35.4746L51.1159 34.8292H53.2133L53.3618 35.4746H50.9739ZM52.1549 33.3965L51.445 35.0551L51.4321 35.2229L50.8061 36.6362H49.9478L52.1549 31.8669L54.3621 36.6362H53.5037L52.8906 35.2616L52.8713 35.0744L52.1549 33.3965Z" fill="white"/>
<path d="M44.3933 34.305V33.9307H45.1226C45.2646 33.9307 45.3894 33.907 45.4969 33.8597C45.6045 33.8124 45.6884 33.7457 45.7486 33.6596C45.8088 33.5693 45.839 33.4617 45.839 33.3369C45.839 33.1476 45.7723 33.0013 45.6389 32.8981C45.5055 32.7948 45.3334 32.7432 45.1226 32.7432H44.574V36.0088H45.2065C45.3786 36.0088 45.5313 35.9808 45.6647 35.9249C45.7981 35.8689 45.9035 35.785 45.9809 35.6732C46.0584 35.5613 46.0971 35.4215 46.0971 35.2537C46.0971 35.1332 46.0734 35.0278 46.0261 34.9375C45.9831 34.8428 45.9207 34.7654 45.839 34.7051C45.7615 34.6406 45.669 34.5954 45.5615 34.5696C45.4539 34.5395 45.3356 34.5244 45.2065 34.5244H44.3933V34.1049H45.2517C45.4711 34.1049 45.6776 34.1286 45.8712 34.1759C46.0648 34.2232 46.2369 34.2964 46.3875 34.3953C46.5424 34.4943 46.6629 34.6212 46.7489 34.7761C46.835 34.931 46.878 35.116 46.878 35.3311C46.878 35.628 46.807 35.8732 46.665 36.0669C46.5274 36.2605 46.3359 36.4046 46.0907 36.4993C45.8497 36.5896 45.5701 36.6348 45.2517 36.6348H43.8125V32.1172H45.1742C45.4582 32.1172 45.7077 32.1581 45.9229 32.2398C46.1423 32.3216 46.3122 32.4463 46.4327 32.6141C46.5575 32.7819 46.6199 32.9949 46.6199 33.253C46.6199 33.4768 46.5575 33.6682 46.4327 33.8274C46.3122 33.9823 46.1423 34.1006 45.9229 34.1824C45.7077 34.2641 45.4582 34.305 45.1742 34.305H44.3933Z" fill="white"/>
</svg>
