<svg width="219" height="40" viewBox="0 0 219 40" fill="none" xmlns="http://www.w3.org/2000/svg">
<circle cx="19.5217" cy="20.0528" r="19.3713" fill="#191B1F"/>
<path d="M26.1997 17.8396H23.1567L19.5913 11.0007L15.397 18.78H27.5317L19.6021 33.8933L12.9624 22.0613H15.6587L19.5845 29.0613L23.688 21.1042H11.5112L19.5093 6.21167L26.1997 17.8396ZM19.2856 22.0632L19.5796 23.0974L19.8599 22.0632H21.7749L19.5796 26.6013L17.2925 22.0632H19.2856ZM21.7749 17.8337H19.8599L19.5796 16.7996L19.2856 17.8337H17.2925L19.5796 13.2957L21.7749 17.8337Z" fill="white"/>
<path d="M136.214 16.5453L136.087 13.8361V1.03183H139.651V24.7375H139.174L125.491 9.3853L125.586 11.9654V15.8294H129.812V19.6738H122.022V0.999676H122.468L136.214 16.5453ZM157.437 16.5453L157.309 13.8361V1.03183H160.873V24.7375H160.396L146.713 9.3853L146.809 11.9654V15.8294H151.035V19.6738H143.245V0.999676H143.69L157.437 16.5453ZM193.398 5.64038H201.756V1.01801H205.371V24.7375H201.756V14.1946H193.398V24.7375H189.784V1.01801H193.398V5.64038ZM56.3625 0.681152C57.3808 0.681152 58.2505 0.787292 58.9718 0.999425C59.693 1.21155 60.2976 1.46611 60.7855 1.76308C61.2734 2.06007 61.6554 2.32529 61.9312 2.55864L60.2446 5.45424C59.884 5.07241 59.3431 4.72241 58.6219 4.40422C57.9006 4.06481 57.0945 3.89504 56.2035 3.89503C55.1641 3.89503 54.3366 4.13888 53.7214 4.62678C53.1062 5.09348 52.7987 5.79369 52.7987 6.72708C52.7988 7.55438 53.0744 8.26507 53.626 8.85903C54.1775 9.4318 54.8777 9.96198 55.7263 10.4499C56.596 10.9166 57.4869 11.3941 58.399 11.882C59.3112 12.3699 60.1173 12.9426 60.8174 13.6002C61.3901 14.1093 61.8781 14.7457 62.2811 15.5094C62.6842 16.273 62.8858 17.1323 62.8858 18.0869C62.8857 19.5294 62.5462 20.7492 61.8674 21.7462C61.2098 22.7432 60.3189 23.4964 59.1946 24.0055C58.0703 24.4934 56.7974 24.7373 55.3761 24.7373C54.4851 24.7373 53.6047 24.6314 52.7349 24.4192C51.8652 24.1859 51.0909 23.91 50.4121 23.5918C49.7333 23.2524 49.2242 22.913 48.8848 22.5737L50.5713 19.5507C50.8047 19.7416 51.1652 19.9962 51.653 20.3143C52.1621 20.6113 52.7455 20.8766 53.4031 21.1099C54.0607 21.3432 54.7185 21.4598 55.3761 21.4598C56.4579 21.4598 57.3595 21.2053 58.0808 20.6962C58.8232 20.1871 59.1946 19.4446 59.1946 18.4688C59.1946 17.6626 58.9823 16.9943 58.5581 16.4639C58.1338 15.9336 57.5717 15.467 56.8717 15.064C56.1929 14.6609 55.4504 14.2791 54.6443 13.9185C53.8594 13.5367 53.1063 13.1123 52.385 12.6456C51.5577 12.0941 50.8364 11.3621 50.2212 10.4499C49.606 9.53774 49.2985 8.36044 49.2985 6.91799C49.2985 5.4967 49.6167 4.32993 50.2531 3.41775C50.9107 2.50559 51.7698 1.82674 52.8304 1.38125C53.9123 0.914554 55.0897 0.681152 56.3625 0.681152ZM86.6191 24.7164H63.5949L75.107 1.06851L86.6191 24.7164ZM120.292 24.7164H97.2673L108.78 1.06851L120.292 24.7164ZM186.662 24.7164H163.637L175.15 1.06851L186.662 24.7164ZM133.413 24.6835H122.022V21.0747H133.413V24.6835ZM154.636 24.6835H143.245V21.0747H154.636V24.6835ZM92.2432 17.1007L99.2754 1.03158H103.285L92.4977 24.4195H92.0204L81.2016 1.03158H85.2427L92.2432 17.1007ZM69.3653 21.1076H80.8487L75.107 9.31295L69.3653 21.1076ZM103.038 21.1076H114.521L108.78 9.31295L103.038 21.1076ZM169.408 21.1076H180.891L175.15 9.31295L169.408 21.1076ZM92.349 5.91846L94.3641 0.716823H97.5707L92.5525 11.7019H92.1709L87.3277 0.716823H90.5597L92.349 5.91846ZM193.398 9.24915V10.5858H201.756V9.24915H193.398Z" fill="#191B1F"/>
<path d="M200.18 36.9966C200.323 37.2456 200.476 37.4666 200.638 37.6596C200.806 37.8463 200.989 37.9926 201.189 38.0984C201.388 38.198 201.612 38.2478 201.861 38.2478C202.16 38.2478 202.402 38.1669 202.589 38.0051C202.776 37.8432 202.869 37.6347 202.869 37.3795C202.869 37.1367 202.81 36.9437 202.692 36.8006C202.574 36.6512 202.409 36.5267 202.197 36.4271C201.992 36.3212 201.752 36.2185 201.478 36.1189C201.316 36.0629 201.136 35.9882 200.936 35.8948C200.737 35.7952 200.547 35.6738 200.367 35.5307C200.186 35.3813 200.037 35.2007 199.919 34.9891C199.8 34.7712 199.741 34.5098 199.741 34.2048C199.741 33.8562 199.832 33.5511 200.012 33.2897C200.193 33.022 200.435 32.8166 200.74 32.6734C201.052 32.524 201.403 32.4493 201.795 32.4493C202.181 32.4493 202.518 32.5178 202.804 32.6548C203.09 32.7917 203.33 32.966 203.523 33.1777C203.722 33.3893 203.878 33.6103 203.99 33.8406L203.093 34.3448C203.012 34.183 202.91 34.0336 202.785 33.8966C202.661 33.7535 202.514 33.6414 202.346 33.5605C202.185 33.4733 201.995 33.4298 201.777 33.4298C201.472 33.4298 201.248 33.5013 201.104 33.6445C200.961 33.7815 200.89 33.9433 200.89 34.1301C200.89 34.2981 200.94 34.4506 201.039 34.5876C201.145 34.7183 201.307 34.8428 201.525 34.9611C201.743 35.0794 202.026 35.2007 202.374 35.3252C202.567 35.3937 202.76 35.4809 202.953 35.5867C203.152 35.6925 203.333 35.8264 203.495 35.9882C203.657 36.1438 203.784 36.3275 203.878 36.5391C203.977 36.7508 204.027 36.9997 204.027 37.2861C204.027 37.5911 203.968 37.865 203.85 38.1078C203.731 38.3506 203.57 38.556 203.364 38.724C203.159 38.8859 202.925 39.0104 202.664 39.0975C202.409 39.1909 202.141 39.2376 201.861 39.2376C201.475 39.2376 201.117 39.1629 200.787 39.0135C200.463 38.8579 200.18 38.6525 199.937 38.3972C199.695 38.142 199.502 37.865 199.358 37.5662L200.18 36.9966Z" fill="#191B1F"/>
<path d="M189.095 32.5613H190.216V39.0974H189.095V32.5613ZM191.205 39.0974H189.777V38.061H191.177C191.501 38.061 191.8 38.0143 192.074 37.9209C192.348 37.8276 192.584 37.6875 192.783 37.5007C192.989 37.314 193.148 37.0806 193.26 36.8004C193.378 36.5203 193.437 36.1966 193.437 35.8294C193.437 35.4621 193.378 35.1384 193.26 34.8583C193.148 34.5781 192.989 34.3447 192.783 34.158C192.584 33.9712 192.348 33.8312 192.074 33.7378C191.8 33.6444 191.501 33.5977 191.177 33.5977H189.777V32.5613H191.205C191.872 32.5613 192.457 32.6982 192.961 32.9721C193.465 33.2398 193.857 33.6195 194.137 34.1113C194.424 34.5968 194.567 35.1695 194.567 35.8294C194.567 36.4892 194.424 37.065 194.137 37.5568C193.857 38.0423 193.465 38.422 192.961 38.6959C192.457 38.9636 191.872 39.0974 191.205 39.0974Z" fill="#191B1F"/>
<path d="M182.454 32.5611H183.538V39.424L178.766 34.7087V39.0972H177.683V32.2343L182.454 36.9496V32.5611Z" fill="#191B1F"/>
<path d="M168.921 39.0974V38.1263H172.217V39.0974H168.921ZM168.921 33.5324V32.5613H172.217V33.5324H168.921ZM168.921 36.0721V35.1197H172.031V36.0721H168.921ZM168.24 32.5613H169.323V39.0974H168.24V32.5613Z" fill="#191B1F"/>
<path d="M159.855 36.6138V35.6801H163.002C163.014 36.1594 162.952 36.6138 162.815 37.0433C162.678 37.4666 162.472 37.8432 162.199 38.1731C161.925 38.5031 161.582 38.7645 161.171 38.9575C160.767 39.1442 160.306 39.2376 159.79 39.2376C159.298 39.2376 158.843 39.1567 158.426 38.9948C158.009 38.8268 157.645 38.5902 157.334 38.2852C157.029 37.9802 156.792 37.6191 156.624 37.2021C156.456 36.785 156.372 36.3275 156.372 35.8295C156.372 35.3315 156.456 34.8771 156.624 34.4662C156.798 34.0491 157.038 33.6912 157.343 33.3924C157.654 33.0874 158.019 32.854 158.436 32.6921C158.859 32.5303 159.316 32.4493 159.808 32.4493C160.238 32.4493 160.627 32.5085 160.975 32.6268C161.324 32.7388 161.635 32.9038 161.909 33.1216C162.189 33.3333 162.426 33.5916 162.619 33.8966L161.722 34.4942C161.542 34.183 161.29 33.934 160.966 33.7472C160.649 33.5605 160.263 33.4671 159.808 33.4671C159.385 33.4671 159.002 33.5667 158.66 33.7659C158.317 33.9589 158.043 34.2328 157.838 34.5876C157.633 34.9362 157.53 35.3501 157.53 35.8295C157.53 36.3026 157.629 36.7196 157.829 37.0807C158.034 37.4355 158.308 37.7125 158.65 37.9117C158.993 38.1109 159.379 38.2105 159.808 38.2105C160.101 38.2105 160.362 38.17 160.593 38.0891C160.823 38.0082 161.022 37.893 161.19 37.7436C161.358 37.5942 161.498 37.423 161.61 37.2301C161.722 37.0371 161.806 36.8317 161.862 36.6138H159.855Z" fill="#191B1F"/>
<path d="M147.984 39.0974V38.1263H151.28V39.0974H147.984ZM147.984 33.5324V32.5613H151.28V33.5324H147.984ZM147.984 36.0721V35.1197H151.094V36.0721H147.984ZM147.303 32.5613H148.386V39.0974H147.303V32.5613Z" fill="#191B1F"/>
<path d="M138.699 32.5613H139.801V38.1077H142.396V39.0974H138.699V32.5613Z" fill="#191B1F"/>
<path d="M123.495 33.551V32.5613H126.417V33.551H123.495ZM123.495 36.1468V35.1851H126.324V36.1468H123.495ZM122.813 32.5613H123.896V39.0974H122.813V32.5613Z" fill="#191B1F"/>
<path d="M112.012 35.8295C112.012 36.2777 112.105 36.6792 112.292 37.034C112.485 37.3826 112.75 37.6565 113.086 37.8557C113.422 38.0549 113.805 38.1545 114.234 38.1545C114.67 38.1545 115.053 38.0549 115.383 37.8557C115.719 37.6565 115.98 37.3826 116.167 37.034C116.36 36.6792 116.456 36.2777 116.456 35.8295C116.456 35.3813 116.363 34.9829 116.176 34.6343C115.99 34.2795 115.728 34.0025 115.392 33.8033C115.062 33.6041 114.676 33.5045 114.234 33.5045C113.805 33.5045 113.422 33.6041 113.086 33.8033C112.75 34.0025 112.485 34.2795 112.292 34.6343C112.105 34.9829 112.012 35.3813 112.012 35.8295ZM110.845 35.8295C110.845 35.3377 110.929 34.8864 111.097 34.4755C111.265 34.0647 111.501 33.7099 111.806 33.4111C112.118 33.1061 112.479 32.8695 112.89 32.7014C113.307 32.5334 113.755 32.4493 114.234 32.4493C114.726 32.4493 115.177 32.5334 115.588 32.7014C115.999 32.8695 116.357 33.1061 116.662 33.4111C116.973 33.7099 117.213 34.0647 117.381 34.4755C117.549 34.8864 117.633 35.3377 117.633 35.8295C117.633 36.315 117.549 36.7663 117.381 37.1834C117.213 37.6005 116.976 37.9615 116.671 38.2665C116.366 38.5715 116.005 38.8112 115.588 38.9855C115.177 39.1536 114.726 39.2376 114.234 39.2376C113.749 39.2376 113.297 39.1536 112.88 38.9855C112.463 38.8112 112.102 38.5715 111.797 38.2665C111.498 37.9615 111.265 37.6005 111.097 37.1834C110.929 36.7663 110.845 36.315 110.845 35.8295Z" fill="#191B1F"/>
<path d="M95.5503 39.0974V38.1263H98.8464V39.0974H95.5503ZM95.5503 33.5324V32.5613H98.8464V33.5324H95.5503ZM95.5503 36.0721V35.1197H98.6596V36.0721H95.5503ZM94.8687 32.5613H95.9518V39.0974H94.8687V32.5613Z" fill="#191B1F"/>
<path d="M86.2642 32.5613H87.366V38.1077H89.9618V39.0974H86.2642V32.5613Z" fill="#191B1F"/>
<path d="M76.7969 33.5791V32.5613H81.3535V33.5791H79.6261V39.0974H78.5149V33.5791H76.7969Z" fill="#191B1F"/>
<path d="M67.7007 33.5791V32.5613H72.2573V33.5791H70.5299V39.0974H69.4188V33.5791H67.7007Z" fill="#191B1F"/>
<path d="M59.2395 37.4167L59.4449 36.483H62.4796L62.6943 37.4167H59.2395ZM60.9483 34.4101L59.9212 36.8098L59.9025 37.0526L58.9968 39.0975H57.7549L60.9483 32.1971L64.1416 39.0975H62.8998L62.0127 37.1086L61.9847 36.8378L60.9483 34.4101Z" fill="#191B1F"/>
<path d="M49.7251 35.7266V35.1851H50.7803C50.9857 35.1851 51.1662 35.1508 51.3218 35.0824C51.4774 35.0139 51.5988 34.9174 51.686 34.7929C51.7731 34.6622 51.8167 34.5066 51.8167 34.326C51.8167 34.0521 51.7202 33.8405 51.5272 33.6911C51.3343 33.5417 51.0853 33.467 50.7803 33.467H49.9866V38.1917H50.9016C51.1506 38.1917 51.3716 38.1512 51.5646 38.0703C51.7576 37.9894 51.9101 37.868 52.0221 37.7062C52.1342 37.5443 52.1902 37.342 52.1902 37.0992C52.1902 36.9249 52.156 36.7724 52.0875 36.6417C52.0252 36.5048 51.935 36.3927 51.8167 36.3056C51.7046 36.2122 51.5708 36.1468 51.4152 36.1095C51.2596 36.0659 51.0884 36.0441 50.9016 36.0441H49.7251V35.4372H50.967C51.2845 35.4372 51.5833 35.4714 51.8634 35.5399C52.1435 35.6084 52.3925 35.7142 52.6104 35.8574C52.8345 36.0005 53.0088 36.1842 53.1333 36.4083C53.2578 36.6324 53.32 36.9 53.32 37.2113C53.32 37.6408 53.2173 37.9956 53.0119 38.2757C52.8127 38.5559 52.5357 38.7644 52.1809 38.9013C51.8323 39.0321 51.4276 39.0974 50.967 39.0974H48.8848V32.5613H50.8549C51.2658 32.5613 51.6268 32.6204 51.9381 32.7387C52.2556 32.857 52.5014 33.0375 52.6757 33.2803C52.8563 33.523 52.9465 33.8312 52.9465 34.2047C52.9465 34.5283 52.8563 34.8054 52.6757 35.0357C52.5014 35.2598 52.2556 35.431 51.9381 35.5492C51.6268 35.6675 51.2658 35.7266 50.8549 35.7266H49.7251Z" fill="#191B1F"/>
</svg>
