<svg width="88" height="68" viewBox="0 0 88 68" fill="none" xmlns="http://www.w3.org/2000/svg">
<g clip-path="url(#clip0_0_2066)">
<path d="M15.8746 66.9534V62.5189C15.8746 60.8186 14.83 59.7103 13.0393 59.7103C12.1442 59.7103 11.1743 60.0059 10.5027 60.9668C9.98072 60.1537 9.23477 59.7103 8.11566 59.7103C7.36936 59.7103 6.62375 59.9318 6.02664 60.7449V59.8581H4.45996V66.9534H6.02664V63.036C6.02664 61.7799 6.69817 61.1883 7.74285 61.1883C8.78685 61.1883 9.30953 61.8536 9.30953 63.036V66.9534H10.8762V63.036C10.8762 61.7799 11.6218 61.1883 12.5917 61.1883C13.6364 61.1883 14.1584 61.8536 14.1584 63.036V66.9534H15.8746ZM39.0761 59.8581H36.5399V57.7148H34.9732V59.8581H33.5557V61.2621H34.9728V64.5144C34.9728 66.1406 35.6444 67.1012 37.435 67.1012C38.1065 67.1012 38.8522 66.8796 39.3748 66.584L38.9269 65.2534C38.4793 65.549 37.9573 65.6231 37.5842 65.6231C36.8382 65.6231 36.5399 65.1797 36.5399 64.4403V61.2621H39.0761V59.8581ZM52.3558 59.7099C51.4607 59.7099 50.8639 60.1537 50.4908 60.7449V59.8581H48.9241V66.9534H50.4908V62.9623C50.4908 61.7799 51.0128 61.1146 51.9827 61.1146C52.2811 61.1146 52.6542 61.1887 52.9526 61.2624L53.4002 59.7844C53.1018 59.7103 52.6542 59.7103 52.3558 59.7103M32.2874 60.4496C31.5411 59.9322 30.4967 59.7106 29.3776 59.7106C27.5873 59.7106 26.3938 60.5974 26.3938 62.0017C26.3938 63.1845 27.289 63.8495 28.8556 64.0713L29.6016 64.1454C30.4223 64.2929 30.8699 64.5148 30.8699 64.8844C30.8699 65.4016 30.2731 65.7713 29.2285 65.7713C28.1838 65.7713 27.3634 65.4016 26.841 65.0322L26.0951 66.2147C26.9158 66.8059 28.0349 67.1015 29.1537 67.1015C31.2427 67.1015 32.4366 66.1409 32.4366 64.8104C32.4366 63.5539 31.4667 62.8886 29.9744 62.667L29.2285 62.593C28.5569 62.5189 28.0349 62.3714 28.0349 61.928C28.0349 61.4105 28.5569 61.1149 29.3776 61.1149C30.2731 61.1149 31.1683 61.4843 31.6159 61.7061L32.2874 60.4496ZM73.9165 59.7106C73.0211 59.7106 72.4243 60.154 72.0511 60.7452V59.8584H70.4845V66.9537H72.0511V62.9626C72.0511 61.7802 72.5735 61.1149 73.5431 61.1149C73.8418 61.1149 74.2149 61.189 74.5133 61.2627L74.9609 59.7847C74.6625 59.7106 74.2149 59.7106 73.9165 59.7106ZM53.9225 63.4061C53.9225 65.5494 55.4144 67.1015 57.7274 67.1015C58.7717 67.1015 59.5177 66.88 60.2637 66.2887L59.5177 65.0322C58.9209 65.4756 58.3242 65.6972 57.6526 65.6972C56.3844 65.6972 55.4892 64.8104 55.4892 63.4061C55.4892 62.0758 56.3844 61.1887 57.6526 61.1149C58.3242 61.1149 58.9209 61.3365 59.5177 61.7802L60.2637 60.5237C59.5177 59.9322 58.7717 59.7106 57.7274 59.7106C55.4144 59.7106 53.9225 61.2627 53.9225 63.4061ZM68.3958 63.4061V59.8584H66.8291V60.7452C66.3068 60.0803 65.5608 59.7106 64.5909 59.7106C62.5766 59.7106 61.01 61.2627 61.01 63.4061C61.01 65.5494 62.5766 67.1015 64.5909 67.1015C65.6352 67.1015 66.3815 66.7322 66.8291 66.0669V66.9537H68.3958V63.4061ZM62.6511 63.4061C62.6511 62.1496 63.4718 61.1149 64.8145 61.1149C66.0828 61.1149 66.9783 62.0758 66.9783 63.4061C66.9783 64.6626 66.0828 65.6972 64.8145 65.6972C63.4718 65.6231 62.6511 64.6626 62.6511 63.4061ZM43.9257 59.7106C41.8367 59.7106 40.3444 61.1887 40.3444 63.4061C40.3444 65.6235 41.8363 67.1015 44.0001 67.1015C45.0444 67.1015 46.0891 66.8059 46.9098 66.1409L46.1635 65.0322C45.5668 65.4756 44.8208 65.7713 44.0749 65.7713C43.105 65.7713 42.135 65.3278 41.9111 64.071H47.2082V63.4801C47.283 61.1887 45.9403 59.7106 43.9257 59.7106ZM43.9253 61.0409C44.8949 61.0409 45.5668 61.6324 45.7156 62.7411H41.9855C42.1347 61.7802 42.8062 61.0409 43.9253 61.0409ZM82.7939 63.4061V57.0498H81.2273V60.7452C80.7049 60.0803 79.959 59.7106 78.9891 59.7106C76.9748 59.7106 75.4081 61.2627 75.4081 63.4061C75.4081 65.5494 76.9748 67.1015 78.9891 67.1015C80.0337 67.1015 80.7797 66.7322 81.2273 66.0669V66.9537H82.7939V63.4061ZM77.0496 63.4061C77.0496 62.1496 77.8699 61.1149 79.213 61.1149C80.4813 61.1149 81.3765 62.0758 81.3765 63.4061C81.3765 64.6626 80.4813 65.6972 79.213 65.6972C77.8699 65.6231 77.0496 64.6626 77.0496 63.4061ZM24.6773 63.4061V59.8584H23.1106V60.7452C22.5882 60.0803 21.8423 59.7106 20.8724 59.7106C18.8581 59.7106 17.2914 61.2627 17.2914 63.4061C17.2914 65.5494 18.8581 67.1015 20.8724 67.1015C21.9171 67.1015 22.663 66.7322 23.1106 66.0669V66.9537H24.6773V63.4061ZM18.8581 63.4061C18.8581 62.1496 19.6788 61.1149 21.0216 61.1149C22.2899 61.1149 23.1854 62.0758 23.1854 63.4061C23.1854 64.6626 22.2899 65.6972 21.0216 65.6972C19.6788 65.6231 18.8581 64.6626 18.8581 63.4061Z" fill="white"/>
<path d="M31.7646 5.97656H55.2648V47.8098H31.7646V5.97656Z" fill="#FF5F00"/>
<path d="M33.2566 26.8939C33.2566 18.3943 37.2851 10.8553 43.4771 5.97709C38.9266 2.42946 33.1822 0.286133 26.9155 0.286133C12.0687 0.286133 0.0576172 12.1855 0.0576172 26.8939C0.0576172 41.6022 12.0687 53.5016 26.9151 53.5016C33.1818 53.5016 38.9262 51.3583 43.4771 47.8103C37.2851 43.0062 33.2566 35.3935 33.2566 26.8939Z" fill="#EB001B"/>
<path d="M86.9732 26.8939C86.9732 41.6019 74.9621 53.5016 60.1157 53.5016C53.8489 53.5016 48.1046 51.3583 43.5537 47.8103C49.8204 42.9325 53.7745 35.3935 53.7745 26.8939C53.7745 18.3943 49.7457 10.8553 43.5537 5.97709C48.1042 2.42946 53.8489 0.286133 60.1157 0.286133C74.9621 0.286133 86.9732 12.2596 86.9732 26.8939Z" fill="#F79E1B"/>
</g>
<defs>
<clipPath id="clip0_0_2066">
<rect width="87" height="67" fill="white" transform="translate(0.0576172 0.286133)"/>
</clipPath>
</defs>
</svg>
