<svg width="53" height="53" viewBox="0 0 53 53" fill="none" xmlns="http://www.w3.org/2000/svg">
<path fill-rule="evenodd" clip-rule="evenodd" d="M24.9691 0.0976845C21.6838 0.277168 18.0154 1.25415 14.9563 2.76421C12.3488 4.05121 10.3654 5.42104 8.40848 7.28632C4.01732 11.4716 1.35028 16.6244 0.38886 22.7807C0.139068 24.38 0.112143 28.0531 0.33779 29.7393C1.34242 37.2465 5.26705 43.7825 11.3275 48.0414C14.9334 50.5755 18.8581 52.0913 23.3341 52.6787C24.7997 52.8711 28.2011 52.8696 29.716 52.6761C31.7902 52.4111 33.5164 51.9996 35.3786 51.3262C43.3988 48.4258 49.4556 41.9467 51.8445 33.7125C52.253 32.3045 52.6418 30.2637 52.7249 29.0924C52.7579 28.6263 52.8215 28.2222 52.8661 28.1946C52.9109 28.1669 52.9474 27.3452 52.9474 26.3686C52.9474 25.2093 52.9141 24.6135 52.8516 24.6523C52.7929 24.6886 52.7557 24.5389 52.7557 24.2667C52.7557 24.0219 52.6661 23.2311 52.5564 22.5094C51.6444 16.5055 48.6348 10.9285 44.095 6.82993C38.9217 2.15924 31.9769 -0.285277 24.9691 0.0976845ZM24.5088 2.42453L24.0005 2.48087L24.4307 2.90261L24.8607 3.32435L25.1659 3.06712C25.3337 2.92565 25.606 2.73877 25.771 2.65181L26.0709 2.49393L25.8314 2.42492C25.555 2.34545 25.2232 2.34535 24.5088 2.42453ZM27.7678 2.61736C28.5581 3.01884 29.9057 3.84562 30.0463 4.01521C30.1125 4.09517 30.2842 4.16053 30.4279 4.16053C30.714 4.16053 31.3747 4.59484 31.6181 4.94296C31.8224 5.23503 31.8093 5.55675 31.5718 6.08013C31.3888 6.48354 31.3867 6.51838 31.5398 6.60802C31.8375 6.78232 32.204 7.11874 32.1527 7.17037C32.1248 7.1983 31.7986 7.14139 31.4276 7.04378C31.0567 6.94626 30.4219 6.81064 30.0169 6.74249C29.6121 6.67435 29.2808 6.58384 29.2808 6.54132C29.2808 6.4988 29.5311 6.46405 29.8369 6.46405C30.3399 6.46405 30.4211 6.4343 30.6877 6.15212C31.2032 5.60657 31.2388 5.45789 30.9352 5.11851C30.5472 4.68477 30.0774 4.6077 29.2957 4.84957C28.4881 5.09941 27.2649 5.66588 26.5664 6.11344C26.12 6.39956 25.9293 6.46405 25.5303 6.46405C25.1134 6.46405 25.0585 6.44351 25.157 6.3244C25.2207 6.24762 25.4632 6.07303 25.6958 5.93645C25.9285 5.79987 26.1181 5.65753 26.1172 5.6202C26.1163 5.58286 25.8684 5.26718 25.5663 4.91868C25.2642 4.57027 24.8177 4.05197 24.5741 3.76691C24.3305 3.48195 23.89 3.10398 23.5951 2.92699L23.0591 2.60526L22.0839 2.81441C21.5476 2.92949 20.8454 3.10571 20.5237 3.206C19.9738 3.37752 19.9114 3.42849 19.4829 4.05601C19.034 4.71337 18.3577 6.29043 18.3577 6.67982C18.3577 6.91555 18.8044 7.7118 18.9367 7.7118C18.9872 7.7118 19.0285 7.74971 19.0285 7.79616C19.0285 7.92794 18.4544 8.13545 18.3604 8.03755C18.1558 7.82467 17.7828 6.98532 17.7828 6.73769C17.7828 6.58249 17.731 6.46425 17.6631 6.46453C17.476 6.46521 15.1958 7.59595 15.1958 7.68799C15.1958 7.7331 15.4921 7.86556 15.8543 7.98237C16.4617 8.17845 17.0163 8.54356 17.0163 8.74762C17.0163 8.79445 16.9057 8.88324 16.7706 8.94486C16.575 9.03421 16.498 9.02989 16.3919 8.92364C16.2121 8.74358 14.8506 8.25245 14.6962 8.31206C14.6285 8.33816 14.425 8.75712 14.2442 9.24297C13.9686 9.98307 13.9376 10.1405 14.0525 10.2133C14.1279 10.2612 14.2472 10.301 14.3175 10.3018C14.5099 10.304 14.3978 10.5253 14.1266 10.6785C13.913 10.7991 13.7898 10.7863 12.9845 10.5604C12.488 10.421 11.903 10.2798 11.6845 10.2465C11.3 10.1879 11.2852 10.1956 11.2217 10.4846C11.1315 10.8964 11.2436 11.3315 11.4835 11.4999C11.594 11.5774 11.914 11.6923 12.1946 11.7552C12.475 11.818 12.7046 11.8991 12.7046 11.9353C12.7046 11.9715 12.6201 12.0778 12.5167 12.1714C12.37 12.3045 12.2381 12.3282 11.9148 12.2796C11.0512 12.1498 10.5799 11.6216 10.567 10.7688C10.5615 10.3974 10.6194 10.2261 10.8685 9.87884C11.038 9.64234 11.2364 9.27935 11.3093 9.07222C11.4659 8.62793 12.1938 7.14839 12.3537 6.94952C12.5184 6.7448 12.3076 6.88032 11.4466 7.5327C10.085 8.56458 9.7822 8.91549 9.55339 9.72738C9.28779 10.6692 9.29497 10.8564 9.65879 12.4806L9.96645 13.8545H10.3774C10.6577 13.8545 10.7883 13.8955 10.7883 13.9836C10.7883 14.2494 10.4353 14.4073 9.61002 14.5108C8.61343 14.6359 8.54914 14.6648 8.68817 14.9251C8.90385 15.3288 8.73042 15.5403 7.9134 15.8703C7.49056 16.041 7.12186 16.2176 7.09408 16.2626C7.03218 16.363 7.263 16.82 7.689 17.4404C8.08232 18.0131 8.12055 18.5159 7.79401 18.8226C7.5424 19.0589 6.34613 19.5169 5.34572 19.7597L4.64616 19.9296L4.675 20.2754C4.70116 20.5877 4.75568 20.6483 5.24032 20.9024L5.77679 21.1836L6.00685 20.9631C6.43093 20.5566 7.34866 20.3033 7.33218 20.5971C7.31742 20.86 7.17236 21.0861 7.00238 21.1111C6.29497 21.2151 6.2027 21.3723 6.72145 21.5894C7.00755 21.7091 7.05172 21.766 6.99701 21.9444C6.90244 22.2527 6.91739 22.2513 6.26325 22.0157C5.28583 21.6637 4.35958 21.1389 4.17283 20.8312C3.84974 20.2991 3.84955 19.9466 4.17197 19.3821C4.62997 18.5802 4.51451 17.9453 3.82809 17.492C3.32524 17.1599 3.2826 17.2085 2.84511 18.6085C2.25162 20.5076 2.25335 20.452 2.76711 21.1732C3.57532 22.3078 4.42358 22.8793 5.85785 23.2556C6.26756 23.3631 6.61701 23.4653 6.63445 23.4828C6.65179 23.5002 6.62438 24.0512 6.57351 24.7072C6.52253 25.3632 6.47989 25.9757 6.47874 26.068C6.4775 26.1604 6.43745 26.236 6.38973 26.236C6.26172 26.236 4.27277 27.1959 4.27277 27.2577C4.27277 27.3488 5.19471 28.1454 5.71518 28.5041C6.22876 28.858 6.37555 28.8393 6.37929 28.4195C6.38005 28.3272 6.42078 28.2516 6.46964 28.2516C6.58817 28.2516 6.70659 29.2371 6.6264 29.5568C6.5851 29.722 6.61231 29.8644 6.70497 29.9669C6.78306 30.0534 6.87638 30.3464 6.91241 30.6182C6.97191 31.0672 6.95811 31.1229 6.76131 31.2284L6.54476 31.3444L6.84601 31.5806C7.23454 31.8852 7.25418 32.2805 6.89478 32.5637C6.56325 32.8249 6.17223 32.8157 5.83716 32.5388C5.68816 32.4157 5.30078 32.136 4.97635 31.9173C4.14964 31.3604 3.98532 31.1238 3.98532 30.4911C3.98532 29.9208 4.15376 29.4338 4.51528 28.959C4.6454 28.7881 4.75185 28.603 4.75185 28.5476C4.75185 28.4921 4.47896 28.2319 4.14543 27.9694C3.55204 27.5023 3.53326 27.4733 3.27321 26.624C3.127 26.1466 2.97954 25.7581 2.94543 25.7605C2.91132 25.763 2.58554 26.039 2.22144 26.3741L1.55954 26.9832L2.01611 27.6061C2.26724 27.9487 2.66219 28.3628 2.89369 28.5263C3.12518 28.6897 3.31461 28.8833 3.31461 28.9565C3.31461 29.1987 2.91917 29.5982 2.4377 29.8426C2.08519 30.0215 1.97577 30.1258 2.01285 30.2474C2.04035 30.3374 2.12907 30.6703 2.21023 30.987C2.29129 31.3037 2.44699 31.8324 2.55613 32.1618C2.78321 32.8467 2.64303 32.7551 4.71113 33.5707L6.05974 34.1026L6.89257 33.8021C7.35058 33.6369 7.74812 33.5245 7.776 33.5524C7.80379 33.5803 7.8354 33.7271 7.84623 33.8786C7.86242 34.1063 7.82419 34.16 7.62633 34.1877C7.49459 34.2061 7.13422 34.3274 6.8255 34.4573C6.3378 34.6625 6.20615 34.681 5.82068 34.5986C5.57673 34.5465 5.36383 34.5172 5.34763 34.5334C5.33135 34.5496 5.36737 34.7589 5.42764 34.9985L5.53706 35.4341L6.6057 35.4803C8.17153 35.5483 8.39286 35.6056 8.39286 35.9428C8.39286 36.0493 8.22269 36.5758 8.01468 37.1129C7.80666 37.6501 7.62346 38.1498 7.60746 38.2234C7.58897 38.3086 7.78069 38.4373 8.13464 38.5774C8.64352 38.7789 8.69564 38.7838 8.74719 38.6356C9.08935 37.6524 9.38676 36.9832 9.4524 37.0489C9.60628 37.2031 10.3952 38.3712 10.3656 38.401C10.3491 38.4174 10.2192 38.3864 10.0767 38.3322C9.65342 38.1709 9.56776 38.2127 9.41781 38.6535C9.27907 39.0613 9.28165 39.0802 9.50759 39.3066C9.86489 39.6645 9.89191 40.1097 9.60034 40.8396C9.46323 41.183 9.35102 41.498 9.35102 41.5396C9.35102 41.5811 9.64144 41.584 9.99644 41.546C10.6222 41.4788 11.2965 41.2044 11.9833 40.7373L12.2681 40.5437L12.4863 40.7491C12.6064 40.862 12.7046 40.9883 12.7046 41.0299C12.7046 41.0714 12.2548 41.3293 11.7051 41.603C10.8382 42.0347 10.6107 42.1068 9.99041 42.1467C9.58175 42.1729 9.06339 42.1417 8.78092 42.0739C8.50909 42.0085 8.26658 41.9753 8.24186 42C8.21723 42.0246 8.48236 42.3535 8.83093 42.7307C9.45987 43.4112 9.46859 43.4164 9.95888 43.4149C10.2306 43.4141 10.8583 43.3278 11.3538 43.2229C11.8492 43.1182 12.3495 43.0325 12.4654 43.0325C12.6092 43.0325 12.8202 42.849 13.128 42.4566C13.3764 42.1399 13.6132 41.8808 13.6542 41.8808C13.6953 41.8808 13.8055 41.9656 13.8992 42.0693C14.0641 42.2519 14.0566 42.2733 13.6604 42.7475L13.2512 43.237L13.4614 43.6118C13.5771 43.8178 13.7032 44.1714 13.7416 44.3974C13.8092 44.7946 13.8303 44.8151 14.3839 45.0185C15.2163 45.3242 15.2432 45.3169 15.2463 44.7839C15.2481 44.4593 15.3265 44.1972 15.5189 43.8724L15.7889 43.4164L16.0673 43.5811C16.3332 43.7385 16.4336 43.8963 16.2675 43.8963C16.1204 43.8963 15.8665 44.5745 15.8665 44.9674C15.8665 45.3052 15.9666 45.496 16.5821 46.3318C16.9757 46.8664 17.3658 47.4008 17.4489 47.5196C17.5455 47.6575 17.6987 47.7356 17.8729 47.7356C18.0229 47.7356 18.4769 47.8042 18.882 47.8881C19.2869 47.972 19.6438 48.0151 19.675 47.9838C19.7213 47.9373 18.6895 46.7854 18.0771 46.1999C17.4201 45.5716 17.256 45.1044 17.5464 44.689C17.6753 44.5046 17.7246 44.4927 17.9536 44.5911C18.3274 44.7518 18.3292 44.7565 18.0864 44.9399L17.8658 45.1067L19.1304 46.4691C19.8259 47.2184 20.4495 47.8315 20.5162 47.8315C20.6784 47.8315 21.2322 47.1918 21.2322 47.0045C21.2322 46.9229 21.0795 46.595 20.8928 46.276C20.7062 45.957 20.5699 45.6796 20.5899 45.6596C20.6583 45.591 21.2799 45.8402 21.3935 45.9818C21.4559 46.0596 21.5565 46.0925 21.6169 46.055C21.6775 46.0175 22.0769 46.0414 22.5047 46.1081C23.7202 46.2975 24.0293 46.7917 23.6525 47.943L23.4624 48.5237L23.8445 48.4625C24.4608 48.3638 24.552 48.2758 24.6181 47.7169C24.6509 47.4383 24.7585 47.1018 24.857 46.9691C25.1838 46.5284 25.4128 46.5999 26.5231 47.4896C27.085 47.9397 27.5848 48.38 27.6341 48.468C27.7167 48.616 27.7793 48.6128 28.4662 48.4258C28.8746 48.3146 29.2358 48.1963 29.2687 48.1629C29.3291 48.1017 28.2692 47.0729 27.8675 46.8027C27.5633 46.5981 27.5982 46.5156 28.0112 46.4633C28.2431 46.434 28.4269 46.4668 28.5295 46.5559C28.6685 46.6764 28.6994 46.6744 28.7746 46.5397C28.8219 46.4551 29.0239 46.3592 29.2235 46.3268L29.5864 46.2678L29.3778 46.6776L29.1691 47.0873L29.5124 47.4395C29.9581 47.8967 29.9772 48.2879 29.5705 48.6307C29.4137 48.7629 29.1442 48.9011 28.9717 48.9379C27.8854 49.1694 25.7456 50.0489 24.7808 50.6603C24.3578 50.9283 24.3555 50.9324 24.5891 51.0214C24.7191 51.071 25.6099 51.1357 26.5687 51.1653L28.3121 51.2191L29.012 50.5607C29.397 50.1986 30.2817 49.3414 30.978 48.6559L32.2439 47.4094L31.7206 46.8597C31.1305 46.2402 31.0564 45.9617 31.4606 45.883C31.6055 45.8548 31.7389 45.8728 31.7571 45.9229C31.7752 45.973 32.0231 46.2989 32.308 46.647C32.5929 46.9952 32.8267 47.3718 32.8274 47.4838C32.8285 47.6214 32.3 48.2097 31.1985 49.2972C30.3019 50.1824 29.5682 50.9313 29.5682 50.9613C29.5682 51.0342 30.2139 50.9278 31.1432 50.7016C31.8595 50.5273 31.9429 50.4787 32.5804 49.863C32.9527 49.5035 33.3902 49.1318 33.5528 49.037C33.7594 48.9165 33.9662 48.6268 34.2388 48.0763L34.6291 47.2881L34.2457 46.9265C33.8729 46.5748 33.4037 45.7364 33.4018 45.4184C33.4011 45.2878 33.855 45.0653 33.9222 45.1634C33.9329 45.1792 34.0189 45.4005 34.1132 45.6551C34.2905 46.1345 34.7108 46.5242 35.3254 46.7792C35.5727 46.8818 35.7376 46.8828 36.2157 46.7845C37.1844 46.5852 37.7126 46.1266 37.7126 45.4848C37.7126 45.182 37.6683 45.1816 37.082 45.4796C36.5893 45.73 36.0088 45.7893 35.6952 45.6211C35.4675 45.4991 35.2214 45.0386 35.2214 44.7347C35.2214 44.5684 35.314 44.4635 35.5681 44.3422L35.9149 44.1765L35.8498 44.5236C35.7109 45.2659 36.3203 45.3468 37.216 44.7051C37.2328 44.6931 37.1361 44.4652 37.0013 44.1987L36.7562 43.7141L36.9682 43.5653C37.0849 43.4834 37.2088 43.4164 37.2436 43.4164C37.2784 43.4164 37.4225 43.6531 37.5637 43.9424C37.8412 44.5105 38.2298 44.8817 38.9695 45.2849C39.3687 45.5026 39.5967 45.5498 40.4728 45.5961L41.5055 45.6507L42.3638 44.7181C43.1142 43.9027 43.2549 43.6931 43.4833 43.0491C43.8005 42.1552 43.8119 41.7688 43.5422 41.0446C43.3869 40.6275 43.1727 40.3258 42.6824 39.8339C42.0423 39.1914 42.0325 39.1741 42.1817 38.9461C42.2653 38.8181 42.3671 38.7134 42.4076 38.7134C42.4482 38.7134 42.7436 38.9942 43.064 39.3373C43.3844 39.6804 43.6689 39.9612 43.6962 39.9612C43.7234 39.9612 43.85 39.756 43.9775 39.5053C44.243 38.9827 44.5429 38.6744 44.9274 38.5285C45.2625 38.4013 45.5706 38.5218 46.4406 39.1205L47.0721 39.5551L47.4608 38.9183C48.046 37.9597 48.8273 36.5194 48.8273 36.3992C48.8273 36.3409 48.6116 35.9701 48.3479 35.5751C47.7611 34.6964 47.7177 34.5344 47.8399 33.6796C47.9558 32.869 47.8588 32.6026 47.328 32.274C47.0558 32.1056 46.8321 32.0548 46.3611 32.0548C45.7888 32.0548 45.7517 32.0417 45.8013 31.8569C45.8304 31.7479 45.855 31.5986 45.8556 31.525C45.8567 31.4181 45.9846 31.4031 46.491 31.4505C47.2164 31.5184 47.7729 31.7984 48.2393 32.3304C48.5751 32.7136 48.6196 33.0736 48.4318 33.8883C48.3154 34.3935 48.3585 34.5317 48.9011 35.3943L49.1375 35.7705L49.265 35.4669C49.3351 35.3 49.5897 34.5952 49.8309 33.9008L50.2694 32.6382L49.7214 31.9216C49.42 31.5275 48.8692 30.9478 48.4973 30.6336C47.8441 30.0815 47.8071 30.0643 47.406 30.1238C47.1776 30.1576 46.8219 30.1568 46.6156 30.1218C46.3003 30.0685 46.2402 30.0213 46.2402 29.8268C46.2402 29.6162 46.2813 29.5942 46.6954 29.584C46.9457 29.5776 47.1796 29.5766 47.2152 29.5815C47.2507 29.5865 47.4663 29.5338 47.6943 29.4645C48.3729 29.2581 49.2062 28.6575 50.0984 27.7315L50.9384 26.8599L50.919 25.6743C50.9031 24.6975 50.8733 24.4791 50.7498 24.4343C50.6673 24.4045 50.4197 24.2577 50.1994 24.1083C49.9791 23.9588 49.7776 23.8365 49.7516 23.8365C49.6895 23.8365 49.5241 24.367 49.4436 24.824C49.394 25.105 49.4294 25.2819 49.5994 25.6029C49.797 25.9761 49.8065 26.0492 49.693 26.3238C49.47 26.8631 48 27.9255 47.2901 28.0604C46.692 28.174 46.4319 28.0976 46.4319 27.8084C46.4319 27.6178 46.4802 27.5797 46.7221 27.5797C47.0176 27.5797 48.0205 27.1225 48.4313 26.8003C48.6432 26.6343 48.6464 26.6183 48.4792 26.5581C47.6999 26.2772 47.2951 26.0903 47.0068 25.8782C46.5445 25.538 46.4319 25.379 46.4319 25.0659C46.4319 24.7793 46.5925 24.6995 46.6846 24.9403C46.715 25.0194 46.7999 25.0842 46.8733 25.0842C46.9696 25.0842 47.0068 24.9505 47.0068 24.6043C47.0068 24.3404 46.9729 24.1244 46.9317 24.1244C46.8903 24.1244 46.7783 24.257 46.6827 24.419C46.4802 24.7625 46.4769 24.7612 46.394 24.3014C46.3353 23.9757 46.3739 23.8968 46.9299 23.2044C47.2594 22.794 47.7053 22.3338 47.9207 22.1818L48.3122 21.9054L48.1642 21.4223C48.0187 20.9474 48.0107 20.9401 47.691 20.992C47.2478 21.0641 46.7806 21.4005 46.4116 21.9131C46.1112 22.3306 46.1018 22.3354 46.0377 22.1051C45.8784 21.533 45.9347 21.3703 46.4079 21.0337C47.3158 20.3881 48.0631 20.2046 48.3758 20.5506C48.4599 20.6438 48.6882 21.1645 48.8829 21.7076C49.1814 22.5401 49.2914 22.7347 49.5831 22.9466C49.7735 23.085 50.0883 23.3201 50.2828 23.4693C50.4774 23.6184 50.6665 23.7405 50.7031 23.7405C50.7647 23.7405 50.7355 23.439 50.5914 22.5887C50.4985 22.04 49.9849 20.0954 49.8821 19.9029C49.8298 19.805 49.655 19.6959 49.4936 19.6604C49.0929 19.5722 48.444 18.9405 48.444 18.6385C48.444 18.4028 48.6864 18.0702 48.9769 17.9074C49.1091 17.8333 49.0681 17.6981 48.6693 16.8939L48.2092 15.9661H47.7594H47.3097L47.1665 16.422C46.8844 17.3203 46.8934 17.4132 47.3054 17.861C47.6663 18.2532 47.6763 18.2813 47.5454 18.5352C47.4287 18.7611 46.6841 19.2081 45.4639 19.7846C45.4064 19.8117 44.9946 18.8937 44.9946 18.7383C44.9946 18.6934 45.1455 18.7287 45.3299 18.8168C45.6576 18.9734 45.678 18.9708 46.2401 18.7016C46.5563 18.5502 46.8151 18.3978 46.8151 18.3628C46.8151 18.3279 46.4562 18.0796 46.0175 17.811C44.7691 17.0468 44.2281 16.584 44.2281 16.28C44.2281 16.1385 44.3882 15.6808 44.5839 15.2631L44.9396 14.5037L44.7273 14.3315C44.4588 14.1137 43.1929 13.6117 43.1133 13.6915C43.0805 13.7243 43.1024 13.9448 43.1619 14.1813C43.2902 14.6919 43.3038 15.2942 43.1869 15.2942C42.9692 15.2942 42.5989 14.4935 42.4453 13.6904C42.2624 12.7349 42.2965 12.4659 42.654 12.0402C42.9972 11.6316 42.9386 11.3357 42.4926 11.2253C41.7818 11.0494 41.1118 11.4877 40.9918 12.2069L40.9224 12.6229L40.7008 12.3227C40.5056 12.058 40.492 11.9836 40.5869 11.6955C40.7022 11.3457 41.2247 10.8275 41.6102 10.6807C42.1339 10.4812 43.3131 10.7863 45.1305 11.5915C45.4247 11.7218 45.6653 11.8031 45.6653 11.7723C45.6653 11.7044 44.7882 10.6241 44.2132 9.98375C43.8163 9.54195 43.7657 9.51632 43.1262 9.43503C42.3344 9.33434 40.7498 9.31975 40.0282 9.40662L39.5172 9.46804L39.2172 10.0776C39.0521 10.4129 38.894 10.6857 38.8658 10.684C38.8376 10.6822 38.7155 10.5981 38.5945 10.497L38.3745 10.3133L38.6546 9.71452L38.9346 9.1157L38.7169 8.48578C38.3356 7.38191 38.4817 7.48452 37.3922 7.55602C36.864 7.59077 36.42 7.63089 36.4058 7.64519C36.3914 7.65958 36.4445 7.85961 36.5236 8.08986C36.6499 8.45718 36.6359 9.05552 36.501 9.05552C36.303 9.05552 36.095 8.80991 36.0388 8.50958C36.0017 8.31196 35.9137 8.03842 35.843 7.90155C35.7336 7.68943 35.664 7.65862 35.3722 7.69279C35.0677 7.7284 35.0298 7.76353 35.0298 8.0102C35.0298 8.33452 34.984 8.34555 34.5986 8.11491C34.4405 8.02028 34.1278 7.88917 33.9039 7.82352C33.68 7.75777 33.4967 7.66918 33.4967 7.62657C33.4967 7.34928 34.7819 7.10827 36.8982 6.98878C37.4779 6.95605 38.0045 6.91295 38.0685 6.89299C38.2489 6.83665 37.3001 4.81348 37.0241 4.66586C36.6662 4.47448 36.5233 4.51421 35.3405 5.13377C33.6759 6.00575 33.1892 5.95258 32.8734 4.86445C32.7438 4.41776 32.6069 4.23299 31.9042 3.55652C31.4542 3.12327 31.0312 2.73791 30.9642 2.70009C30.764 2.58712 28.6525 2.33681 27.9105 2.33815L27.2207 2.3393L27.7678 2.61736ZM26.124 3.15523C25.7844 3.33817 25.4673 3.52706 25.4194 3.57505C25.3673 3.62726 25.5784 4.00542 25.9461 4.51834L26.5599 5.37449L26.9861 5.18675C27.2205 5.08347 27.8382 4.81617 28.3587 4.59273L29.305 4.18644L28.8857 3.89764C28.4387 3.58964 27.2515 2.96961 26.9333 2.87785C26.8139 2.84349 26.5089 2.94801 26.124 3.15523ZM32.5595 3.37551C33.0258 3.89246 33.3549 4.41392 33.4941 4.85638C33.5564 5.05439 33.6247 5.21631 33.646 5.21631C33.7498 5.21631 35.7086 4.32091 35.7494 4.25478C35.8337 4.1181 33.5962 3.28183 32.54 3.05522L32.2062 2.98362L32.5595 3.37551ZM18.2619 3.90925C16.8326 4.39885 15.0256 5.28484 13.8616 6.06689C13.4259 6.35953 13.261 6.56138 12.8426 7.31425C12.2982 8.29382 11.7792 9.50423 11.8661 9.59128C11.8962 9.62142 12.2359 9.72729 12.621 9.82653C13.3529 10.0151 13.4663 9.98595 13.4697 9.60846C13.472 9.34289 13.8174 8.5022 14.15 7.95242C14.5897 7.22575 15.741 6.4915 17.24 5.98185L17.9909 5.72664L18.2051 5.08885C18.323 4.73814 18.5584 4.27782 18.7285 4.06589C19.0831 3.62381 19.0892 3.62582 18.2619 3.90925ZM21.1081 4.44386C20.4256 5.18233 20.0379 5.95584 20.1228 6.40944C20.1846 6.73923 20.6527 7.24169 20.8803 7.2223C21.1569 7.19878 21.4718 7.07084 21.4718 6.98187C21.4718 6.92841 21.6933 6.63154 21.9641 6.32229C22.4531 5.76388 22.4585 5.7609 22.7585 5.88539C22.9246 5.9543 23.2309 6.13427 23.4391 6.28534C23.7057 6.47884 23.9311 6.56003 24.2017 6.56003C24.4129 6.56003 24.5858 6.52759 24.5858 6.48805C24.5858 6.44851 24.4349 6.29542 24.2504 6.14799C24.0475 5.98578 23.9151 5.79555 23.9151 5.66598C23.9151 5.37506 23.4576 4.84103 22.755 4.31208C21.955 3.70961 21.7733 3.72411 21.1081 4.44386ZM21.5558 4.85638C20.8923 5.57278 20.7531 5.80179 20.7531 6.17784C20.7531 6.3818 20.7877 6.57011 20.8301 6.59631C20.8723 6.62252 21.0972 6.4199 21.3298 6.14607C21.5624 5.87224 21.9379 5.48208 22.1643 5.27908L22.576 4.90994L22.3442 4.7272C22.0233 4.47438 21.8893 4.49636 21.5558 4.85638ZM22.9115 5.30836C22.8771 5.36402 22.9182 5.4363 23.0029 5.46883C23.2137 5.54984 23.2792 5.46077 23.1115 5.32131C23.0171 5.2428 22.9544 5.23877 22.9115 5.30836ZM38.3575 5.67222C38.4434 5.87022 38.7345 6.65841 39.0045 7.42386L39.4954 8.81557L40.0652 8.76758C40.941 8.69377 42.317 8.71057 42.7416 8.80021L43.1235 8.88074L42.9332 8.66574C42.5767 8.26282 41.0615 7.04166 40.2243 6.48258C39.4441 5.9615 38.3466 5.31229 38.2459 5.31229C38.2215 5.31229 38.2717 5.47431 38.3575 5.67222ZM36.9461 9.33866C37.2427 9.57708 37.4495 9.58994 37.4074 9.36746C37.3857 9.25238 37.2704 9.19114 37.0411 9.17281L36.7065 9.14622L36.9461 9.33866ZM7.71036 10.7712C7.11084 11.4022 6.5394 12.0569 6.44051 12.2259L6.26086 12.5333L6.63215 12.4868C9.03723 12.1862 8.98395 12.1978 8.92206 11.9885C8.77709 11.4982 8.71107 10.6907 8.77651 10.2073C8.8157 9.91694 8.83716 9.66691 8.82413 9.65156C8.8111 9.6363 8.30989 10.1401 7.71036 10.7712ZM15.0482 9.82979C14.9358 10.0119 15.0996 10.0568 15.2665 9.88959C15.4159 9.74005 15.4162 9.72738 15.2699 9.72738C15.1827 9.72738 15.0828 9.77345 15.0482 9.82979ZM43.4794 11.8291C43.4278 11.9771 43.2734 12.2107 43.1362 12.3481C42.8734 12.6114 42.8041 12.9748 43.0065 13.0286C43.0724 13.0462 43.3418 13.1121 43.6053 13.1753C44.2853 13.3383 45.1729 13.7549 45.3355 13.9875C45.4115 14.0962 45.4737 14.3424 45.4737 14.5346V14.8841L46.0726 14.9986C46.402 15.0617 46.9193 15.1681 47.2224 15.2351C47.5254 15.3022 47.7733 15.3255 47.7733 15.2868C47.7733 15.0641 46.1945 12.5786 46.018 12.5235C45.9159 12.4916 45.2714 12.2384 44.0204 11.7386L43.573 11.5599L43.4794 11.8291ZM8.20123 12.8915C8.01679 12.9319 7.47782 13.0168 7.00353 13.0803C5.59791 13.2683 5.62857 13.2529 5.10752 14.0304C4.84968 14.4151 4.40547 15.1915 4.12032 15.7558L3.60196 16.7819L3.89717 16.8434C4.05958 16.8771 4.31081 17.0184 4.45559 17.1574L4.7187 17.4099L5.2591 17.1706C5.55632 17.0389 5.95367 16.8666 6.14214 16.7877C6.47549 16.6482 6.48124 16.6371 6.35351 16.3772C6.28136 16.2302 6.14272 15.838 6.04537 15.5055C5.87079 14.9088 5.87098 14.8984 6.05955 14.7095C6.29296 14.4756 6.97038 14.2872 8.29647 14.0873C8.84952 14.0039 9.31557 13.9221 9.33215 13.9054C9.34873 13.8888 9.2921 13.633 9.20615 13.3369C9.03521 12.748 8.9761 12.7218 8.20123 12.8915ZM7.33889 14.9141C6.80548 15.0514 6.71254 15.1075 6.69126 15.3043C6.67756 15.4307 6.70449 15.5927 6.75105 15.6642C6.82167 15.7729 6.87341 15.7707 7.06332 15.651C7.18855 15.5721 7.46345 15.4543 7.67424 15.3894C8.16913 15.2366 8.2112 15.1908 8.07485 14.952C7.96351 14.757 7.95153 14.7564 7.33889 14.9141ZM45.0034 15.8252C44.8824 16.0678 44.7986 16.2815 44.8172 16.3C44.9385 16.4207 46.2 17.3098 46.2499 17.3098C46.2838 17.3098 46.3398 17.1331 46.3743 16.9171C46.4088 16.7011 46.5202 16.361 46.6219 16.1612L46.8068 15.798L46.1166 15.63C45.737 15.5375 45.3807 15.4444 45.3248 15.4229C45.2691 15.4015 45.1244 15.5825 45.0034 15.8252ZM5.88497 17.5251L5.05386 17.9144L5.02263 18.5722C5.0027 18.9922 5.02818 19.2298 5.09315 19.2296C5.25555 19.2293 6.78957 18.6948 7.121 18.5232C7.28686 18.4373 7.44802 18.3257 7.47916 18.2753C7.53473 18.1852 6.86824 17.1093 6.76763 17.1268C6.73927 17.1318 6.34211 17.311 5.88497 17.5251ZM49.1181 18.5055C49.0242 18.6189 49.0503 18.6938 49.2559 18.8996C49.5719 19.2162 49.648 19.1534 49.4875 18.7087C49.3511 18.3307 49.2906 18.2974 49.1181 18.5055ZM1.93409 22.1808C1.84076 22.6956 1.74025 23.7842 1.71064 24.6001L1.65689 26.0836L1.95248 25.7464C2.11499 25.561 2.40368 25.3252 2.59397 25.2227C2.80812 25.1073 3.04412 24.8534 3.21323 24.5563C3.36357 24.2924 3.64191 23.9276 3.83173 23.7457C4.02163 23.5637 4.17695 23.3863 4.17695 23.3513C4.17695 23.3164 3.94038 23.1304 3.6513 22.9382C3.13821 22.5969 2.26082 21.6044 2.26072 21.365C2.26063 21.299 2.22537 21.245 2.18216 21.245C2.13904 21.245 2.02741 21.6661 1.93409 22.1808ZM47.9959 22.9063L47.5589 23.3199L47.5463 24.452C47.534 25.5682 47.5371 25.5858 47.7733 25.7076C48.0604 25.8557 49.0379 26.1531 49.0844 26.1064C49.1025 26.0883 49.052 25.917 48.9723 25.7259C48.7716 25.2449 48.7911 24.6126 49.0258 23.984L49.2243 23.4524L48.93 23.0946C48.7681 22.8979 48.6357 22.682 48.6357 22.6148C48.6357 22.3963 48.4411 22.485 47.9959 22.9063ZM4.4369 24.064C3.58759 24.8031 3.45785 25.1931 3.75967 26.0989C3.84639 26.359 3.92582 26.5831 3.93617 26.5968C3.94661 26.6104 4.31761 26.4559 4.76066 26.2534C5.20381 26.0508 5.6896 25.8333 5.84042 25.7698C6.0745 25.6713 6.10564 25.6163 6.0537 25.3934C6.02026 25.2497 5.96651 24.8623 5.93412 24.5325L5.87539 23.9327L5.4813 23.8319C5.26456 23.7764 5.04332 23.7168 4.98976 23.6993C4.9361 23.6819 4.68737 23.8461 4.4369 24.064ZM4.88982 24.8026C4.70959 25.0022 4.70959 25.0078 4.88896 25.1392C5.11595 25.3056 5.35022 25.1493 5.30739 24.8602C5.26705 24.588 5.10407 24.5655 4.88982 24.8026ZM0.192629 26.4759C0.192725 27.4789 0.206905 27.8762 0.224152 27.3588C0.241399 26.8413 0.241303 26.0207 0.223961 25.5351C0.206618 25.0496 0.192533 25.4729 0.192629 26.4759ZM50.6371 27.9698C50.2319 28.5043 49.6821 29.0062 49.0496 29.4189L48.4575 29.8052L49.4716 30.8052C50.0294 31.3552 50.4923 31.7938 50.5002 31.78C50.6523 31.5166 50.9707 28.6453 50.9181 28.0116L50.8873 27.6398L50.6371 27.9698ZM1.78289 28.615C1.78442 29.0546 1.87257 29.4033 1.982 29.4033C2.02732 29.4033 2.19126 29.3261 2.34629 29.2316L2.62818 29.0598L2.20486 28.6592L1.78155 28.2585L1.78289 28.615ZM4.95258 29.4813C4.61062 30.1598 4.50579 30.6578 4.64865 30.9253C4.70701 31.0344 4.95297 31.2604 5.19529 31.4274C5.54808 31.6705 5.65252 31.7047 5.7194 31.599C5.7653 31.5263 5.80353 31.4372 5.80439 31.4009C5.80516 31.3646 5.99755 31.1969 6.23183 31.0284L6.65782 30.7219L6.37919 30.4428C6.22598 30.2893 6.07143 30.0083 6.03588 29.8184C5.9781 29.5098 5.50611 28.9343 5.30413 28.9262C5.26542 28.9247 5.10723 29.1744 4.95258 29.4813ZM6.28491 31.9411C6.28491 32.0852 6.4569 32.2384 6.53307 32.1621C6.59995 32.0952 6.46763 31.8028 6.37047 31.8028C6.32343 31.8028 6.28491 31.865 6.28491 31.9411ZM3.14463 33.9384C3.20384 34.11 3.57887 34.8934 3.97804 35.6795L4.70394 37.1086L5.34332 37.3228C5.69497 37.4406 6.18545 37.6505 6.43333 37.7892C6.68111 37.928 6.91816 38.0416 6.96003 38.0416C7.002 38.0416 7.06638 37.9012 7.10327 37.7296C7.14007 37.558 7.29443 37.1417 7.4462 36.8046C7.59797 36.4673 7.72196 36.1649 7.72186 36.1327C7.72167 36.1004 7.19823 36.0713 6.55856 36.068C5.41921 36.0621 5.39123 36.0568 5.17469 35.8045C5.05309 35.663 4.88197 35.2985 4.79449 34.9948C4.70691 34.6909 4.60765 34.3849 4.57373 34.3147C4.51748 34.1982 3.30857 33.6265 3.11847 33.6265C3.07372 33.6265 3.08551 33.7668 3.14463 33.9384ZM44.7887 34.6273C44.6899 34.8445 44.7424 34.9172 45.5573 35.694C46.0384 36.1526 46.4319 36.5876 46.4319 36.6608C46.4319 36.832 46.129 36.83 45.0425 36.6512C43.8811 36.46 43.8691 36.4614 43.6522 36.8178C43.5477 36.9894 43.4622 37.1513 43.462 37.1777C43.4617 37.2041 43.6879 37.2272 43.9646 37.229C44.2412 37.2307 44.9635 37.2682 45.5695 37.3124C46.6703 37.3925 46.6717 37.3923 46.9349 37.1458C47.3279 36.7777 47.2732 36.548 46.6475 35.9386C46.0478 35.3547 44.9777 34.3943 44.9265 34.3943C44.9091 34.3943 44.847 34.4991 44.7887 34.6273ZM5.23093 37.9157C5.23093 38.0131 6.41905 39.7642 6.97536 40.4866C7.37194 41.0018 7.56712 41.1743 7.82209 41.2353C8.00423 41.2789 8.27539 41.3532 8.42448 41.4003C8.68616 41.4829 8.70417 41.4667 8.93719 40.9395C9.30973 40.0968 9.32046 39.8619 8.99957 39.572C8.85029 39.437 8.51263 39.2745 8.24914 39.2107C7.98564 39.1469 7.19871 38.816 6.50049 38.4754C5.80219 38.1348 5.23093 37.8829 5.23093 37.9157ZM44.705 39.4523C44.3266 40.0498 44.3255 40.1777 44.7007 39.9429C44.8442 39.8532 44.9162 39.8562 45.0372 39.9567C45.1782 40.074 45.1776 40.0996 45.0293 40.2637C44.9404 40.3622 44.7004 40.4929 44.4959 40.5542C44.1415 40.6607 44.1278 40.6796 44.2001 40.9614C44.2419 41.1239 44.2731 41.6213 44.2696 42.0668L44.2631 42.8768L44.8323 42.2587C45.2987 41.7524 46.2715 40.5885 46.6452 40.0896C46.7549 39.9433 46.2562 39.5626 45.5384 39.2447L44.9901 39.0017L44.705 39.4523ZM40.7457 40.5206C40.5327 40.7565 40.5429 40.7971 40.8564 40.9595C41.2657 41.1716 41.7369 41.6986 41.7369 41.9442C41.7369 42.385 41.2911 43.2022 40.9546 43.3781C40.4926 43.6195 39.8036 43.6092 39.4684 43.3558C39.1992 43.1521 39.1755 43.0367 39.2992 42.5298C39.3483 42.3287 39.3236 42.2517 39.1936 42.2018C38.9624 42.1129 38.575 42.5736 38.575 42.9374C38.575 43.681 39.1467 44.1003 40.1604 44.1003C41.2333 44.1003 41.8339 43.6934 42.1701 42.7388C42.4726 41.8802 42.2729 41.2891 41.4739 40.678C40.9687 40.2916 40.9552 40.2886 40.7457 40.5206ZM12.7046 43.8703C12.7046 44.1592 12.9081 44.4722 13.096 44.4722C13.192 44.4722 12.9483 43.8148 12.7954 43.6612C12.7381 43.6037 12.7046 43.681 12.7046 43.8703ZM11.2194 43.9018C11.0086 43.9455 10.6719 43.9838 10.4712 43.9868C10.2614 43.99 10.1306 44.0319 10.1636 44.0853C10.1952 44.1365 10.7014 44.5918 11.2884 45.0973C12.4551 46.1016 13.3684 46.7648 14.6209 47.5169C15.5009 48.0454 17.4954 49.0106 17.4954 48.9079C17.4954 48.8083 16.5371 47.2585 16.1334 46.7052C15.6977 46.108 15.5836 46.0451 14.0939 45.5794C13.1116 45.2722 12.8932 45.1663 12.5941 44.8518C12.4017 44.6494 12.1935 44.3301 12.1316 44.1421C12.0095 43.7717 11.9383 43.753 11.2194 43.9018ZM38.1491 46.1256C37.8621 46.7471 37.7581 46.8774 37.3028 47.1869L36.944 47.4309L37.3938 47.8161L37.8438 48.2014L38.2333 48.0036C38.6588 47.7878 40.0806 46.8272 40.5392 46.4458L40.8266 46.2068L40.4913 46.192C40.3068 46.1838 40.1193 46.1837 40.0747 46.1916C39.911 46.2209 38.8108 45.9001 38.6001 45.7618C38.3895 45.6237 38.3758 45.6347 38.1491 46.1256ZM22.1844 46.4189C22.102 46.4832 21.9758 46.7481 21.9039 47.0076C21.5569 48.2613 20.1867 48.8652 18.6304 48.4503C18.3487 48.3752 18.0685 48.3132 18.0076 48.3126C17.8906 48.3113 18.3952 49.3198 18.5639 49.4242C18.6178 49.4575 19.2581 49.6896 19.9868 49.9398L21.3118 50.3949L21.9268 49.6171C22.7153 48.62 22.7973 48.4839 23.0526 47.7483C23.2982 47.041 23.2356 46.8087 22.7121 46.4846C22.3578 46.2651 22.378 46.2677 22.1844 46.4189ZM25.2268 47.8288C25.1958 48.0913 25.1216 48.3972 25.062 48.5088C24.9175 48.7792 24.4559 48.9611 23.712 49.041L23.1006 49.1066L22.6035 49.7408C22.3301 50.0897 22.1016 50.4182 22.0956 50.471C22.0897 50.5238 22.3793 50.6244 22.7394 50.6946L23.394 50.8222L23.9181 50.4682C24.5022 50.0735 25.7818 49.4187 26.6219 49.0843C26.925 48.9637 27.1728 48.8344 27.1728 48.7969C27.1728 48.6947 25.4815 47.3516 25.3527 47.3516C25.3145 47.3516 25.2578 47.5663 25.2268 47.8288ZM35.1725 47.6374C35.1401 47.7706 34.9478 48.1603 34.7452 48.5034C34.3748 49.1304 34.1714 49.7511 34.3364 49.7511C34.7542 49.7511 37.2335 48.6335 37.2335 48.4451C37.2335 48.3778 36.9963 48.1367 36.7062 47.9092C36.2946 47.5863 36.075 47.4846 35.7052 47.4454C35.2599 47.3983 35.2277 47.4099 35.1725 47.6374ZM33.2539 49.9962L32.9697 50.2333L33.2572 50.1718C33.614 50.0954 33.7006 50.0223 33.6092 49.8742C33.5581 49.7914 33.4581 49.8257 33.2539 49.9962Z" fill="white"/>
</svg>
