<svg width="913" height="141" viewBox="0 0 913 141" fill="none" xmlns="http://www.w3.org/2000/svg">
<path d="M509.524 93.1827L508.783 77.3857V2.7259H529.563V140.95H526.78L446.998 51.4338L447.555 66.4779V89.0083H472.194V111.424H426.773V2.53842H429.371L509.524 93.1827ZM633.269 93.1827L632.527 77.3857V2.7259H653.308V140.95H650.525L570.743 51.4338L571.3 66.4779V89.0083H595.94V111.424H550.519V2.53842H553.117L633.269 93.1827ZM842.956 29.5977H891.692V2.64534H912.766V140.95H891.692V79.4759H842.956V140.95H821.88V2.64534H842.956V29.5977ZM43.9212 0.681152C49.8584 0.681153 54.9297 1.30004 59.1352 2.53695C63.3406 3.77384 66.8656 5.25811 69.7105 6.98971C72.5555 8.72141 74.7831 10.2679 76.3911 11.6285L66.557 28.5123C64.4543 26.2859 61.3002 24.2451 57.0949 22.3898C52.8895 20.4108 48.1889 19.4209 42.994 19.4208C36.9331 19.4208 32.1082 20.8426 28.5211 23.6875C24.934 26.4088 23.1412 30.4916 23.1412 35.9341C23.1413 40.7579 24.7486 44.9019 27.9645 48.3652C31.1805 51.7049 35.2633 54.7963 40.211 57.6413C45.2824 60.3625 50.477 63.1467 55.7957 65.9916C61.1144 68.8365 65.8147 72.1759 69.8965 76.0103C73.2362 78.9789 76.0813 82.6894 78.4315 87.1422C80.7816 91.5952 81.9571 96.6055 81.9571 102.172C81.957 110.583 79.9772 117.695 76.0191 123.508C72.1846 129.322 66.9901 133.713 60.4344 136.682C53.8787 139.527 46.4566 140.949 38.1692 140.949C32.9742 140.949 27.8405 140.331 22.7691 139.094C17.6978 137.734 13.1829 136.125 9.22484 134.27C5.26706 132.291 2.29837 130.312 0.319336 128.333L10.1535 110.707C11.5141 111.82 13.6162 113.304 16.4606 115.159C19.4291 116.891 22.831 118.438 26.6653 119.798C30.4997 121.159 34.3348 121.839 38.1692 121.839C44.4774 121.839 49.7344 120.354 53.9399 117.386C58.2691 114.417 60.4344 110.088 60.4344 104.398C60.4344 99.6978 59.1967 95.8005 56.7228 92.7082C54.2491 89.6162 50.9716 86.8952 46.8902 84.5453C42.9321 82.1952 38.6026 79.9688 33.9025 77.8661C29.3259 75.6397 24.9343 73.1656 20.7288 70.4444C15.9047 67.2284 11.6988 62.9601 8.11166 57.6413C4.52485 52.3226 2.73178 45.4579 2.73173 37.0473C2.73173 28.7599 4.58694 21.9566 8.29767 16.6378C12.132 11.3192 17.1413 7.36089 23.3257 4.76333C29.6341 2.04208 36.4996 0.681152 43.9212 0.681152ZM220.342 140.827H86.092L153.217 2.93975L220.342 140.827ZM416.683 140.827H282.431L349.557 2.93975L416.683 140.827ZM803.677 140.827H669.425L736.551 2.93975L803.677 140.827ZM493.192 140.635H426.773V119.593H493.192V140.635ZM616.938 140.635H550.519V119.593H616.938V140.635ZM253.136 96.4212L294.14 2.72444H317.518L254.62 139.096H251.837L188.754 2.72444H212.317L253.136 96.4212ZM119.738 119.785H186.696L153.217 51.0119L119.738 119.785ZM316.078 119.785H383.036L349.557 51.0119L316.078 119.785ZM703.072 119.785H770.031L736.551 51.0119L703.072 119.785ZM253.753 31.2191L265.503 0.889143H284.2L254.939 64.9414H252.714L224.474 0.889143H243.32L253.753 31.2191ZM842.956 50.6399V58.4337H891.692V50.6399H842.956Z" fill="white"/>
</svg>
